<?xml version="1.0" encoding="utf-8" standalone="no"?>
<!DOCTYPE svg PUBLIC "-//W3C//DTD SVG 1.1//EN"
  "http://www.w3.org/Graphics/SVG/1.1/DTD/svg11.dtd">
<svg xmlns:xlink="http://www.w3.org/1999/xlink" width="1154.4pt" height="650.4pt" viewBox="0 0 1154.4 650.4" xmlns="http://www.w3.org/2000/svg" version="1.1">
 <metadata>
  <rdf:RDF xmlns:dc="http://purl.org/dc/elements/1.1/" xmlns:cc="http://creativecommons.org/ns#" xmlns:rdf="http://www.w3.org/1999/02/22-rdf-syntax-ns#">
   <cc:Work>
    <dc:type rdf:resource="http://purl.org/dc/dcmitype/StillImage"/>
    <dc:date>2025-09-01T13:03:07.701491</dc:date>
    <dc:format>image/svg+xml</dc:format>
    <dc:creator>
     <cc:Agent>
      <dc:title>Matplotlib v3.10.5, https://matplotlib.org/</dc:title>
     </cc:Agent>
    </dc:creator>
   </cc:Work>
  </rdf:RDF>
 </metadata>
 <defs>
  <style type="text/css">*{stroke-linejoin: round; stroke-linecap: butt}</style>
 </defs>
 <g id="figure_1">
  <g id="patch_1">
   <path d="M 0 650.4 
L 1154.4 650.4 
L 1154.4 0 
L 0 0 
z
" style="fill: #0b1220"/>
  </g>
  <g id="axes_1">
   <g id="patch_2">
    <path d="M 77.88 156.66 
L 335.52 156.66 
Q 338.94 156.66 338.94 153.48 
L 338.94 110.02 
Q 338.94 106.84 335.52 106.84 
L 77.88 106.84 
Q 74.46 106.84 74.46 110.02 
L 74.46 153.48 
Q 74.46 156.66 77.88 156.66 
z
" clip-path="url(#p2fe874c1db)" style="fill: #111827; stroke: #60a5fa; stroke-width: 1.4; stroke-linejoin: miter"/>
   </g>
   <g id="patch_3">
    <path d="M 77.88 225.56 
L 335.52 225.56 
Q 338.94 225.56 338.94 222.38 
L 338.94 178.92 
Q 338.94 175.74 335.52 175.74 
L 77.88 175.74 
Q 74.46 175.74 74.46 178.92 
L 74.46 222.38 
Q 74.46 225.56 77.88 225.56 
z
" clip-path="url(#p2fe874c1db)" style="fill: #111827; stroke: #60a5fa; stroke-width: 1.4; stroke-linejoin: miter"/>
   </g>
   <g id="patch_4">
    <path d="M 408.48 124.86 
L 666.12 124.86 
Q 669.54 124.86 669.54 121.68 
L 669.54 78.22 
Q 669.54 75.04 666.12 75.04 
L 408.48 75.04 
Q 405.06 75.04 405.06 78.22 
L 405.06 121.68 
Q 405.06 124.86 408.48 124.86 
z
" clip-path="url(#p2fe874c1db)" style="fill: #0f172a; stroke: #60a5fa; stroke-width: 1.4; stroke-linejoin: miter"/>
   </g>
   <g id="patch_5">
    <path d="M 408.48 193.76 
L 666.12 193.76 
Q 669.54 193.76 669.54 190.58 
L 669.54 147.12 
Q 669.54 143.94 666.12 143.94 
L 408.48 143.94 
Q 405.06 143.94 405.06 147.12 
L 405.06 190.58 
Q 405.06 193.76 408.48 193.76 
z
" clip-path="url(#p2fe874c1db)" style="fill: #0f172a; stroke: #60a5fa; stroke-width: 1.4; stroke-linejoin: miter"/>
   </g>
   <g id="patch_6">
    <path d="M 721.98 124.86 
L 1036.62 124.86 
Q 1040.04 124.86 1040.04 121.68 
L 1040.04 78.22 
Q 1040.04 75.04 1036.62 75.04 
L 721.98 75.04 
Q 718.56 75.04 718.56 78.22 
L 718.56 121.68 
Q 718.56 124.86 721.98 124.86 
z
" clip-path="url(#p2fe874c1db)" style="fill: #111827; stroke: #fbbf24; stroke-width: 1.4; stroke-linejoin: miter"/>
   </g>
   <g id="patch_7">
    <path d="M 721.98 193.76 
L 865.62 193.76 
Q 869.04 193.76 869.04 190.58 
L 869.04 147.12 
Q 869.04 143.94 865.62 143.94 
L 721.98 143.94 
Q 718.56 143.94 718.56 147.12 
L 718.56 190.58 
Q 718.56 193.76 721.98 193.76 
z
" clip-path="url(#p2fe874c1db)" style="fill: #111827; stroke: #fbbf24; stroke-width: 1.4; stroke-linejoin: miter"/>
   </g>
   <g id="patch_8">
    <path d="M 892.98 193.76 
L 1036.62 193.76 
Q 1040.04 193.76 1040.04 190.58 
L 1040.04 147.12 
Q 1040.04 143.94 1036.62 143.94 
L 892.98 143.94 
Q 889.56 143.94 889.56 147.12 
L 889.56 190.58 
Q 889.56 193.76 892.98 193.76 
z
" clip-path="url(#p2fe874c1db)" style="fill: #111827; stroke: #fbbf24; stroke-width: 1.4; stroke-linejoin: miter"/>
   </g>
   <g id="patch_9">
    <path d="M 721.98 262.66 
L 865.62 262.66 
Q 869.04 262.66 869.04 259.48 
L 869.04 216.02 
Q 869.04 212.84 865.62 212.84 
L 721.98 212.84 
Q 718.56 212.84 718.56 216.02 
L 718.56 259.48 
Q 718.56 262.66 721.98 262.66 
z
" clip-path="url(#p2fe874c1db)" style="fill: #111827; stroke: #fbbf24; stroke-width: 1.4; stroke-linejoin: miter"/>
   </g>
   <g id="patch_10">
    <path d="M 892.98 262.66 
L 1036.62 262.66 
Q 1040.04 262.66 1040.04 259.48 
L 1040.04 216.02 
Q 1040.04 212.84 1036.62 212.84 
L 892.98 212.84 
Q 889.56 212.84 889.56 216.02 
L 889.56 259.48 
Q 889.56 262.66 892.98 262.66 
z
" clip-path="url(#p2fe874c1db)" style="fill: #111827; stroke: #fbbf24; stroke-width: 1.4; stroke-linejoin: miter"/>
   </g>
   <g id="patch_11">
    <path d="M 721.98 347.46 
L 865.62 347.46 
Q 869.04 347.46 869.04 344.28 
L 869.04 300.82 
Q 869.04 297.64 865.62 297.64 
L 721.98 297.64 
Q 718.56 297.64 718.56 300.82 
L 718.56 344.28 
Q 718.56 347.46 721.98 347.46 
z
" clip-path="url(#p2fe874c1db)" style="fill: #0f172a; stroke: #34d399; stroke-width: 1.4; stroke-linejoin: miter"/>
   </g>
   <g id="patch_12">
    <path d="M 892.98 347.46 
L 1036.62 347.46 
Q 1040.04 347.46 1040.04 344.28 
L 1040.04 300.82 
Q 1040.04 297.64 1036.62 297.64 
L 892.98 297.64 
Q 889.56 297.64 889.56 300.82 
L 889.56 344.28 
Q 889.56 347.46 892.98 347.46 
z
" clip-path="url(#p2fe874c1db)" style="fill: #0f172a; stroke: #34d399; stroke-width: 1.4; stroke-linejoin: miter"/>
   </g>
   <g id="patch_13">
    <path d="M 721.98 416.36 
L 865.62 416.36 
Q 869.04 416.36 869.04 413.18 
L 869.04 369.72 
Q 869.04 366.54 865.62 366.54 
L 721.98 366.54 
Q 718.56 366.54 718.56 369.72 
L 718.56 413.18 
Q 718.56 416.36 721.98 416.36 
z
" clip-path="url(#p2fe874c1db)" style="fill: #0f172a; stroke: #34d399; stroke-width: 1.4; stroke-linejoin: miter"/>
   </g>
   <g id="patch_14">
    <path d="M 892.98 416.36 
L 1036.62 416.36 
Q 1040.04 416.36 1040.04 413.18 
L 1040.04 369.72 
Q 1040.04 366.54 1036.62 366.54 
L 892.98 366.54 
Q 889.56 366.54 889.56 369.72 
L 889.56 413.18 
Q 889.56 416.36 892.98 416.36 
z
" clip-path="url(#p2fe874c1db)" style="fill: #0f172a; stroke: #34d399; stroke-width: 1.4; stroke-linejoin: miter"/>
   </g>
   <g id="patch_15">
    <path d="M 807.48 485.26 
L 951.12 485.26 
Q 954.54 485.26 954.54 482.08 
L 954.54 438.62 
Q 954.54 435.44 951.12 435.44 
L 807.48 435.44 
Q 804.06 435.44 804.06 438.62 
L 804.06 482.08 
Q 804.06 485.26 807.48 485.26 
z
" clip-path="url(#p2fe874c1db)" style="fill: #0f172a; stroke: #34d399; stroke-width: 1.4; stroke-linejoin: miter"/>
   </g>
   <g id="patch_16">
    <path d="M 212.670232 131.175731 
Q 372.000658 115.849937 529.995607 100.6526 
" clip-path="url(#p2fe874c1db)" style="fill: none; stroke: #9ca3af; stroke-width: 1.2; stroke-linecap: round"/>
    <path d="M 524.987867 98.723211 
L 529.995607 100.6526 
L 525.447452 103.501159 
z
" clip-path="url(#p2fe874c1db)" style="fill: #9ca3af; stroke: #9ca3af; stroke-width: 1.2; stroke-linecap: round"/>
   </g>
   <g id="patch_17">
    <path d="M 212.438182 198.902163 
Q 372.000228 150.29993 530.278852 102.088626 
" clip-path="url(#p2fe874c1db)" style="fill: none; stroke: #9ca3af; stroke-width: 1.2; stroke-linecap: round"/>
    <path d="M 524.987824 101.191394 
L 530.278852 102.088626 
L 526.38645 105.783109 
z
" clip-path="url(#p2fe874c1db)" style="fill: #9ca3af; stroke: #9ca3af; stroke-width: 1.2; stroke-linecap: round"/>
   </g>
   <g id="patch_18">
    <path d="M 537.3 105.950995 
Q 537.3 134.400279 537.3 161.507923 
" clip-path="url(#p2fe874c1db)" style="fill: none; stroke: #9ca3af; stroke-width: 1.2; stroke-linecap: round"/>
    <path d="M 539.7 156.707923 
L 537.3 161.507923 
L 534.9 156.707923 
z
" clip-path="url(#p2fe874c1db)" style="fill: #9ca3af; stroke: #9ca3af; stroke-width: 1.2; stroke-linecap: round"/>
   </g>
   <g id="patch_19">
    <path d="M 543.183865 167.664625 
Q 708.301891 134.399619 872.104701 101.399579 
" clip-path="url(#p2fe874c1db)" style="fill: none; stroke: #9ca3af; stroke-width: 1.2; stroke-linecap: round"/>
    <path d="M 866.925255 99.994821 
L 872.104701 101.399579 
L 867.873227 104.70028 
z
" clip-path="url(#p2fe874c1db)" style="fill: #9ca3af; stroke: #9ca3af; stroke-width: 1.2; stroke-linecap: round"/>
   </g>
   <g id="patch_20">
    <path d="M 874.626828 103.715866 
Q 836.550554 134.399553 799.51894 164.241404 
" clip-path="url(#p2fe874c1db)" style="fill: none; stroke: #9ca3af; stroke-width: 1.2; stroke-linecap: round"/>
    <path d="M 804.762347 163.098302 
L 799.51894 164.241404 
L 801.750502 159.360817 
z
" clip-path="url(#p2fe874c1db)" style="fill: #9ca3af; stroke: #9ca3af; stroke-width: 1.2; stroke-linecap: round"/>
   </g>
   <g id="patch_21">
    <path d="M 883.973172 103.715866 
Q 922.049446 134.399553 959.08106 164.241404 
" clip-path="url(#p2fe874c1db)" style="fill: none; stroke: #9ca3af; stroke-width: 1.2; stroke-linecap: round"/>
    <path d="M 956.849498 159.360817 
L 959.08106 164.241404 
L 953.837653 163.098302 
z
" clip-path="url(#p2fe874c1db)" style="fill: #9ca3af; stroke: #9ca3af; stroke-width: 1.2; stroke-linecap: round"/>
   </g>
   <g id="patch_22">
    <path d="M 876.134976 105.051056 
Q 836.54921 168.851273 797.67079 231.511463 
" clip-path="url(#p2fe874c1db)" style="fill: none; stroke: #9ca3af; stroke-width: 1.2; stroke-linecap: round"/>
    <path d="M 802.240811 228.698118 
L 797.67079 231.511463 
L 798.162127 226.16744 
z
" clip-path="url(#p2fe874c1db)" style="fill: #9ca3af; stroke: #9ca3af; stroke-width: 1.2; stroke-linecap: round"/>
   </g>
   <g id="patch_23">
    <path d="M 882.465024 105.051056 
Q 922.05079 168.851273 960.92921 231.511463 
" clip-path="url(#p2fe874c1db)" style="fill: none; stroke: #9ca3af; stroke-width: 1.2; stroke-linecap: round"/>
    <path d="M 960.437873 226.16744 
L 960.92921 231.511463 
L 956.359189 228.698118 
z
" clip-path="url(#p2fe874c1db)" style="fill: #9ca3af; stroke: #9ca3af; stroke-width: 1.2; stroke-linecap: round"/>
   </g>
   <g id="patch_24">
    <path d="M 960.335568 172.862767 
Q 879.300168 245.699849 799.262581 317.640066 
" clip-path="url(#p2fe874c1db)" style="fill: none; stroke: #9ca3af; stroke-width: 1.2; stroke-linecap: round"/>
    <path d="M 804.43683 316.216286 
L 799.262581 317.640066 
L 801.228107 312.646399 
z
" clip-path="url(#p2fe874c1db)" style="fill: #9ca3af; stroke: #9ca3af; stroke-width: 1.2; stroke-linecap: round"/>
   </g>
   <g id="patch_25">
    <path d="M 881.451329 105.551004 
Q 922.050358 211.250932 962.168331 315.698427 
" clip-path="url(#p2fe874c1db)" style="fill: none; stroke: #9ca3af; stroke-width: 1.2; stroke-linecap: round"/>
    <path d="M 962.687673 310.357052 
L 962.168331 315.698427 
L 958.206837 312.078128 
z
" clip-path="url(#p2fe874c1db)" style="fill: #9ca3af; stroke: #9ca3af; stroke-width: 1.2; stroke-linecap: round"/>
   </g>
   <g id="patch_26">
    <path d="M 793.8 243.749216 
Q 793.8 314.599886 793.8 384.108916 
" clip-path="url(#p2fe874c1db)" style="fill: none; stroke: #9ca3af; stroke-width: 1.2; stroke-linecap: round"/>
    <path d="M 796.2 379.308916 
L 793.8 384.108916 
L 791.4 379.308916 
z
" clip-path="url(#p2fe874c1db)" style="fill: #9ca3af; stroke: #9ca3af; stroke-width: 1.2; stroke-linecap: round"/>
   </g>
   <g id="patch_27">
    <path d="M 964.8 174.851804 
Q 964.8 280.151591 964.8 384.109737 
" clip-path="url(#p2fe874c1db)" style="fill: none; stroke: #9ca3af; stroke-width: 1.2; stroke-linecap: round"/>
    <path d="M 967.2 379.309737 
L 964.8 384.109737 
L 962.4 379.309737 
z
" clip-path="url(#p2fe874c1db)" style="fill: #9ca3af; stroke: #9ca3af; stroke-width: 1.2; stroke-linecap: round"/>
   </g>
   <g id="patch_28">
    <path d="M 962.648671 243.351004 
Q 922.049642 349.050932 881.931669 453.498427 
" clip-path="url(#p2fe874c1db)" style="fill: none; stroke: #9ca3af; stroke-width: 1.2; stroke-linecap: round"/>
    <path d="M 885.893163 449.878128 
L 881.931669 453.498427 
L 881.412327 448.157052 
z
" clip-path="url(#p2fe874c1db)" style="fill: #9ca3af; stroke: #9ca3af; stroke-width: 1.2; stroke-linecap: round"/>
   </g>
   <g id="text_1">
    <!-- SkyTerra – Estructura Global (Vista de Alto Nivel) -->
    <g style="fill: #ffffff" transform="translate(328.362656 38.596562) scale(0.18 -0.18)">
     <defs>
      <path id="DejaVuSans-Bold-53" d="M 3834 4519 
L 3834 3531 
Q 3450 3703 3084 3790 
Q 2719 3878 2394 3878 
Q 1963 3878 1756 3759 
Q 1550 3641 1550 3391 
Q 1550 3203 1689 3098 
Q 1828 2994 2194 2919 
L 2706 2816 
Q 3484 2659 3812 2340 
Q 4141 2022 4141 1434 
Q 4141 663 3683 286 
Q 3225 -91 2284 -91 
Q 1841 -91 1394 -6 
Q 947 78 500 244 
L 500 1259 
Q 947 1022 1364 901 
Q 1781 781 2169 781 
Q 2563 781 2772 912 
Q 2981 1044 2981 1288 
Q 2981 1506 2839 1625 
Q 2697 1744 2272 1838 
L 1806 1941 
Q 1106 2091 782 2419 
Q 459 2747 459 3303 
Q 459 4000 909 4375 
Q 1359 4750 2203 4750 
Q 2588 4750 2994 4692 
Q 3400 4634 3834 4519 
z
" transform="scale(0.015625)"/>
      <path id="DejaVuSans-Bold-6b" d="M 538 4863 
L 1656 4863 
L 1656 2216 
L 2944 3500 
L 4244 3500 
L 2534 1894 
L 4378 0 
L 3022 0 
L 1656 1459 
L 1656 0 
L 538 0 
L 538 4863 
z
" transform="scale(0.015625)"/>
      <path id="DejaVuSans-Bold-79" d="M 78 3500 
L 1197 3500 
L 2138 1125 
L 2938 3500 
L 4056 3500 
L 2584 -331 
Q 2363 -916 2067 -1148 
Q 1772 -1381 1288 -1381 
L 641 -1381 
L 641 -647 
L 991 -647 
Q 1275 -647 1404 -556 
Q 1534 -466 1606 -231 
L 1638 -134 
L 78 3500 
z
" transform="scale(0.015625)"/>
      <path id="DejaVuSans-Bold-54" d="M 31 4666 
L 4331 4666 
L 4331 3756 
L 2784 3756 
L 2784 0 
L 1581 0 
L 1581 3756 
L 31 3756 
L 31 4666 
z
" transform="scale(0.015625)"/>
      <path id="DejaVuSans-Bold-65" d="M 4031 1759 
L 4031 1441 
L 1416 1441 
Q 1456 1047 1700 850 
Q 1944 653 2381 653 
Q 2734 653 3104 758 
Q 3475 863 3866 1075 
L 3866 213 
Q 3469 63 3072 -14 
Q 2675 -91 2278 -91 
Q 1328 -91 801 392 
Q 275 875 275 1747 
Q 275 2603 792 3093 
Q 1309 3584 2216 3584 
Q 3041 3584 3536 3087 
Q 4031 2591 4031 1759 
z
M 2881 2131 
Q 2881 2450 2695 2645 
Q 2509 2841 2209 2841 
Q 1884 2841 1681 2658 
Q 1478 2475 1428 2131 
L 2881 2131 
z
" transform="scale(0.015625)"/>
      <path id="DejaVuSans-Bold-72" d="M 3138 2547 
Q 2991 2616 2845 2648 
Q 2700 2681 2553 2681 
Q 2122 2681 1889 2404 
Q 1656 2128 1656 1613 
L 1656 0 
L 538 0 
L 538 3500 
L 1656 3500 
L 1656 2925 
Q 1872 3269 2151 3426 
Q 2431 3584 2822 3584 
Q 2878 3584 2943 3579 
Q 3009 3575 3134 3559 
L 3138 2547 
z
" transform="scale(0.015625)"/>
      <path id="DejaVuSans-Bold-61" d="M 2106 1575 
Q 1756 1575 1579 1456 
Q 1403 1338 1403 1106 
Q 1403 894 1545 773 
Q 1688 653 1941 653 
Q 2256 653 2472 879 
Q 2688 1106 2688 1447 
L 2688 1575 
L 2106 1575 
z
M 3816 1997 
L 3816 0 
L 2688 0 
L 2688 519 
Q 2463 200 2181 54 
Q 1900 -91 1497 -91 
Q 953 -91 614 226 
Q 275 544 275 1050 
Q 275 1666 698 1953 
Q 1122 2241 2028 2241 
L 2688 2241 
L 2688 2328 
Q 2688 2594 2478 2717 
Q 2269 2841 1825 2841 
Q 1466 2841 1156 2769 
Q 847 2697 581 2553 
L 581 3406 
Q 941 3494 1303 3539 
Q 1666 3584 2028 3584 
Q 2975 3584 3395 3211 
Q 3816 2838 3816 1997 
z
" transform="scale(0.015625)"/>
      <path id="DejaVuSans-Bold-20" transform="scale(0.015625)"/>
      <path id="DejaVuSans-Bold-2013" d="M 344 2156 
L 2856 2156 
L 2856 1350 
L 344 1350 
L 344 2156 
z
" transform="scale(0.015625)"/>
      <path id="DejaVuSans-Bold-45" d="M 588 4666 
L 3834 4666 
L 3834 3756 
L 1791 3756 
L 1791 2888 
L 3713 2888 
L 3713 1978 
L 1791 1978 
L 1791 909 
L 3903 909 
L 3903 0 
L 588 0 
L 588 4666 
z
" transform="scale(0.015625)"/>
      <path id="DejaVuSans-Bold-73" d="M 3272 3391 
L 3272 2541 
Q 2913 2691 2578 2766 
Q 2244 2841 1947 2841 
Q 1628 2841 1473 2761 
Q 1319 2681 1319 2516 
Q 1319 2381 1436 2309 
Q 1553 2238 1856 2203 
L 2053 2175 
Q 2913 2066 3209 1816 
Q 3506 1566 3506 1031 
Q 3506 472 3093 190 
Q 2681 -91 1863 -91 
Q 1516 -91 1145 -36 
Q 775 19 384 128 
L 384 978 
Q 719 816 1070 734 
Q 1422 653 1784 653 
Q 2113 653 2278 743 
Q 2444 834 2444 1013 
Q 2444 1163 2330 1236 
Q 2216 1309 1875 1350 
L 1678 1375 
Q 931 1469 631 1722 
Q 331 1975 331 2491 
Q 331 3047 712 3315 
Q 1094 3584 1881 3584 
Q 2191 3584 2531 3537 
Q 2872 3491 3272 3391 
z
" transform="scale(0.015625)"/>
      <path id="DejaVuSans-Bold-74" d="M 1759 4494 
L 1759 3500 
L 2913 3500 
L 2913 2700 
L 1759 2700 
L 1759 1216 
Q 1759 972 1856 886 
Q 1953 800 2241 800 
L 2816 800 
L 2816 0 
L 1856 0 
Q 1194 0 917 276 
Q 641 553 641 1216 
L 641 2700 
L 84 2700 
L 84 3500 
L 641 3500 
L 641 4494 
L 1759 4494 
z
" transform="scale(0.015625)"/>
      <path id="DejaVuSans-Bold-75" d="M 500 1363 
L 500 3500 
L 1625 3500 
L 1625 3150 
Q 1625 2866 1622 2436 
Q 1619 2006 1619 1863 
Q 1619 1441 1641 1255 
Q 1663 1069 1716 984 
Q 1784 875 1895 815 
Q 2006 756 2150 756 
Q 2500 756 2700 1025 
Q 2900 1294 2900 1772 
L 2900 3500 
L 4019 3500 
L 4019 0 
L 2900 0 
L 2900 506 
Q 2647 200 2364 54 
Q 2081 -91 1741 -91 
Q 1134 -91 817 281 
Q 500 653 500 1363 
z
" transform="scale(0.015625)"/>
      <path id="DejaVuSans-Bold-63" d="M 3366 3391 
L 3366 2478 
Q 3138 2634 2908 2709 
Q 2678 2784 2431 2784 
Q 1963 2784 1702 2511 
Q 1441 2238 1441 1747 
Q 1441 1256 1702 982 
Q 1963 709 2431 709 
Q 2694 709 2930 787 
Q 3166 866 3366 1019 
L 3366 103 
Q 3103 6 2833 -42 
Q 2563 -91 2291 -91 
Q 1344 -91 809 395 
Q 275 881 275 1747 
Q 275 2613 809 3098 
Q 1344 3584 2291 3584 
Q 2566 3584 2833 3536 
Q 3100 3488 3366 3391 
z
" transform="scale(0.015625)"/>
      <path id="DejaVuSans-Bold-47" d="M 4781 347 
Q 4331 128 3847 18 
Q 3363 -91 2847 -91 
Q 1681 -91 1000 561 
Q 319 1213 319 2328 
Q 319 3456 1012 4103 
Q 1706 4750 2913 4750 
Q 3378 4750 3804 4662 
Q 4231 4575 4609 4403 
L 4609 3438 
Q 4219 3659 3833 3768 
Q 3447 3878 3059 3878 
Q 2341 3878 1952 3476 
Q 1563 3075 1563 2328 
Q 1563 1588 1938 1184 
Q 2313 781 3003 781 
Q 3191 781 3352 804 
Q 3513 828 3641 878 
L 3641 1784 
L 2906 1784 
L 2906 2591 
L 4781 2591 
L 4781 347 
z
" transform="scale(0.015625)"/>
      <path id="DejaVuSans-Bold-6c" d="M 538 4863 
L 1656 4863 
L 1656 0 
L 538 0 
L 538 4863 
z
" transform="scale(0.015625)"/>
      <path id="DejaVuSans-Bold-6f" d="M 2203 2784 
Q 1831 2784 1636 2517 
Q 1441 2250 1441 1747 
Q 1441 1244 1636 976 
Q 1831 709 2203 709 
Q 2569 709 2762 976 
Q 2956 1244 2956 1747 
Q 2956 2250 2762 2517 
Q 2569 2784 2203 2784 
z
M 2203 3584 
Q 3106 3584 3614 3096 
Q 4122 2609 4122 1747 
Q 4122 884 3614 396 
Q 3106 -91 2203 -91 
Q 1297 -91 786 396 
Q 275 884 275 1747 
Q 275 2609 786 3096 
Q 1297 3584 2203 3584 
z
" transform="scale(0.015625)"/>
      <path id="DejaVuSans-Bold-62" d="M 2400 722 
Q 2759 722 2948 984 
Q 3138 1247 3138 1747 
Q 3138 2247 2948 2509 
Q 2759 2772 2400 2772 
Q 2041 2772 1848 2508 
Q 1656 2244 1656 1747 
Q 1656 1250 1848 986 
Q 2041 722 2400 722 
z
M 1656 2988 
Q 1888 3294 2169 3439 
Q 2450 3584 2816 3584 
Q 3463 3584 3878 3070 
Q 4294 2556 4294 1747 
Q 4294 938 3878 423 
Q 3463 -91 2816 -91 
Q 2450 -91 2169 54 
Q 1888 200 1656 506 
L 1656 0 
L 538 0 
L 538 4863 
L 1656 4863 
L 1656 2988 
z
" transform="scale(0.015625)"/>
      <path id="DejaVuSans-Bold-28" d="M 2413 -844 
L 1484 -844 
Q 1006 -72 778 623 
Q 550 1319 550 2003 
Q 550 2688 779 3389 
Q 1009 4091 1484 4856 
L 2413 4856 
Q 2013 4116 1813 3408 
Q 1613 2700 1613 2009 
Q 1613 1319 1811 609 
Q 2009 -100 2413 -844 
z
" transform="scale(0.015625)"/>
      <path id="DejaVuSans-Bold-56" d="M 31 4666 
L 1241 4666 
L 2478 1222 
L 3713 4666 
L 4922 4666 
L 3194 0 
L 1759 0 
L 31 4666 
z
" transform="scale(0.015625)"/>
      <path id="DejaVuSans-Bold-69" d="M 538 3500 
L 1656 3500 
L 1656 0 
L 538 0 
L 538 3500 
z
M 538 4863 
L 1656 4863 
L 1656 3950 
L 538 3950 
L 538 4863 
z
" transform="scale(0.015625)"/>
      <path id="DejaVuSans-Bold-64" d="M 2919 2988 
L 2919 4863 
L 4044 4863 
L 4044 0 
L 2919 0 
L 2919 506 
Q 2688 197 2409 53 
Q 2131 -91 1766 -91 
Q 1119 -91 703 423 
Q 288 938 288 1747 
Q 288 2556 703 3070 
Q 1119 3584 1766 3584 
Q 2128 3584 2408 3439 
Q 2688 3294 2919 2988 
z
M 2181 722 
Q 2541 722 2730 984 
Q 2919 1247 2919 1747 
Q 2919 2247 2730 2509 
Q 2541 2772 2181 2772 
Q 1825 2772 1636 2509 
Q 1447 2247 1447 1747 
Q 1447 1247 1636 984 
Q 1825 722 2181 722 
z
" transform="scale(0.015625)"/>
      <path id="DejaVuSans-Bold-41" d="M 3419 850 
L 1538 850 
L 1241 0 
L 31 0 
L 1759 4666 
L 3194 4666 
L 4922 0 
L 3713 0 
L 3419 850 
z
M 1838 1716 
L 3116 1716 
L 2478 3572 
L 1838 1716 
z
" transform="scale(0.015625)"/>
      <path id="DejaVuSans-Bold-4e" d="M 588 4666 
L 1931 4666 
L 3628 1466 
L 3628 4666 
L 4769 4666 
L 4769 0 
L 3425 0 
L 1728 3200 
L 1728 0 
L 588 0 
L 588 4666 
z
" transform="scale(0.015625)"/>
      <path id="DejaVuSans-Bold-76" d="M 97 3500 
L 1216 3500 
L 2088 1081 
L 2956 3500 
L 4078 3500 
L 2700 0 
L 1472 0 
L 97 3500 
z
" transform="scale(0.015625)"/>
      <path id="DejaVuSans-Bold-29" d="M 513 -844 
Q 913 -100 1113 609 
Q 1313 1319 1313 2009 
Q 1313 2700 1113 3408 
Q 913 4116 513 4856 
L 1441 4856 
Q 1916 4091 2145 3389 
Q 2375 2688 2375 2003 
Q 2375 1319 2147 623 
Q 1919 -72 1441 -844 
L 513 -844 
z
" transform="scale(0.015625)"/>
     </defs>
     <use xlink:href="#DejaVuSans-Bold-53"/>
     <use xlink:href="#DejaVuSans-Bold-6b" transform="translate(72.021484 0)"/>
     <use xlink:href="#DejaVuSans-Bold-79" transform="translate(138.525391 0)"/>
     <use xlink:href="#DejaVuSans-Bold-54" transform="translate(203.710938 0)"/>
     <use xlink:href="#DejaVuSans-Bold-65" transform="translate(258.673828 0)"/>
     <use xlink:href="#DejaVuSans-Bold-72" transform="translate(326.496094 0)"/>
     <use xlink:href="#DejaVuSans-Bold-72" transform="translate(375.8125 0)"/>
     <use xlink:href="#DejaVuSans-Bold-61" transform="translate(425.128906 0)"/>
     <use xlink:href="#DejaVuSans-Bold-20" transform="translate(492.609375 0)"/>
     <use xlink:href="#DejaVuSans-Bold-2013" transform="translate(527.423828 0)"/>
     <use xlink:href="#DejaVuSans-Bold-20" transform="translate(577.423828 0)"/>
     <use xlink:href="#DejaVuSans-Bold-45" transform="translate(612.238281 0)"/>
     <use xlink:href="#DejaVuSans-Bold-73" transform="translate(680.548828 0)"/>
     <use xlink:href="#DejaVuSans-Bold-74" transform="translate(740.070312 0)"/>
     <use xlink:href="#DejaVuSans-Bold-72" transform="translate(787.873047 0)"/>
     <use xlink:href="#DejaVuSans-Bold-75" transform="translate(837.189453 0)"/>
     <use xlink:href="#DejaVuSans-Bold-63" transform="translate(908.380859 0)"/>
     <use xlink:href="#DejaVuSans-Bold-74" transform="translate(967.658203 0)"/>
     <use xlink:href="#DejaVuSans-Bold-75" transform="translate(1015.460938 0)"/>
     <use xlink:href="#DejaVuSans-Bold-72" transform="translate(1086.652344 0)"/>
     <use xlink:href="#DejaVuSans-Bold-61" transform="translate(1135.96875 0)"/>
     <use xlink:href="#DejaVuSans-Bold-20" transform="translate(1203.449219 0)"/>
     <use xlink:href="#DejaVuSans-Bold-47" transform="translate(1238.263672 0)"/>
     <use xlink:href="#DejaVuSans-Bold-6c" transform="translate(1320.34375 0)"/>
     <use xlink:href="#DejaVuSans-Bold-6f" transform="translate(1354.621094 0)"/>
     <use xlink:href="#DejaVuSans-Bold-62" transform="translate(1423.322266 0)"/>
     <use xlink:href="#DejaVuSans-Bold-61" transform="translate(1494.904297 0)"/>
     <use xlink:href="#DejaVuSans-Bold-6c" transform="translate(1562.384766 0)"/>
     <use xlink:href="#DejaVuSans-Bold-20" transform="translate(1596.662109 0)"/>
     <use xlink:href="#DejaVuSans-Bold-28" transform="translate(1631.476562 0)"/>
     <use xlink:href="#DejaVuSans-Bold-56" transform="translate(1677.179688 0)"/>
     <use xlink:href="#DejaVuSans-Bold-69" transform="translate(1752.822266 0)"/>
     <use xlink:href="#DejaVuSans-Bold-73" transform="translate(1787.099609 0)"/>
     <use xlink:href="#DejaVuSans-Bold-74" transform="translate(1846.621094 0)"/>
     <use xlink:href="#DejaVuSans-Bold-61" transform="translate(1894.423828 0)"/>
     <use xlink:href="#DejaVuSans-Bold-20" transform="translate(1961.904297 0)"/>
     <use xlink:href="#DejaVuSans-Bold-64" transform="translate(1996.71875 0)"/>
     <use xlink:href="#DejaVuSans-Bold-65" transform="translate(2068.300781 0)"/>
     <use xlink:href="#DejaVuSans-Bold-20" transform="translate(2136.123047 0)"/>
     <use xlink:href="#DejaVuSans-Bold-41" transform="translate(2170.9375 0)"/>
     <use xlink:href="#DejaVuSans-Bold-6c" transform="translate(2248.330078 0)"/>
     <use xlink:href="#DejaVuSans-Bold-74" transform="translate(2282.607422 0)"/>
     <use xlink:href="#DejaVuSans-Bold-6f" transform="translate(2330.410156 0)"/>
     <use xlink:href="#DejaVuSans-Bold-20" transform="translate(2399.111328 0)"/>
     <use xlink:href="#DejaVuSans-Bold-4e" transform="translate(2433.925781 0)"/>
     <use xlink:href="#DejaVuSans-Bold-69" transform="translate(2517.617188 0)"/>
     <use xlink:href="#DejaVuSans-Bold-76" transform="translate(2551.894531 0)"/>
     <use xlink:href="#DejaVuSans-Bold-65" transform="translate(2617.080078 0)"/>
     <use xlink:href="#DejaVuSans-Bold-6c" transform="translate(2684.902344 0)"/>
     <use xlink:href="#DejaVuSans-Bold-29" transform="translate(2719.179688 0)"/>
    </g>
   </g>
   <g id="text_2">
    <!-- Clientes → Borde → Backend (Django) → Datos y Servicios → Respuesta -->
    <g style="fill: #9ca3af" transform="translate(381.375938 73.835312) scale(0.11 -0.11)">
     <defs>
      <path id="DejaVuSans-43" d="M 4122 4306 
L 4122 3641 
Q 3803 3938 3442 4084 
Q 3081 4231 2675 4231 
Q 1875 4231 1450 3742 
Q 1025 3253 1025 2328 
Q 1025 1406 1450 917 
Q 1875 428 2675 428 
Q 3081 428 3442 575 
Q 3803 722 4122 1019 
L 4122 359 
Q 3791 134 3420 21 
Q 3050 -91 2638 -91 
Q 1578 -91 968 557 
Q 359 1206 359 2328 
Q 359 3453 968 4101 
Q 1578 4750 2638 4750 
Q 3056 4750 3426 4639 
Q 3797 4528 4122 4306 
z
" transform="scale(0.015625)"/>
      <path id="DejaVuSans-6c" d="M 603 4863 
L 1178 4863 
L 1178 0 
L 603 0 
L 603 4863 
z
" transform="scale(0.015625)"/>
      <path id="DejaVuSans-69" d="M 603 3500 
L 1178 3500 
L 1178 0 
L 603 0 
L 603 3500 
z
M 603 4863 
L 1178 4863 
L 1178 4134 
L 603 4134 
L 603 4863 
z
" transform="scale(0.015625)"/>
      <path id="DejaVuSans-65" d="M 3597 1894 
L 3597 1613 
L 953 1613 
Q 991 1019 1311 708 
Q 1631 397 2203 397 
Q 2534 397 2845 478 
Q 3156 559 3463 722 
L 3463 178 
Q 3153 47 2828 -22 
Q 2503 -91 2169 -91 
Q 1331 -91 842 396 
Q 353 884 353 1716 
Q 353 2575 817 3079 
Q 1281 3584 2069 3584 
Q 2775 3584 3186 3129 
Q 3597 2675 3597 1894 
z
M 3022 2063 
Q 3016 2534 2758 2815 
Q 2500 3097 2075 3097 
Q 1594 3097 1305 2825 
Q 1016 2553 972 2059 
L 3022 2063 
z
" transform="scale(0.015625)"/>
      <path id="DejaVuSans-6e" d="M 3513 2113 
L 3513 0 
L 2938 0 
L 2938 2094 
Q 2938 2591 2744 2837 
Q 2550 3084 2163 3084 
Q 1697 3084 1428 2787 
Q 1159 2491 1159 1978 
L 1159 0 
L 581 0 
L 581 3500 
L 1159 3500 
L 1159 2956 
Q 1366 3272 1645 3428 
Q 1925 3584 2291 3584 
Q 2894 3584 3203 3211 
Q 3513 2838 3513 2113 
z
" transform="scale(0.015625)"/>
      <path id="DejaVuSans-74" d="M 1172 4494 
L 1172 3500 
L 2356 3500 
L 2356 3053 
L 1172 3053 
L 1172 1153 
Q 1172 725 1289 603 
Q 1406 481 1766 481 
L 2356 481 
L 2356 0 
L 1766 0 
Q 1100 0 847 248 
Q 594 497 594 1153 
L 594 3053 
L 172 3053 
L 172 3500 
L 594 3500 
L 594 4494 
L 1172 4494 
z
" transform="scale(0.015625)"/>
      <path id="DejaVuSans-73" d="M 2834 3397 
L 2834 2853 
Q 2591 2978 2328 3040 
Q 2066 3103 1784 3103 
Q 1356 3103 1142 2972 
Q 928 2841 928 2578 
Q 928 2378 1081 2264 
Q 1234 2150 1697 2047 
L 1894 2003 
Q 2506 1872 2764 1633 
Q 3022 1394 3022 966 
Q 3022 478 2636 193 
Q 2250 -91 1575 -91 
Q 1294 -91 989 -36 
Q 684 19 347 128 
L 347 722 
Q 666 556 975 473 
Q 1284 391 1588 391 
Q 1994 391 2212 530 
Q 2431 669 2431 922 
Q 2431 1156 2273 1281 
Q 2116 1406 1581 1522 
L 1381 1569 
Q 847 1681 609 1914 
Q 372 2147 372 2553 
Q 372 3047 722 3315 
Q 1072 3584 1716 3584 
Q 2034 3584 2315 3537 
Q 2597 3491 2834 3397 
z
" transform="scale(0.015625)"/>
      <path id="DejaVuSans-20" transform="scale(0.015625)"/>
      <path id="DejaVuSans-2192" d="M 5050 2147 
L 5050 1866 
L 3822 638 
L 3447 1013 
L 4175 1741 
L 366 1741 
L 366 2272 
L 4175 2272 
L 3447 3000 
L 3822 3375 
L 5050 2147 
z
" transform="scale(0.015625)"/>
      <path id="DejaVuSans-42" d="M 1259 2228 
L 1259 519 
L 2272 519 
Q 2781 519 3026 730 
Q 3272 941 3272 1375 
Q 3272 1813 3026 2020 
Q 2781 2228 2272 2228 
L 1259 2228 
z
M 1259 4147 
L 1259 2741 
L 2194 2741 
Q 2656 2741 2882 2914 
Q 3109 3088 3109 3444 
Q 3109 3797 2882 3972 
Q 2656 4147 2194 4147 
L 1259 4147 
z
M 628 4666 
L 2241 4666 
Q 2963 4666 3353 4366 
Q 3744 4066 3744 3513 
Q 3744 3084 3544 2831 
Q 3344 2578 2956 2516 
Q 3422 2416 3680 2098 
Q 3938 1781 3938 1306 
Q 3938 681 3513 340 
Q 3088 0 2303 0 
L 628 0 
L 628 4666 
z
" transform="scale(0.015625)"/>
      <path id="DejaVuSans-6f" d="M 1959 3097 
Q 1497 3097 1228 2736 
Q 959 2375 959 1747 
Q 959 1119 1226 758 
Q 1494 397 1959 397 
Q 2419 397 2687 759 
Q 2956 1122 2956 1747 
Q 2956 2369 2687 2733 
Q 2419 3097 1959 3097 
z
M 1959 3584 
Q 2709 3584 3137 3096 
Q 3566 2609 3566 1747 
Q 3566 888 3137 398 
Q 2709 -91 1959 -91 
Q 1206 -91 779 398 
Q 353 888 353 1747 
Q 353 2609 779 3096 
Q 1206 3584 1959 3584 
z
" transform="scale(0.015625)"/>
      <path id="DejaVuSans-72" d="M 2631 2963 
Q 2534 3019 2420 3045 
Q 2306 3072 2169 3072 
Q 1681 3072 1420 2755 
Q 1159 2438 1159 1844 
L 1159 0 
L 581 0 
L 581 3500 
L 1159 3500 
L 1159 2956 
Q 1341 3275 1631 3429 
Q 1922 3584 2338 3584 
Q 2397 3584 2469 3576 
Q 2541 3569 2628 3553 
L 2631 2963 
z
" transform="scale(0.015625)"/>
      <path id="DejaVuSans-64" d="M 2906 2969 
L 2906 4863 
L 3481 4863 
L 3481 0 
L 2906 0 
L 2906 525 
Q 2725 213 2448 61 
Q 2172 -91 1784 -91 
Q 1150 -91 751 415 
Q 353 922 353 1747 
Q 353 2572 751 3078 
Q 1150 3584 1784 3584 
Q 2172 3584 2448 3432 
Q 2725 3281 2906 2969 
z
M 947 1747 
Q 947 1113 1208 752 
Q 1469 391 1925 391 
Q 2381 391 2643 752 
Q 2906 1113 2906 1747 
Q 2906 2381 2643 2742 
Q 2381 3103 1925 3103 
Q 1469 3103 1208 2742 
Q 947 2381 947 1747 
z
" transform="scale(0.015625)"/>
      <path id="DejaVuSans-61" d="M 2194 1759 
Q 1497 1759 1228 1600 
Q 959 1441 959 1056 
Q 959 750 1161 570 
Q 1363 391 1709 391 
Q 2188 391 2477 730 
Q 2766 1069 2766 1631 
L 2766 1759 
L 2194 1759 
z
M 3341 1997 
L 3341 0 
L 2766 0 
L 2766 531 
Q 2569 213 2275 61 
Q 1981 -91 1556 -91 
Q 1019 -91 701 211 
Q 384 513 384 1019 
Q 384 1609 779 1909 
Q 1175 2209 1959 2209 
L 2766 2209 
L 2766 2266 
Q 2766 2663 2505 2880 
Q 2244 3097 1772 3097 
Q 1472 3097 1187 3025 
Q 903 2953 641 2809 
L 641 3341 
Q 956 3463 1253 3523 
Q 1550 3584 1831 3584 
Q 2591 3584 2966 3190 
Q 3341 2797 3341 1997 
z
" transform="scale(0.015625)"/>
      <path id="DejaVuSans-63" d="M 3122 3366 
L 3122 2828 
Q 2878 2963 2633 3030 
Q 2388 3097 2138 3097 
Q 1578 3097 1268 2742 
Q 959 2388 959 1747 
Q 959 1106 1268 751 
Q 1578 397 2138 397 
Q 2388 397 2633 464 
Q 2878 531 3122 666 
L 3122 134 
Q 2881 22 2623 -34 
Q 2366 -91 2075 -91 
Q 1284 -91 818 406 
Q 353 903 353 1747 
Q 353 2603 823 3093 
Q 1294 3584 2113 3584 
Q 2378 3584 2631 3529 
Q 2884 3475 3122 3366 
z
" transform="scale(0.015625)"/>
      <path id="DejaVuSans-6b" d="M 581 4863 
L 1159 4863 
L 1159 1991 
L 2875 3500 
L 3609 3500 
L 1753 1863 
L 3688 0 
L 2938 0 
L 1159 1709 
L 1159 0 
L 581 0 
L 581 4863 
z
" transform="scale(0.015625)"/>
      <path id="DejaVuSans-28" d="M 1984 4856 
Q 1566 4138 1362 3434 
Q 1159 2731 1159 2009 
Q 1159 1288 1364 580 
Q 1569 -128 1984 -844 
L 1484 -844 
Q 1016 -109 783 600 
Q 550 1309 550 2009 
Q 550 2706 781 3412 
Q 1013 4119 1484 4856 
L 1984 4856 
z
" transform="scale(0.015625)"/>
      <path id="DejaVuSans-44" d="M 1259 4147 
L 1259 519 
L 2022 519 
Q 2988 519 3436 956 
Q 3884 1394 3884 2338 
Q 3884 3275 3436 3711 
Q 2988 4147 2022 4147 
L 1259 4147 
z
M 628 4666 
L 1925 4666 
Q 3281 4666 3915 4102 
Q 4550 3538 4550 2338 
Q 4550 1131 3912 565 
Q 3275 0 1925 0 
L 628 0 
L 628 4666 
z
" transform="scale(0.015625)"/>
      <path id="DejaVuSans-6a" d="M 603 3500 
L 1178 3500 
L 1178 -63 
Q 1178 -731 923 -1031 
Q 669 -1331 103 -1331 
L -116 -1331 
L -116 -844 
L 38 -844 
Q 366 -844 484 -692 
Q 603 -541 603 -63 
L 603 3500 
z
M 603 4863 
L 1178 4863 
L 1178 4134 
L 603 4134 
L 603 4863 
z
" transform="scale(0.015625)"/>
      <path id="DejaVuSans-67" d="M 2906 1791 
Q 2906 2416 2648 2759 
Q 2391 3103 1925 3103 
Q 1463 3103 1205 2759 
Q 947 2416 947 1791 
Q 947 1169 1205 825 
Q 1463 481 1925 481 
Q 2391 481 2648 825 
Q 2906 1169 2906 1791 
z
M 3481 434 
Q 3481 -459 3084 -895 
Q 2688 -1331 1869 -1331 
Q 1566 -1331 1297 -1286 
Q 1028 -1241 775 -1147 
L 775 -588 
Q 1028 -725 1275 -790 
Q 1522 -856 1778 -856 
Q 2344 -856 2625 -561 
Q 2906 -266 2906 331 
L 2906 616 
Q 2728 306 2450 153 
Q 2172 0 1784 0 
Q 1141 0 747 490 
Q 353 981 353 1791 
Q 353 2603 747 3093 
Q 1141 3584 1784 3584 
Q 2172 3584 2450 3431 
Q 2728 3278 2906 2969 
L 2906 3500 
L 3481 3500 
L 3481 434 
z
" transform="scale(0.015625)"/>
      <path id="DejaVuSans-29" d="M 513 4856 
L 1013 4856 
Q 1481 4119 1714 3412 
Q 1947 2706 1947 2009 
Q 1947 1309 1714 600 
Q 1481 -109 1013 -844 
L 513 -844 
Q 928 -128 1133 580 
Q 1338 1288 1338 2009 
Q 1338 2731 1133 3434 
Q 928 4138 513 4856 
z
" transform="scale(0.015625)"/>
      <path id="DejaVuSans-79" d="M 2059 -325 
Q 1816 -950 1584 -1140 
Q 1353 -1331 966 -1331 
L 506 -1331 
L 506 -850 
L 844 -850 
Q 1081 -850 1212 -737 
Q 1344 -625 1503 -206 
L 1606 56 
L 191 3500 
L 800 3500 
L 1894 763 
L 2988 3500 
L 3597 3500 
L 2059 -325 
z
" transform="scale(0.015625)"/>
      <path id="DejaVuSans-53" d="M 3425 4513 
L 3425 3897 
Q 3066 4069 2747 4153 
Q 2428 4238 2131 4238 
Q 1616 4238 1336 4038 
Q 1056 3838 1056 3469 
Q 1056 3159 1242 3001 
Q 1428 2844 1947 2747 
L 2328 2669 
Q 3034 2534 3370 2195 
Q 3706 1856 3706 1288 
Q 3706 609 3251 259 
Q 2797 -91 1919 -91 
Q 1588 -91 1214 -16 
Q 841 59 441 206 
L 441 856 
Q 825 641 1194 531 
Q 1563 422 1919 422 
Q 2459 422 2753 634 
Q 3047 847 3047 1241 
Q 3047 1584 2836 1778 
Q 2625 1972 2144 2069 
L 1759 2144 
Q 1053 2284 737 2584 
Q 422 2884 422 3419 
Q 422 4038 858 4394 
Q 1294 4750 2059 4750 
Q 2388 4750 2728 4690 
Q 3069 4631 3425 4513 
z
" transform="scale(0.015625)"/>
      <path id="DejaVuSans-76" d="M 191 3500 
L 800 3500 
L 1894 563 
L 2988 3500 
L 3597 3500 
L 2284 0 
L 1503 0 
L 191 3500 
z
" transform="scale(0.015625)"/>
      <path id="DejaVuSans-52" d="M 2841 2188 
Q 3044 2119 3236 1894 
Q 3428 1669 3622 1275 
L 4263 0 
L 3584 0 
L 2988 1197 
Q 2756 1666 2539 1819 
Q 2322 1972 1947 1972 
L 1259 1972 
L 1259 0 
L 628 0 
L 628 4666 
L 2053 4666 
Q 2853 4666 3247 4331 
Q 3641 3997 3641 3322 
Q 3641 2881 3436 2590 
Q 3231 2300 2841 2188 
z
M 1259 4147 
L 1259 2491 
L 2053 2491 
Q 2509 2491 2742 2702 
Q 2975 2913 2975 3322 
Q 2975 3731 2742 3939 
Q 2509 4147 2053 4147 
L 1259 4147 
z
" transform="scale(0.015625)"/>
      <path id="DejaVuSans-70" d="M 1159 525 
L 1159 -1331 
L 581 -1331 
L 581 3500 
L 1159 3500 
L 1159 2969 
Q 1341 3281 1617 3432 
Q 1894 3584 2278 3584 
Q 2916 3584 3314 3078 
Q 3713 2572 3713 1747 
Q 3713 922 3314 415 
Q 2916 -91 2278 -91 
Q 1894 -91 1617 61 
Q 1341 213 1159 525 
z
M 3116 1747 
Q 3116 2381 2855 2742 
Q 2594 3103 2138 3103 
Q 1681 3103 1420 2742 
Q 1159 2381 1159 1747 
Q 1159 1113 1420 752 
Q 1681 391 2138 391 
Q 2594 391 2855 752 
Q 3116 1113 3116 1747 
z
" transform="scale(0.015625)"/>
      <path id="DejaVuSans-75" d="M 544 1381 
L 544 3500 
L 1119 3500 
L 1119 1403 
Q 1119 906 1312 657 
Q 1506 409 1894 409 
Q 2359 409 2629 706 
Q 2900 1003 2900 1516 
L 2900 3500 
L 3475 3500 
L 3475 0 
L 2900 0 
L 2900 538 
Q 2691 219 2414 64 
Q 2138 -91 1772 -91 
Q 1169 -91 856 284 
Q 544 659 544 1381 
z
M 1991 3584 
L 1991 3584 
z
" transform="scale(0.015625)"/>
     </defs>
     <use xlink:href="#DejaVuSans-43"/>
     <use xlink:href="#DejaVuSans-6c" transform="translate(69.824219 0)"/>
     <use xlink:href="#DejaVuSans-69" transform="translate(97.607422 0)"/>
     <use xlink:href="#DejaVuSans-65" transform="translate(125.390625 0)"/>
     <use xlink:href="#DejaVuSans-6e" transform="translate(186.914062 0)"/>
     <use xlink:href="#DejaVuSans-74" transform="translate(250.292969 0)"/>
     <use xlink:href="#DejaVuSans-65" transform="translate(289.501953 0)"/>
     <use xlink:href="#DejaVuSans-73" transform="translate(351.025391 0)"/>
     <use xlink:href="#DejaVuSans-20" transform="translate(403.125 0)"/>
     <use xlink:href="#DejaVuSans-2192" transform="translate(434.912109 0)"/>
     <use xlink:href="#DejaVuSans-20" transform="translate(518.701172 0)"/>
     <use xlink:href="#DejaVuSans-42" transform="translate(550.488281 0)"/>
     <use xlink:href="#DejaVuSans-6f" transform="translate(619.091797 0)"/>
     <use xlink:href="#DejaVuSans-72" transform="translate(680.273438 0)"/>
     <use xlink:href="#DejaVuSans-64" transform="translate(719.636719 0)"/>
     <use xlink:href="#DejaVuSans-65" transform="translate(783.113281 0)"/>
     <use xlink:href="#DejaVuSans-20" transform="translate(844.636719 0)"/>
     <use xlink:href="#DejaVuSans-2192" transform="translate(876.423828 0)"/>
     <use xlink:href="#DejaVuSans-20" transform="translate(960.212891 0)"/>
     <use xlink:href="#DejaVuSans-42" transform="translate(992 0)"/>
     <use xlink:href="#DejaVuSans-61" transform="translate(1060.603516 0)"/>
     <use xlink:href="#DejaVuSans-63" transform="translate(1121.882812 0)"/>
     <use xlink:href="#DejaVuSans-6b" transform="translate(1176.863281 0)"/>
     <use xlink:href="#DejaVuSans-65" transform="translate(1231.148438 0)"/>
     <use xlink:href="#DejaVuSans-6e" transform="translate(1292.671875 0)"/>
     <use xlink:href="#DejaVuSans-64" transform="translate(1356.050781 0)"/>
     <use xlink:href="#DejaVuSans-20" transform="translate(1419.527344 0)"/>
     <use xlink:href="#DejaVuSans-28" transform="translate(1451.314453 0)"/>
     <use xlink:href="#DejaVuSans-44" transform="translate(1490.328125 0)"/>
     <use xlink:href="#DejaVuSans-6a" transform="translate(1567.330078 0)"/>
     <use xlink:href="#DejaVuSans-61" transform="translate(1595.113281 0)"/>
     <use xlink:href="#DejaVuSans-6e" transform="translate(1656.392578 0)"/>
     <use xlink:href="#DejaVuSans-67" transform="translate(1719.771484 0)"/>
     <use xlink:href="#DejaVuSans-6f" transform="translate(1783.248047 0)"/>
     <use xlink:href="#DejaVuSans-29" transform="translate(1844.429688 0)"/>
     <use xlink:href="#DejaVuSans-20" transform="translate(1883.443359 0)"/>
     <use xlink:href="#DejaVuSans-2192" transform="translate(1915.230469 0)"/>
     <use xlink:href="#DejaVuSans-20" transform="translate(1999.019531 0)"/>
     <use xlink:href="#DejaVuSans-44" transform="translate(2030.806641 0)"/>
     <use xlink:href="#DejaVuSans-61" transform="translate(2107.808594 0)"/>
     <use xlink:href="#DejaVuSans-74" transform="translate(2169.087891 0)"/>
     <use xlink:href="#DejaVuSans-6f" transform="translate(2208.296875 0)"/>
     <use xlink:href="#DejaVuSans-73" transform="translate(2269.478516 0)"/>
     <use xlink:href="#DejaVuSans-20" transform="translate(2321.578125 0)"/>
     <use xlink:href="#DejaVuSans-79" transform="translate(2353.365234 0)"/>
     <use xlink:href="#DejaVuSans-20" transform="translate(2412.544922 0)"/>
     <use xlink:href="#DejaVuSans-53" transform="translate(2444.332031 0)"/>
     <use xlink:href="#DejaVuSans-65" transform="translate(2507.808594 0)"/>
     <use xlink:href="#DejaVuSans-72" transform="translate(2569.332031 0)"/>
     <use xlink:href="#DejaVuSans-76" transform="translate(2610.445312 0)"/>
     <use xlink:href="#DejaVuSans-69" transform="translate(2669.625 0)"/>
     <use xlink:href="#DejaVuSans-63" transform="translate(2697.408203 0)"/>
     <use xlink:href="#DejaVuSans-69" transform="translate(2752.388672 0)"/>
     <use xlink:href="#DejaVuSans-6f" transform="translate(2780.171875 0)"/>
     <use xlink:href="#DejaVuSans-73" transform="translate(2841.353516 0)"/>
     <use xlink:href="#DejaVuSans-20" transform="translate(2893.453125 0)"/>
     <use xlink:href="#DejaVuSans-2192" transform="translate(2925.240234 0)"/>
     <use xlink:href="#DejaVuSans-20" transform="translate(3009.029297 0)"/>
     <use xlink:href="#DejaVuSans-52" transform="translate(3040.816406 0)"/>
     <use xlink:href="#DejaVuSans-65" transform="translate(3105.798828 0)"/>
     <use xlink:href="#DejaVuSans-73" transform="translate(3167.322266 0)"/>
     <use xlink:href="#DejaVuSans-70" transform="translate(3219.421875 0)"/>
     <use xlink:href="#DejaVuSans-75" transform="translate(3282.898438 0)"/>
     <use xlink:href="#DejaVuSans-65" transform="translate(3346.277344 0)"/>
     <use xlink:href="#DejaVuSans-73" transform="translate(3407.800781 0)"/>
     <use xlink:href="#DejaVuSans-74" transform="translate(3459.900391 0)"/>
     <use xlink:href="#DejaVuSans-61" transform="translate(3499.109375 0)"/>
    </g>
   </g>
   <g id="text_3">
    <!-- Web (React/Vite) -->
    <g style="fill: #ffffff" transform="translate(160.600547 134.785313) scale(0.11 -0.11)">
     <defs>
      <path id="DejaVuSans-57" d="M 213 4666 
L 850 4666 
L 1831 722 
L 2809 4666 
L 3519 4666 
L 4500 722 
L 5478 4666 
L 6119 4666 
L 4947 0 
L 4153 0 
L 3169 4050 
L 2175 0 
L 1381 0 
L 213 4666 
z
" transform="scale(0.015625)"/>
      <path id="DejaVuSans-62" d="M 3116 1747 
Q 3116 2381 2855 2742 
Q 2594 3103 2138 3103 
Q 1681 3103 1420 2742 
Q 1159 2381 1159 1747 
Q 1159 1113 1420 752 
Q 1681 391 2138 391 
Q 2594 391 2855 752 
Q 3116 1113 3116 1747 
z
M 1159 2969 
Q 1341 3281 1617 3432 
Q 1894 3584 2278 3584 
Q 2916 3584 3314 3078 
Q 3713 2572 3713 1747 
Q 3713 922 3314 415 
Q 2916 -91 2278 -91 
Q 1894 -91 1617 61 
Q 1341 213 1159 525 
L 1159 0 
L 581 0 
L 581 4863 
L 1159 4863 
L 1159 2969 
z
" transform="scale(0.015625)"/>
      <path id="DejaVuSans-2f" d="M 1625 4666 
L 2156 4666 
L 531 -594 
L 0 -594 
L 1625 4666 
z
" transform="scale(0.015625)"/>
      <path id="DejaVuSans-56" d="M 1831 0 
L 50 4666 
L 709 4666 
L 2188 738 
L 3669 4666 
L 4325 4666 
L 2547 0 
L 1831 0 
z
" transform="scale(0.015625)"/>
     </defs>
     <use xlink:href="#DejaVuSans-57"/>
     <use xlink:href="#DejaVuSans-65" transform="translate(93.001953 0)"/>
     <use xlink:href="#DejaVuSans-62" transform="translate(154.525391 0)"/>
     <use xlink:href="#DejaVuSans-20" transform="translate(218.001953 0)"/>
     <use xlink:href="#DejaVuSans-28" transform="translate(249.789062 0)"/>
     <use xlink:href="#DejaVuSans-52" transform="translate(288.802734 0)"/>
     <use xlink:href="#DejaVuSans-65" transform="translate(353.785156 0)"/>
     <use xlink:href="#DejaVuSans-61" transform="translate(415.308594 0)"/>
     <use xlink:href="#DejaVuSans-63" transform="translate(476.587891 0)"/>
     <use xlink:href="#DejaVuSans-74" transform="translate(531.568359 0)"/>
     <use xlink:href="#DejaVuSans-2f" transform="translate(570.777344 0)"/>
     <use xlink:href="#DejaVuSans-56" transform="translate(604.46875 0)"/>
     <use xlink:href="#DejaVuSans-69" transform="translate(670.626953 0)"/>
     <use xlink:href="#DejaVuSans-74" transform="translate(698.410156 0)"/>
     <use xlink:href="#DejaVuSans-65" transform="translate(737.619141 0)"/>
     <use xlink:href="#DejaVuSans-29" transform="translate(799.142578 0)"/>
    </g>
   </g>
   <g id="text_4">
    <!-- App Móvil (Capacitor/Android) -->
    <g style="fill: #ffffff" transform="translate(124.222344 203.905313) scale(0.11 -0.11)">
     <defs>
      <path id="DejaVuSans-41" d="M 2188 4044 
L 1331 1722 
L 3047 1722 
L 2188 4044 
z
M 1831 4666 
L 2547 4666 
L 4325 0 
L 3669 0 
L 3244 1197 
L 1141 1197 
L 716 0 
L 50 0 
L 1831 4666 
z
" transform="scale(0.015625)"/>
      <path id="DejaVuSans-4d" d="M 628 4666 
L 1569 4666 
L 2759 1491 
L 3956 4666 
L 4897 4666 
L 4897 0 
L 4281 0 
L 4281 4097 
L 3078 897 
L 2444 897 
L 1241 4097 
L 1241 0 
L 628 0 
L 628 4666 
z
" transform="scale(0.015625)"/>
      <path id="DejaVuSans-f3" d="M 1959 3097 
Q 1497 3097 1228 2736 
Q 959 2375 959 1747 
Q 959 1119 1226 758 
Q 1494 397 1959 397 
Q 2419 397 2687 759 
Q 2956 1122 2956 1747 
Q 2956 2369 2687 2733 
Q 2419 3097 1959 3097 
z
M 1959 3584 
Q 2709 3584 3137 3096 
Q 3566 2609 3566 1747 
Q 3566 888 3137 398 
Q 2709 -91 1959 -91 
Q 1206 -91 779 398 
Q 353 888 353 1747 
Q 353 2609 779 3096 
Q 1206 3584 1959 3584 
z
M 2394 5119 
L 3016 5119 
L 1998 3944 
L 1519 3944 
L 2394 5119 
z
" transform="scale(0.015625)"/>
     </defs>
     <use xlink:href="#DejaVuSans-41"/>
     <use xlink:href="#DejaVuSans-70" transform="translate(68.408203 0)"/>
     <use xlink:href="#DejaVuSans-70" transform="translate(131.884766 0)"/>
     <use xlink:href="#DejaVuSans-20" transform="translate(195.361328 0)"/>
     <use xlink:href="#DejaVuSans-4d" transform="translate(227.148438 0)"/>
     <use xlink:href="#DejaVuSans-f3" transform="translate(313.427734 0)"/>
     <use xlink:href="#DejaVuSans-76" transform="translate(374.609375 0)"/>
     <use xlink:href="#DejaVuSans-69" transform="translate(433.789062 0)"/>
     <use xlink:href="#DejaVuSans-6c" transform="translate(461.572266 0)"/>
     <use xlink:href="#DejaVuSans-20" transform="translate(489.355469 0)"/>
     <use xlink:href="#DejaVuSans-28" transform="translate(521.142578 0)"/>
     <use xlink:href="#DejaVuSans-43" transform="translate(560.15625 0)"/>
     <use xlink:href="#DejaVuSans-61" transform="translate(629.980469 0)"/>
     <use xlink:href="#DejaVuSans-70" transform="translate(691.259766 0)"/>
     <use xlink:href="#DejaVuSans-61" transform="translate(754.736328 0)"/>
     <use xlink:href="#DejaVuSans-63" transform="translate(816.015625 0)"/>
     <use xlink:href="#DejaVuSans-69" transform="translate(870.996094 0)"/>
     <use xlink:href="#DejaVuSans-74" transform="translate(898.779297 0)"/>
     <use xlink:href="#DejaVuSans-6f" transform="translate(937.988281 0)"/>
     <use xlink:href="#DejaVuSans-72" transform="translate(999.169922 0)"/>
     <use xlink:href="#DejaVuSans-2f" transform="translate(1040.283203 0)"/>
     <use xlink:href="#DejaVuSans-41" transform="translate(1073.974609 0)"/>
     <use xlink:href="#DejaVuSans-6e" transform="translate(1142.382812 0)"/>
     <use xlink:href="#DejaVuSans-64" transform="translate(1205.761719 0)"/>
     <use xlink:href="#DejaVuSans-72" transform="translate(1269.238281 0)"/>
     <use xlink:href="#DejaVuSans-6f" transform="translate(1308.101562 0)"/>
     <use xlink:href="#DejaVuSans-69" transform="translate(1369.283203 0)"/>
     <use xlink:href="#DejaVuSans-64" transform="translate(1397.066406 0)"/>
     <use xlink:href="#DejaVuSans-29" transform="translate(1460.542969 0)"/>
    </g>
   </g>
   <g id="text_5">
    <!-- CDN / Hosting estático -->
    <g style="fill: #ffffff" transform="translate(475.135391 103.205312) scale(0.11 -0.11)">
     <defs>
      <path id="DejaVuSans-4e" d="M 628 4666 
L 1478 4666 
L 3547 763 
L 3547 4666 
L 4159 4666 
L 4159 0 
L 3309 0 
L 1241 3903 
L 1241 0 
L 628 0 
L 628 4666 
z
" transform="scale(0.015625)"/>
      <path id="DejaVuSans-48" d="M 628 4666 
L 1259 4666 
L 1259 2753 
L 3553 2753 
L 3553 4666 
L 4184 4666 
L 4184 0 
L 3553 0 
L 3553 2222 
L 1259 2222 
L 1259 0 
L 628 0 
L 628 4666 
z
" transform="scale(0.015625)"/>
      <path id="DejaVuSans-e1" d="M 2194 1759 
Q 1497 1759 1228 1600 
Q 959 1441 959 1056 
Q 959 750 1161 570 
Q 1363 391 1709 391 
Q 2188 391 2477 730 
Q 2766 1069 2766 1631 
L 2766 1759 
L 2194 1759 
z
M 3341 1997 
L 3341 0 
L 2766 0 
L 2766 531 
Q 2569 213 2275 61 
Q 1981 -91 1556 -91 
Q 1019 -91 701 211 
Q 384 513 384 1019 
Q 384 1609 779 1909 
Q 1175 2209 1959 2209 
L 2766 2209 
L 2766 2266 
Q 2766 2663 2505 2880 
Q 2244 3097 1772 3097 
Q 1472 3097 1187 3025 
Q 903 2953 641 2809 
L 641 3341 
Q 956 3463 1253 3523 
Q 1550 3584 1831 3584 
Q 2591 3584 2966 3190 
Q 3341 2797 3341 1997 
z
M 2290 5119 
L 2912 5119 
L 1894 3944 
L 1415 3944 
L 2290 5119 
z
" transform="scale(0.015625)"/>
     </defs>
     <use xlink:href="#DejaVuSans-43"/>
     <use xlink:href="#DejaVuSans-44" transform="translate(69.824219 0)"/>
     <use xlink:href="#DejaVuSans-4e" transform="translate(146.826172 0)"/>
     <use xlink:href="#DejaVuSans-20" transform="translate(221.630859 0)"/>
     <use xlink:href="#DejaVuSans-2f" transform="translate(253.417969 0)"/>
     <use xlink:href="#DejaVuSans-20" transform="translate(287.109375 0)"/>
     <use xlink:href="#DejaVuSans-48" transform="translate(318.896484 0)"/>
     <use xlink:href="#DejaVuSans-6f" transform="translate(394.091797 0)"/>
     <use xlink:href="#DejaVuSans-73" transform="translate(455.273438 0)"/>
     <use xlink:href="#DejaVuSans-74" transform="translate(507.373047 0)"/>
     <use xlink:href="#DejaVuSans-69" transform="translate(546.582031 0)"/>
     <use xlink:href="#DejaVuSans-6e" transform="translate(574.365234 0)"/>
     <use xlink:href="#DejaVuSans-67" transform="translate(637.744141 0)"/>
     <use xlink:href="#DejaVuSans-20" transform="translate(701.220703 0)"/>
     <use xlink:href="#DejaVuSans-65" transform="translate(733.007812 0)"/>
     <use xlink:href="#DejaVuSans-73" transform="translate(794.53125 0)"/>
     <use xlink:href="#DejaVuSans-74" transform="translate(846.630859 0)"/>
     <use xlink:href="#DejaVuSans-e1" transform="translate(885.839844 0)"/>
     <use xlink:href="#DejaVuSans-74" transform="translate(947.119141 0)"/>
     <use xlink:href="#DejaVuSans-69" transform="translate(986.328125 0)"/>
     <use xlink:href="#DejaVuSans-63" transform="translate(1014.111328 0)"/>
     <use xlink:href="#DejaVuSans-6f" transform="translate(1069.091797 0)"/>
    </g>
   </g>
   <g id="text_6">
    <!-- Nginx Reverse Proxy -->
    <g style="fill: #ffffff" transform="translate(480.759141 171.885312) scale(0.11 -0.11)">
     <defs>
      <path id="DejaVuSans-78" d="M 3513 3500 
L 2247 1797 
L 3578 0 
L 2900 0 
L 1881 1375 
L 863 0 
L 184 0 
L 1544 1831 
L 300 3500 
L 978 3500 
L 1906 2253 
L 2834 3500 
L 3513 3500 
z
" transform="scale(0.015625)"/>
      <path id="DejaVuSans-50" d="M 1259 4147 
L 1259 2394 
L 2053 2394 
Q 2494 2394 2734 2622 
Q 2975 2850 2975 3272 
Q 2975 3691 2734 3919 
Q 2494 4147 2053 4147 
L 1259 4147 
z
M 628 4666 
L 2053 4666 
Q 2838 4666 3239 4311 
Q 3641 3956 3641 3272 
Q 3641 2581 3239 2228 
Q 2838 1875 2053 1875 
L 1259 1875 
L 1259 0 
L 628 0 
L 628 4666 
z
" transform="scale(0.015625)"/>
     </defs>
     <use xlink:href="#DejaVuSans-4e"/>
     <use xlink:href="#DejaVuSans-67" transform="translate(74.804688 0)"/>
     <use xlink:href="#DejaVuSans-69" transform="translate(138.28125 0)"/>
     <use xlink:href="#DejaVuSans-6e" transform="translate(166.064453 0)"/>
     <use xlink:href="#DejaVuSans-78" transform="translate(229.443359 0)"/>
     <use xlink:href="#DejaVuSans-20" transform="translate(288.623047 0)"/>
     <use xlink:href="#DejaVuSans-52" transform="translate(320.410156 0)"/>
     <use xlink:href="#DejaVuSans-65" transform="translate(385.392578 0)"/>
     <use xlink:href="#DejaVuSans-76" transform="translate(446.916016 0)"/>
     <use xlink:href="#DejaVuSans-65" transform="translate(506.095703 0)"/>
     <use xlink:href="#DejaVuSans-72" transform="translate(567.619141 0)"/>
     <use xlink:href="#DejaVuSans-73" transform="translate(608.732422 0)"/>
     <use xlink:href="#DejaVuSans-65" transform="translate(660.832031 0)"/>
     <use xlink:href="#DejaVuSans-20" transform="translate(722.355469 0)"/>
     <use xlink:href="#DejaVuSans-50" transform="translate(754.142578 0)"/>
     <use xlink:href="#DejaVuSans-72" transform="translate(812.695312 0)"/>
     <use xlink:href="#DejaVuSans-6f" transform="translate(851.558594 0)"/>
     <use xlink:href="#DejaVuSans-78" transform="translate(909.615234 0)"/>
     <use xlink:href="#DejaVuSans-79" transform="translate(968.794922 0)"/>
    </g>
   </g>
   <g id="text_7">
    <!-- Django REST API -->
    <g style="fill: #ffffff" transform="translate(833.478984 102.985312) scale(0.11 -0.11)">
     <defs>
      <path id="DejaVuSans-45" d="M 628 4666 
L 3578 4666 
L 3578 4134 
L 1259 4134 
L 1259 2753 
L 3481 2753 
L 3481 2222 
L 1259 2222 
L 1259 531 
L 3634 531 
L 3634 0 
L 628 0 
L 628 4666 
z
" transform="scale(0.015625)"/>
      <path id="DejaVuSans-54" d="M -19 4666 
L 3928 4666 
L 3928 4134 
L 2272 4134 
L 2272 0 
L 1638 0 
L 1638 4134 
L -19 4134 
L -19 4666 
z
" transform="scale(0.015625)"/>
      <path id="DejaVuSans-49" d="M 628 4666 
L 1259 4666 
L 1259 0 
L 628 0 
L 628 4666 
z
" transform="scale(0.015625)"/>
     </defs>
     <use xlink:href="#DejaVuSans-44"/>
     <use xlink:href="#DejaVuSans-6a" transform="translate(77.001953 0)"/>
     <use xlink:href="#DejaVuSans-61" transform="translate(104.785156 0)"/>
     <use xlink:href="#DejaVuSans-6e" transform="translate(166.064453 0)"/>
     <use xlink:href="#DejaVuSans-67" transform="translate(229.443359 0)"/>
     <use xlink:href="#DejaVuSans-6f" transform="translate(292.919922 0)"/>
     <use xlink:href="#DejaVuSans-20" transform="translate(354.101562 0)"/>
     <use xlink:href="#DejaVuSans-52" transform="translate(385.888672 0)"/>
     <use xlink:href="#DejaVuSans-45" transform="translate(455.371094 0)"/>
     <use xlink:href="#DejaVuSans-53" transform="translate(518.554688 0)"/>
     <use xlink:href="#DejaVuSans-54" transform="translate(582.03125 0)"/>
     <use xlink:href="#DejaVuSans-20" transform="translate(643.115234 0)"/>
     <use xlink:href="#DejaVuSans-41" transform="translate(674.902344 0)"/>
     <use xlink:href="#DejaVuSans-50" transform="translate(743.310547 0)"/>
     <use xlink:href="#DejaVuSans-49" transform="translate(803.613281 0)"/>
    </g>
   </g>
   <g id="text_8">
    <!-- Auth / JWT -->
    <g style="fill: #ffffff" transform="translate(765.141563 171.885312) scale(0.11 -0.11)">
     <defs>
      <path id="DejaVuSans-68" d="M 3513 2113 
L 3513 0 
L 2938 0 
L 2938 2094 
Q 2938 2591 2744 2837 
Q 2550 3084 2163 3084 
Q 1697 3084 1428 2787 
Q 1159 2491 1159 1978 
L 1159 0 
L 581 0 
L 581 4863 
L 1159 4863 
L 1159 2956 
Q 1366 3272 1645 3428 
Q 1925 3584 2291 3584 
Q 2894 3584 3203 3211 
Q 3513 2838 3513 2113 
z
" transform="scale(0.015625)"/>
      <path id="DejaVuSans-4a" d="M 628 4666 
L 1259 4666 
L 1259 325 
Q 1259 -519 939 -900 
Q 619 -1281 -91 -1281 
L -331 -1281 
L -331 -750 
L -134 -750 
Q 284 -750 456 -515 
Q 628 -281 628 325 
L 628 4666 
z
" transform="scale(0.015625)"/>
     </defs>
     <use xlink:href="#DejaVuSans-41"/>
     <use xlink:href="#DejaVuSans-75" transform="translate(68.408203 0)"/>
     <use xlink:href="#DejaVuSans-74" transform="translate(131.787109 0)"/>
     <use xlink:href="#DejaVuSans-68" transform="translate(170.996094 0)"/>
     <use xlink:href="#DejaVuSans-20" transform="translate(234.375 0)"/>
     <use xlink:href="#DejaVuSans-2f" transform="translate(266.162109 0)"/>
     <use xlink:href="#DejaVuSans-20" transform="translate(299.853516 0)"/>
     <use xlink:href="#DejaVuSans-4a" transform="translate(331.640625 0)"/>
     <use xlink:href="#DejaVuSans-57" transform="translate(361.132812 0)"/>
     <use xlink:href="#DejaVuSans-54" transform="translate(460.009766 0)"/>
    </g>
   </g>
   <g id="text_9">
    <!-- Propiedades -->
    <g style="fill: #ffffff" transform="translate(931.070391 171.885312) scale(0.11 -0.11)">
     <use xlink:href="#DejaVuSans-50"/>
     <use xlink:href="#DejaVuSans-72" transform="translate(58.552734 0)"/>
     <use xlink:href="#DejaVuSans-6f" transform="translate(97.416016 0)"/>
     <use xlink:href="#DejaVuSans-70" transform="translate(158.597656 0)"/>
     <use xlink:href="#DejaVuSans-69" transform="translate(222.074219 0)"/>
     <use xlink:href="#DejaVuSans-65" transform="translate(249.857422 0)"/>
     <use xlink:href="#DejaVuSans-64" transform="translate(311.380859 0)"/>
     <use xlink:href="#DejaVuSans-61" transform="translate(374.857422 0)"/>
     <use xlink:href="#DejaVuSans-64" transform="translate(436.136719 0)"/>
     <use xlink:href="#DejaVuSans-65" transform="translate(499.613281 0)"/>
     <use xlink:href="#DejaVuSans-73" transform="translate(561.136719 0)"/>
    </g>
   </g>
   <g id="text_10">
    <!-- Pagos -->
    <g style="fill: #ffffff" transform="translate(777.638594 240.785312) scale(0.11 -0.11)">
     <use xlink:href="#DejaVuSans-50"/>
     <use xlink:href="#DejaVuSans-61" transform="translate(55.802734 0)"/>
     <use xlink:href="#DejaVuSans-67" transform="translate(117.082031 0)"/>
     <use xlink:href="#DejaVuSans-6f" transform="translate(180.558594 0)"/>
     <use xlink:href="#DejaVuSans-73" transform="translate(241.740234 0)"/>
    </g>
   </g>
   <g id="text_11">
    <!-- AI (Sam) -->
    <g style="fill: #ffffff" transform="translate(941.156016 240.785312) scale(0.11 -0.11)">
     <defs>
      <path id="DejaVuSans-6d" d="M 3328 2828 
Q 3544 3216 3844 3400 
Q 4144 3584 4550 3584 
Q 5097 3584 5394 3201 
Q 5691 2819 5691 2113 
L 5691 0 
L 5113 0 
L 5113 2094 
Q 5113 2597 4934 2840 
Q 4756 3084 4391 3084 
Q 3944 3084 3684 2787 
Q 3425 2491 3425 1978 
L 3425 0 
L 2847 0 
L 2847 2094 
Q 2847 2600 2669 2842 
Q 2491 3084 2119 3084 
Q 1678 3084 1418 2786 
Q 1159 2488 1159 1978 
L 1159 0 
L 581 0 
L 581 3500 
L 1159 3500 
L 1159 2956 
Q 1356 3278 1631 3431 
Q 1906 3584 2284 3584 
Q 2666 3584 2933 3390 
Q 3200 3197 3328 2828 
z
" transform="scale(0.015625)"/>
     </defs>
     <use xlink:href="#DejaVuSans-41"/>
     <use xlink:href="#DejaVuSans-49" transform="translate(68.408203 0)"/>
     <use xlink:href="#DejaVuSans-20" transform="translate(97.900391 0)"/>
     <use xlink:href="#DejaVuSans-28" transform="translate(129.6875 0)"/>
     <use xlink:href="#DejaVuSans-53" transform="translate(168.701172 0)"/>
     <use xlink:href="#DejaVuSans-61" transform="translate(232.177734 0)"/>
     <use xlink:href="#DejaVuSans-6d" transform="translate(293.457031 0)"/>
     <use xlink:href="#DejaVuSans-29" transform="translate(390.869141 0)"/>
    </g>
   </g>
   <g id="text_12">
    <!-- DB (PostgreSQL/SQLite) -->
    <g style="fill: #ffffff" transform="translate(728.5425 325.585312) scale(0.11 -0.11)">
     <defs>
      <path id="DejaVuSans-51" d="M 2522 4238 
Q 1834 4238 1429 3725 
Q 1025 3213 1025 2328 
Q 1025 1447 1429 934 
Q 1834 422 2522 422 
Q 3209 422 3611 934 
Q 4013 1447 4013 2328 
Q 4013 3213 3611 3725 
Q 3209 4238 2522 4238 
z
M 3406 84 
L 4238 -825 
L 3475 -825 
L 2784 -78 
Q 2681 -84 2626 -87 
Q 2572 -91 2522 -91 
Q 1538 -91 948 567 
Q 359 1225 359 2328 
Q 359 3434 948 4092 
Q 1538 4750 2522 4750 
Q 3503 4750 4090 4092 
Q 4678 3434 4678 2328 
Q 4678 1516 4351 937 
Q 4025 359 3406 84 
z
" transform="scale(0.015625)"/>
      <path id="DejaVuSans-4c" d="M 628 4666 
L 1259 4666 
L 1259 531 
L 3531 531 
L 3531 0 
L 628 0 
L 628 4666 
z
" transform="scale(0.015625)"/>
     </defs>
     <use xlink:href="#DejaVuSans-44"/>
     <use xlink:href="#DejaVuSans-42" transform="translate(77.001953 0)"/>
     <use xlink:href="#DejaVuSans-20" transform="translate(145.605469 0)"/>
     <use xlink:href="#DejaVuSans-28" transform="translate(177.392578 0)"/>
     <use xlink:href="#DejaVuSans-50" transform="translate(216.40625 0)"/>
     <use xlink:href="#DejaVuSans-6f" transform="translate(273.083984 0)"/>
     <use xlink:href="#DejaVuSans-73" transform="translate(334.265625 0)"/>
     <use xlink:href="#DejaVuSans-74" transform="translate(386.365234 0)"/>
     <use xlink:href="#DejaVuSans-67" transform="translate(425.574219 0)"/>
     <use xlink:href="#DejaVuSans-72" transform="translate(489.050781 0)"/>
     <use xlink:href="#DejaVuSans-65" transform="translate(527.914062 0)"/>
     <use xlink:href="#DejaVuSans-53" transform="translate(589.4375 0)"/>
     <use xlink:href="#DejaVuSans-51" transform="translate(652.914062 0)"/>
     <use xlink:href="#DejaVuSans-4c" transform="translate(731.625 0)"/>
     <use xlink:href="#DejaVuSans-2f" transform="translate(787.337891 0)"/>
     <use xlink:href="#DejaVuSans-53" transform="translate(821.029297 0)"/>
     <use xlink:href="#DejaVuSans-51" transform="translate(884.505859 0)"/>
     <use xlink:href="#DejaVuSans-4c" transform="translate(963.216797 0)"/>
     <use xlink:href="#DejaVuSans-69" transform="translate(1018.929688 0)"/>
     <use xlink:href="#DejaVuSans-74" transform="translate(1046.712891 0)"/>
     <use xlink:href="#DejaVuSans-65" transform="translate(1085.921875 0)"/>
     <use xlink:href="#DejaVuSans-29" transform="translate(1147.445312 0)"/>
    </g>
   </g>
   <g id="text_13">
    <!-- Media/Static (S3/Local) -->
    <g style="fill: #ffffff" transform="translate(901.561172 325.585312) scale(0.11 -0.11)">
     <defs>
      <path id="DejaVuSans-33" d="M 2597 2516 
Q 3050 2419 3304 2112 
Q 3559 1806 3559 1356 
Q 3559 666 3084 287 
Q 2609 -91 1734 -91 
Q 1441 -91 1130 -33 
Q 819 25 488 141 
L 488 750 
Q 750 597 1062 519 
Q 1375 441 1716 441 
Q 2309 441 2620 675 
Q 2931 909 2931 1356 
Q 2931 1769 2642 2001 
Q 2353 2234 1838 2234 
L 1294 2234 
L 1294 2753 
L 1863 2753 
Q 2328 2753 2575 2939 
Q 2822 3125 2822 3475 
Q 2822 3834 2567 4026 
Q 2313 4219 1838 4219 
Q 1578 4219 1281 4162 
Q 984 4106 628 3988 
L 628 4550 
Q 988 4650 1302 4700 
Q 1616 4750 1894 4750 
Q 2613 4750 3031 4423 
Q 3450 4097 3450 3541 
Q 3450 3153 3228 2886 
Q 3006 2619 2597 2516 
z
" transform="scale(0.015625)"/>
     </defs>
     <use xlink:href="#DejaVuSans-4d"/>
     <use xlink:href="#DejaVuSans-65" transform="translate(86.279297 0)"/>
     <use xlink:href="#DejaVuSans-64" transform="translate(147.802734 0)"/>
     <use xlink:href="#DejaVuSans-69" transform="translate(211.279297 0)"/>
     <use xlink:href="#DejaVuSans-61" transform="translate(239.0625 0)"/>
     <use xlink:href="#DejaVuSans-2f" transform="translate(300.341797 0)"/>
     <use xlink:href="#DejaVuSans-53" transform="translate(334.033203 0)"/>
     <use xlink:href="#DejaVuSans-74" transform="translate(397.509766 0)"/>
     <use xlink:href="#DejaVuSans-61" transform="translate(436.71875 0)"/>
     <use xlink:href="#DejaVuSans-74" transform="translate(497.998047 0)"/>
     <use xlink:href="#DejaVuSans-69" transform="translate(537.207031 0)"/>
     <use xlink:href="#DejaVuSans-63" transform="translate(564.990234 0)"/>
     <use xlink:href="#DejaVuSans-20" transform="translate(619.970703 0)"/>
     <use xlink:href="#DejaVuSans-28" transform="translate(651.757812 0)"/>
     <use xlink:href="#DejaVuSans-53" transform="translate(690.771484 0)"/>
     <use xlink:href="#DejaVuSans-33" transform="translate(754.248047 0)"/>
     <use xlink:href="#DejaVuSans-2f" transform="translate(817.871094 0)"/>
     <use xlink:href="#DejaVuSans-4c" transform="translate(851.5625 0)"/>
     <use xlink:href="#DejaVuSans-6f" transform="translate(905.525391 0)"/>
     <use xlink:href="#DejaVuSans-63" transform="translate(966.707031 0)"/>
     <use xlink:href="#DejaVuSans-61" transform="translate(1021.6875 0)"/>
     <use xlink:href="#DejaVuSans-6c" transform="translate(1082.966797 0)"/>
     <use xlink:href="#DejaVuSans-29" transform="translate(1110.75 0)"/>
    </g>
   </g>
   <g id="text_14">
    <!-- Stripe -->
    <g style="fill: #ffffff" transform="translate(777.487344 394.485312) scale(0.11 -0.11)">
     <use xlink:href="#DejaVuSans-53"/>
     <use xlink:href="#DejaVuSans-74" transform="translate(63.476562 0)"/>
     <use xlink:href="#DejaVuSans-72" transform="translate(102.685547 0)"/>
     <use xlink:href="#DejaVuSans-69" transform="translate(143.798828 0)"/>
     <use xlink:href="#DejaVuSans-70" transform="translate(171.582031 0)"/>
     <use xlink:href="#DejaVuSans-65" transform="translate(235.058594 0)"/>
    </g>
   </g>
   <g id="text_15">
    <!-- Mapbox -->
    <g style="fill: #ffffff" transform="translate(943.252031 394.485312) scale(0.11 -0.11)">
     <use xlink:href="#DejaVuSans-4d"/>
     <use xlink:href="#DejaVuSans-61" transform="translate(86.279297 0)"/>
     <use xlink:href="#DejaVuSans-70" transform="translate(147.558594 0)"/>
     <use xlink:href="#DejaVuSans-62" transform="translate(211.035156 0)"/>
     <use xlink:href="#DejaVuSans-6f" transform="translate(274.511719 0)"/>
     <use xlink:href="#DejaVuSans-78" transform="translate(332.568359 0)"/>
    </g>
   </g>
   <g id="text_16">
    <!-- Gemini API -->
    <g style="fill: #ffffff" transform="translate(849.306094 463.385312) scale(0.11 -0.11)">
     <defs>
      <path id="DejaVuSans-47" d="M 3809 666 
L 3809 1919 
L 2778 1919 
L 2778 2438 
L 4434 2438 
L 4434 434 
Q 4069 175 3628 42 
Q 3188 -91 2688 -91 
Q 1594 -91 976 548 
Q 359 1188 359 2328 
Q 359 3472 976 4111 
Q 1594 4750 2688 4750 
Q 3144 4750 3555 4637 
Q 3966 4525 4313 4306 
L 4313 3634 
Q 3963 3931 3569 4081 
Q 3175 4231 2741 4231 
Q 1884 4231 1454 3753 
Q 1025 3275 1025 2328 
Q 1025 1384 1454 906 
Q 1884 428 2741 428 
Q 3075 428 3337 486 
Q 3600 544 3809 666 
z
" transform="scale(0.015625)"/>
     </defs>
     <use xlink:href="#DejaVuSans-47"/>
     <use xlink:href="#DejaVuSans-65" transform="translate(77.490234 0)"/>
     <use xlink:href="#DejaVuSans-6d" transform="translate(139.013672 0)"/>
     <use xlink:href="#DejaVuSans-69" transform="translate(236.425781 0)"/>
     <use xlink:href="#DejaVuSans-6e" transform="translate(264.208984 0)"/>
     <use xlink:href="#DejaVuSans-69" transform="translate(327.587891 0)"/>
     <use xlink:href="#DejaVuSans-20" transform="translate(355.371094 0)"/>
     <use xlink:href="#DejaVuSans-41" transform="translate(387.158203 0)"/>
     <use xlink:href="#DejaVuSans-50" transform="translate(455.566406 0)"/>
     <use xlink:href="#DejaVuSans-49" transform="translate(515.869141 0)"/>
    </g>
   </g>
   <g id="text_17">
    <!-- - Web y App consumen la misma API. -->
    <g style="fill: #9ca3af" transform="translate(121.2 579.6) scale(0.1 -0.1)">
     <defs>
      <path id="DejaVuSans-2d" d="M 313 2009 
L 1997 2009 
L 1997 1497 
L 313 1497 
L 313 2009 
z
" transform="scale(0.015625)"/>
      <path id="DejaVuSans-2e" d="M 684 794 
L 1344 794 
L 1344 0 
L 684 0 
L 684 794 
z
" transform="scale(0.015625)"/>
     </defs>
     <use xlink:href="#DejaVuSans-2d"/>
     <use xlink:href="#DejaVuSans-20" transform="translate(36.083984 0)"/>
     <use xlink:href="#DejaVuSans-57" transform="translate(67.871094 0)"/>
     <use xlink:href="#DejaVuSans-65" transform="translate(160.873047 0)"/>
     <use xlink:href="#DejaVuSans-62" transform="translate(222.396484 0)"/>
     <use xlink:href="#DejaVuSans-20" transform="translate(285.873047 0)"/>
     <use xlink:href="#DejaVuSans-79" transform="translate(317.660156 0)"/>
     <use xlink:href="#DejaVuSans-20" transform="translate(376.839844 0)"/>
     <use xlink:href="#DejaVuSans-41" transform="translate(408.626953 0)"/>
     <use xlink:href="#DejaVuSans-70" transform="translate(477.035156 0)"/>
     <use xlink:href="#DejaVuSans-70" transform="translate(540.511719 0)"/>
     <use xlink:href="#DejaVuSans-20" transform="translate(603.988281 0)"/>
     <use xlink:href="#DejaVuSans-63" transform="translate(635.775391 0)"/>
     <use xlink:href="#DejaVuSans-6f" transform="translate(690.755859 0)"/>
     <use xlink:href="#DejaVuSans-6e" transform="translate(751.9375 0)"/>
     <use xlink:href="#DejaVuSans-73" transform="translate(815.316406 0)"/>
     <use xlink:href="#DejaVuSans-75" transform="translate(867.416016 0)"/>
     <use xlink:href="#DejaVuSans-6d" transform="translate(930.794922 0)"/>
     <use xlink:href="#DejaVuSans-65" transform="translate(1028.207031 0)"/>
     <use xlink:href="#DejaVuSans-6e" transform="translate(1089.730469 0)"/>
     <use xlink:href="#DejaVuSans-20" transform="translate(1153.109375 0)"/>
     <use xlink:href="#DejaVuSans-6c" transform="translate(1184.896484 0)"/>
     <use xlink:href="#DejaVuSans-61" transform="translate(1212.679688 0)"/>
     <use xlink:href="#DejaVuSans-20" transform="translate(1273.958984 0)"/>
     <use xlink:href="#DejaVuSans-6d" transform="translate(1305.746094 0)"/>
     <use xlink:href="#DejaVuSans-69" transform="translate(1403.158203 0)"/>
     <use xlink:href="#DejaVuSans-73" transform="translate(1430.941406 0)"/>
     <use xlink:href="#DejaVuSans-6d" transform="translate(1483.041016 0)"/>
     <use xlink:href="#DejaVuSans-61" transform="translate(1580.453125 0)"/>
     <use xlink:href="#DejaVuSans-20" transform="translate(1641.732422 0)"/>
     <use xlink:href="#DejaVuSans-41" transform="translate(1673.519531 0)"/>
     <use xlink:href="#DejaVuSans-50" transform="translate(1741.927734 0)"/>
     <use xlink:href="#DejaVuSans-49" transform="translate(1802.230469 0)"/>
     <use xlink:href="#DejaVuSans-2e" transform="translate(1831.722656 0)"/>
    </g>
   </g>
   <g id="text_18">
    <!-- - Nginx enruta y protege el backend. -->
    <g style="fill: #9ca3af" transform="translate(121.2 600.8) scale(0.1 -0.1)">
     <use xlink:href="#DejaVuSans-2d"/>
     <use xlink:href="#DejaVuSans-20" transform="translate(36.083984 0)"/>
     <use xlink:href="#DejaVuSans-4e" transform="translate(67.871094 0)"/>
     <use xlink:href="#DejaVuSans-67" transform="translate(142.675781 0)"/>
     <use xlink:href="#DejaVuSans-69" transform="translate(206.152344 0)"/>
     <use xlink:href="#DejaVuSans-6e" transform="translate(233.935547 0)"/>
     <use xlink:href="#DejaVuSans-78" transform="translate(297.314453 0)"/>
     <use xlink:href="#DejaVuSans-20" transform="translate(356.494141 0)"/>
     <use xlink:href="#DejaVuSans-65" transform="translate(388.28125 0)"/>
     <use xlink:href="#DejaVuSans-6e" transform="translate(449.804688 0)"/>
     <use xlink:href="#DejaVuSans-72" transform="translate(513.183594 0)"/>
     <use xlink:href="#DejaVuSans-75" transform="translate(554.296875 0)"/>
     <use xlink:href="#DejaVuSans-74" transform="translate(617.675781 0)"/>
     <use xlink:href="#DejaVuSans-61" transform="translate(656.884766 0)"/>
     <use xlink:href="#DejaVuSans-20" transform="translate(718.164062 0)"/>
     <use xlink:href="#DejaVuSans-79" transform="translate(749.951172 0)"/>
     <use xlink:href="#DejaVuSans-20" transform="translate(809.130859 0)"/>
     <use xlink:href="#DejaVuSans-70" transform="translate(840.917969 0)"/>
     <use xlink:href="#DejaVuSans-72" transform="translate(904.394531 0)"/>
     <use xlink:href="#DejaVuSans-6f" transform="translate(943.257812 0)"/>
     <use xlink:href="#DejaVuSans-74" transform="translate(1004.439453 0)"/>
     <use xlink:href="#DejaVuSans-65" transform="translate(1043.648438 0)"/>
     <use xlink:href="#DejaVuSans-67" transform="translate(1105.171875 0)"/>
     <use xlink:href="#DejaVuSans-65" transform="translate(1168.648438 0)"/>
     <use xlink:href="#DejaVuSans-20" transform="translate(1230.171875 0)"/>
     <use xlink:href="#DejaVuSans-65" transform="translate(1261.958984 0)"/>
     <use xlink:href="#DejaVuSans-6c" transform="translate(1323.482422 0)"/>
     <use xlink:href="#DejaVuSans-20" transform="translate(1351.265625 0)"/>
     <use xlink:href="#DejaVuSans-62" transform="translate(1383.052734 0)"/>
     <use xlink:href="#DejaVuSans-61" transform="translate(1446.529297 0)"/>
     <use xlink:href="#DejaVuSans-63" transform="translate(1507.808594 0)"/>
     <use xlink:href="#DejaVuSans-6b" transform="translate(1562.789062 0)"/>
     <use xlink:href="#DejaVuSans-65" transform="translate(1617.074219 0)"/>
     <use xlink:href="#DejaVuSans-6e" transform="translate(1678.597656 0)"/>
     <use xlink:href="#DejaVuSans-64" transform="translate(1741.976562 0)"/>
     <use xlink:href="#DejaVuSans-2e" transform="translate(1805.453125 0)"/>
    </g>
   </g>
   <g id="text_19">
    <!-- - AI (Sam) llama a Gemini; Propiedades usan DB y Mapbox. -->
    <g style="fill: #9ca3af" transform="translate(121.2 622) scale(0.1 -0.1)">
     <defs>
      <path id="DejaVuSans-3b" d="M 750 3309 
L 1409 3309 
L 1409 2516 
L 750 2516 
L 750 3309 
z
M 750 794 
L 1409 794 
L 1409 256 
L 897 -744 
L 494 -744 
L 750 256 
L 750 794 
z
" transform="scale(0.015625)"/>
     </defs>
     <use xlink:href="#DejaVuSans-2d"/>
     <use xlink:href="#DejaVuSans-20" transform="translate(36.083984 0)"/>
     <use xlink:href="#DejaVuSans-41" transform="translate(67.871094 0)"/>
     <use xlink:href="#DejaVuSans-49" transform="translate(136.279297 0)"/>
     <use xlink:href="#DejaVuSans-20" transform="translate(165.771484 0)"/>
     <use xlink:href="#DejaVuSans-28" transform="translate(197.558594 0)"/>
     <use xlink:href="#DejaVuSans-53" transform="translate(236.572266 0)"/>
     <use xlink:href="#DejaVuSans-61" transform="translate(300.048828 0)"/>
     <use xlink:href="#DejaVuSans-6d" transform="translate(361.328125 0)"/>
     <use xlink:href="#DejaVuSans-29" transform="translate(458.740234 0)"/>
     <use xlink:href="#DejaVuSans-20" transform="translate(497.753906 0)"/>
     <use xlink:href="#DejaVuSans-6c" transform="translate(529.541016 0)"/>
     <use xlink:href="#DejaVuSans-6c" transform="translate(557.324219 0)"/>
     <use xlink:href="#DejaVuSans-61" transform="translate(585.107422 0)"/>
     <use xlink:href="#DejaVuSans-6d" transform="translate(646.386719 0)"/>
     <use xlink:href="#DejaVuSans-61" transform="translate(743.798828 0)"/>
     <use xlink:href="#DejaVuSans-20" transform="translate(805.078125 0)"/>
     <use xlink:href="#DejaVuSans-61" transform="translate(836.865234 0)"/>
     <use xlink:href="#DejaVuSans-20" transform="translate(898.144531 0)"/>
     <use xlink:href="#DejaVuSans-47" transform="translate(929.931641 0)"/>
     <use xlink:href="#DejaVuSans-65" transform="translate(1007.421875 0)"/>
     <use xlink:href="#DejaVuSans-6d" transform="translate(1068.945312 0)"/>
     <use xlink:href="#DejaVuSans-69" transform="translate(1166.357422 0)"/>
     <use xlink:href="#DejaVuSans-6e" transform="translate(1194.140625 0)"/>
     <use xlink:href="#DejaVuSans-69" transform="translate(1257.519531 0)"/>
     <use xlink:href="#DejaVuSans-3b" transform="translate(1285.302734 0)"/>
     <use xlink:href="#DejaVuSans-20" transform="translate(1318.994141 0)"/>
     <use xlink:href="#DejaVuSans-50" transform="translate(1350.78125 0)"/>
     <use xlink:href="#DejaVuSans-72" transform="translate(1409.333984 0)"/>
     <use xlink:href="#DejaVuSans-6f" transform="translate(1448.197266 0)"/>
     <use xlink:href="#DejaVuSans-70" transform="translate(1509.378906 0)"/>
     <use xlink:href="#DejaVuSans-69" transform="translate(1572.855469 0)"/>
     <use xlink:href="#DejaVuSans-65" transform="translate(1600.638672 0)"/>
     <use xlink:href="#DejaVuSans-64" transform="translate(1662.162109 0)"/>
     <use xlink:href="#DejaVuSans-61" transform="translate(1725.638672 0)"/>
     <use xlink:href="#DejaVuSans-64" transform="translate(1786.917969 0)"/>
     <use xlink:href="#DejaVuSans-65" transform="translate(1850.394531 0)"/>
     <use xlink:href="#DejaVuSans-73" transform="translate(1911.917969 0)"/>
     <use xlink:href="#DejaVuSans-20" transform="translate(1964.017578 0)"/>
     <use xlink:href="#DejaVuSans-75" transform="translate(1995.804688 0)"/>
     <use xlink:href="#DejaVuSans-73" transform="translate(2059.183594 0)"/>
     <use xlink:href="#DejaVuSans-61" transform="translate(2111.283203 0)"/>
     <use xlink:href="#DejaVuSans-6e" transform="translate(2172.5625 0)"/>
     <use xlink:href="#DejaVuSans-20" transform="translate(2235.941406 0)"/>
     <use xlink:href="#DejaVuSans-44" transform="translate(2267.728516 0)"/>
     <use xlink:href="#DejaVuSans-42" transform="translate(2344.730469 0)"/>
     <use xlink:href="#DejaVuSans-20" transform="translate(2413.333984 0)"/>
     <use xlink:href="#DejaVuSans-79" transform="translate(2445.121094 0)"/>
     <use xlink:href="#DejaVuSans-20" transform="translate(2504.300781 0)"/>
     <use xlink:href="#DejaVuSans-4d" transform="translate(2536.087891 0)"/>
     <use xlink:href="#DejaVuSans-61" transform="translate(2622.367188 0)"/>
     <use xlink:href="#DejaVuSans-70" transform="translate(2683.646484 0)"/>
     <use xlink:href="#DejaVuSans-62" transform="translate(2747.123047 0)"/>
     <use xlink:href="#DejaVuSans-6f" transform="translate(2810.599609 0)"/>
     <use xlink:href="#DejaVuSans-78" transform="translate(2868.65625 0)"/>
     <use xlink:href="#DejaVuSans-2e" transform="translate(2927.835938 0)"/>
    </g>
   </g>
  </g>
 </g>
 <defs>
  <clipPath id="p2fe874c1db">
   <rect x="7.2" y="7.2" width="1140" height="636"/>
  </clipPath>
 </defs>
</svg>
