<?xml version="1.0" encoding="utf-8" standalone="no"?>
<!DOCTYPE svg PUBLIC "-//W3C//DTD SVG 1.1//EN"
  "http://www.w3.org/Graphics/SVG/1.1/DTD/svg11.dtd">
<svg xmlns:xlink="http://www.w3.org/1999/xlink" width="1010.4pt" height="578.4pt" viewBox="0 0 1010.4 578.4" xmlns="http://www.w3.org/2000/svg" version="1.1">
 <metadata>
  <rdf:RDF xmlns:dc="http://purl.org/dc/elements/1.1/" xmlns:cc="http://creativecommons.org/ns#" xmlns:rdf="http://www.w3.org/1999/02/22-rdf-syntax-ns#">
   <cc:Work>
    <dc:type rdf:resource="http://purl.org/dc/dcmitype/StillImage"/>
    <dc:date>2025-09-01T13:03:05.510276</dc:date>
    <dc:format>image/svg+xml</dc:format>
    <dc:creator>
     <cc:Agent>
      <dc:title>Matplotlib v3.10.5, https://matplotlib.org/</dc:title>
     </cc:Agent>
    </dc:creator>
   </cc:Work>
  </rdf:RDF>
 </metadata>
 <defs>
  <style type="text/css">*{stroke-linejoin: round; stroke-linecap: butt}</style>
 </defs>
 <g id="figure_1">
  <g id="patch_1">
   <path d="M 0 578.4 
L 1010.4 578.4 
L 1010.4 0 
L 0 0 
z
" style="fill: #0b1220"/>
  </g>
  <g id="axes_1">
   <g id="patch_2">
    <path d="M 58.992 167.94 
L 333.888 167.94 
Q 336.876 167.94 336.876 165.12 
L 336.876 117.18 
Q 336.876 114.36 333.888 114.36 
L 58.992 114.36 
Q 56.004 114.36 56.004 117.18 
L 56.004 165.12 
Q 56.004 167.94 58.992 167.94 
z
" clip-path="url(#pffcf0c7333)" style="fill: #111827; stroke: #93c5fd; stroke-width: 1.4; stroke-linejoin: miter"/>
   </g>
   <g id="patch_3">
    <path d="M 357.792 167.94 
L 642.648 167.94 
Q 645.636 167.94 645.636 165.12 
L 645.636 117.18 
Q 645.636 114.36 642.648 114.36 
L 357.792 114.36 
Q 354.804 114.36 354.804 117.18 
L 354.804 165.12 
Q 354.804 167.94 357.792 167.94 
z
" clip-path="url(#pffcf0c7333)" style="fill: #111827; stroke: #93c5fd; stroke-width: 1.4; stroke-linejoin: miter"/>
   </g>
   <g id="patch_4">
    <path d="M 202.442733 141.15 
Q 348.330239 141.15 492.876104 141.15 
" clip-path="url(#pffcf0c7333)" style="fill: none; stroke: #9ca3af; stroke-width: 1.2; stroke-linecap: round"/>
    <path d="M 488.076104 138.75 
L 492.876104 141.15 
L 488.076104 143.55 
z
" clip-path="url(#pffcf0c7333)" style="fill: #9ca3af; stroke: #9ca3af; stroke-width: 1.2; stroke-linecap: round"/>
   </g>
   <g id="patch_5">
    <path d="M 500.22 185.8 
L 629.7 218.7 
L 500.22 251.6 
L 370.74 218.7 
z
" clip-path="url(#pffcf0c7333)" style="fill: #0b1220; opacity: 0.95"/>
   </g>
   <g id="patch_6">
    <path d="M 500.22 147.147061 
Q 500.22 179.925417 500.22 211.362132 
" clip-path="url(#pffcf0c7333)" style="fill: none; stroke: #9ca3af; stroke-width: 1.2; stroke-linecap: round"/>
    <path d="M 502.62 206.562132 
L 500.22 211.362132 
L 497.82 206.562132 
z
" clip-path="url(#pffcf0c7333)" style="fill: #9ca3af; stroke: #9ca3af; stroke-width: 1.2; stroke-linecap: round"/>
   </g>
   <g id="patch_7">
    <path d="M 108.792 355.94 
L 373.728 355.94 
Q 376.716 355.94 376.716 353.12 
L 376.716 305.18 
Q 376.716 302.36 373.728 302.36 
L 108.792 302.36 
Q 105.804 302.36 105.804 305.18 
L 105.804 353.12 
Q 105.804 355.94 108.792 355.94 
z
" clip-path="url(#pffcf0c7333)" style="fill: #0f172a; stroke: #93c5fd; stroke-width: 1.4; stroke-linejoin: miter"/>
   </g>
   <g id="patch_8">
    <path d="M 382.692 355.94 
L 627.708 355.94 
Q 630.696 355.94 630.696 353.12 
L 630.696 305.18 
Q 630.696 302.36 627.708 302.36 
L 382.692 302.36 
Q 379.704 302.36 379.704 305.18 
L 379.704 353.12 
Q 379.704 355.94 382.692 355.94 
z
" clip-path="url(#pffcf0c7333)" style="fill: #0f172a; stroke: #60a5fa; stroke-width: 1.4; stroke-linejoin: miter"/>
   </g>
   <g id="patch_9">
    <path d="M 666.552 355.94 
L 921.528 355.94 
Q 924.516 355.94 924.516 353.12 
L 924.516 305.18 
Q 924.516 302.36 921.528 302.36 
L 666.552 302.36 
Q 663.564 302.36 663.564 305.18 
L 663.564 353.12 
Q 663.564 355.94 666.552 355.94 
z
" clip-path="url(#pffcf0c7333)" style="fill: #0f172a; stroke: #fbbf24; stroke-width: 1.4; stroke-linejoin: miter"/>
   </g>
   <g id="patch_10">
    <path d="M 489.39198 229.452749 
Q 368.247038 257.475685 248.409222 285.19626 
" clip-path="url(#pffcf0c7333)" style="fill: none; stroke: #9ca3af; stroke-width: 1.2; stroke-linecap: round"/>
    <path d="M 253.626618 286.452758 
L 248.409222 285.19626 
L 252.544858 281.776243 
z
" clip-path="url(#pffcf0c7333)" style="fill: #9ca3af; stroke: #9ca3af; stroke-width: 1.2; stroke-linecap: round"/>
   </g>
   <g id="patch_11">
    <path d="M 500.657391 224.685587 
Q 502.710077 252.776055 504.664984 279.52845 
" clip-path="url(#pffcf0c7333)" style="fill: none; stroke: #9ca3af; stroke-width: 1.2; stroke-linecap: round"/>
    <path d="M 506.708779 274.566303 
L 504.664984 279.52845 
L 501.921544 274.916126 
z
" clip-path="url(#pffcf0c7333)" style="fill: #9ca3af; stroke: #9ca3af; stroke-width: 1.2; stroke-linecap: round"/>
   </g>
   <g id="patch_12">
    <path d="M 511.08381 229.296766 
Q 649.6238 257.475773 786.849068 285.387366 
" clip-path="url(#pffcf0c7333)" style="fill: none; stroke: #9ca3af; stroke-width: 1.2; stroke-linecap: round"/>
    <path d="M 782.623746 282.078794 
L 786.849068 285.387366 
L 781.667017 286.78248 
z
" clip-path="url(#pffcf0c7333)" style="fill: #9ca3af; stroke: #9ca3af; stroke-width: 1.2; stroke-linecap: round"/>
   </g>
   <g id="patch_13">
    <path d="M 367.752 449.94 
L 642.648 449.94 
Q 645.636 449.94 645.636 447.12 
L 645.636 399.18 
Q 645.636 396.36 642.648 396.36 
L 367.752 396.36 
Q 364.764 396.36 364.764 399.18 
L 364.764 447.12 
Q 364.764 449.94 367.752 449.94 
z
" clip-path="url(#pffcf0c7333)" style="fill: #0f172a; stroke: #34d399; stroke-width: 1.4; stroke-linejoin: miter"/>
   </g>
   <g id="patch_14">
    <path d="M 247.179069 358.31315 
Q 313.468722 369.099792 378.434151 379.670957 
" clip-path="url(#pffcf0c7333)" style="fill: none; stroke: #9ca3af; stroke-width: 1.2; stroke-linecap: round"/>
    <path d="M 374.081921 376.531197 
L 378.434151 379.670957 
L 373.311005 381.268885 
z
" clip-path="url(#pffcf0c7333)" style="fill: #9ca3af; stroke: #9ca3af; stroke-width: 1.2; stroke-linecap: round"/>
   </g>
   <g id="patch_15">
    <path d="M 505.2 363.348352 
Q 505.2 369.09749 505.2 373.504986 
" clip-path="url(#pffcf0c7333)" style="fill: none; stroke: #9ca3af; stroke-width: 1.2; stroke-linecap: round"/>
    <path d="M 507.6 368.704986 
L 505.2 373.504986 
L 502.8 368.704986 
z
" clip-path="url(#pffcf0c7333)" style="fill: #9ca3af; stroke: #9ca3af; stroke-width: 1.2; stroke-linecap: round"/>
   </g>
   <g id="patch_16">
    <path d="M 788.095095 358.175096 
Q 709.377845 369.100299 631.989498 379.841063 
" clip-path="url(#pffcf0c7333)" style="fill: none; stroke: #9ca3af; stroke-width: 1.2; stroke-linecap: round"/>
    <path d="M 637.073859 381.558407 
L 631.989498 379.841063 
L 636.41399 376.803981 
z
" clip-path="url(#pffcf0c7333)" style="fill: #9ca3af; stroke: #9ca3af; stroke-width: 1.2; stroke-linecap: round"/>
   </g>
   <g id="line2d_1">
    <path d="M 500.22 185.8 
L 629.7 218.7 
L 500.22 251.6 
L 370.74 218.7 
L 500.22 185.8 
" clip-path="url(#pffcf0c7333)" style="fill: none; stroke: #fbbf24; stroke-width: 1.6; stroke-linecap: square"/>
   </g>
   <g id="text_1">
    <!-- Cómo decide Sam qué modelo de IA usar -->
    <g style="fill: #ffffff" transform="translate(298.005938 36.026875) scale(0.18 -0.18)">
     <defs>
      <path id="DejaVuSans-Bold-43" d="M 4288 256 
Q 3956 84 3597 -3 
Q 3238 -91 2847 -91 
Q 1681 -91 1000 561 
Q 319 1213 319 2328 
Q 319 3447 1000 4098 
Q 1681 4750 2847 4750 
Q 3238 4750 3597 4662 
Q 3956 4575 4288 4403 
L 4288 3438 
Q 3953 3666 3628 3772 
Q 3303 3878 2944 3878 
Q 2300 3878 1931 3465 
Q 1563 3053 1563 2328 
Q 1563 1606 1931 1193 
Q 2300 781 2944 781 
Q 3303 781 3628 887 
Q 3953 994 4288 1222 
L 4288 256 
z
" transform="scale(0.015625)"/>
      <path id="DejaVuSans-Bold-f3" d="M 2203 2784 
Q 1831 2784 1636 2517 
Q 1441 2250 1441 1747 
Q 1441 1244 1636 976 
Q 1831 709 2203 709 
Q 2569 709 2762 976 
Q 2956 1244 2956 1747 
Q 2956 2250 2762 2517 
Q 2569 2784 2203 2784 
z
M 2203 3584 
Q 3106 3584 3614 3096 
Q 4122 2609 4122 1747 
Q 4122 884 3614 396 
Q 3106 -91 2203 -91 
Q 1297 -91 786 396 
Q 275 884 275 1747 
Q 275 2609 786 3096 
Q 1297 3584 2203 3584 
z
M 2694 5119 
L 3578 5119 
L 2425 3944 
L 1813 3944 
L 2694 5119 
z
" transform="scale(0.015625)"/>
      <path id="DejaVuSans-Bold-6d" d="M 3781 2919 
Q 3994 3244 4286 3414 
Q 4578 3584 4928 3584 
Q 5531 3584 5847 3212 
Q 6163 2841 6163 2131 
L 6163 0 
L 5038 0 
L 5038 1825 
Q 5041 1866 5042 1909 
Q 5044 1953 5044 2034 
Q 5044 2406 4934 2573 
Q 4825 2741 4581 2741 
Q 4263 2741 4089 2478 
Q 3916 2216 3909 1719 
L 3909 0 
L 2784 0 
L 2784 1825 
Q 2784 2406 2684 2573 
Q 2584 2741 2328 2741 
Q 2006 2741 1831 2477 
Q 1656 2213 1656 1722 
L 1656 0 
L 531 0 
L 531 3500 
L 1656 3500 
L 1656 2988 
Q 1863 3284 2130 3434 
Q 2397 3584 2719 3584 
Q 3081 3584 3359 3409 
Q 3638 3234 3781 2919 
z
" transform="scale(0.015625)"/>
      <path id="DejaVuSans-Bold-6f" d="M 2203 2784 
Q 1831 2784 1636 2517 
Q 1441 2250 1441 1747 
Q 1441 1244 1636 976 
Q 1831 709 2203 709 
Q 2569 709 2762 976 
Q 2956 1244 2956 1747 
Q 2956 2250 2762 2517 
Q 2569 2784 2203 2784 
z
M 2203 3584 
Q 3106 3584 3614 3096 
Q 4122 2609 4122 1747 
Q 4122 884 3614 396 
Q 3106 -91 2203 -91 
Q 1297 -91 786 396 
Q 275 884 275 1747 
Q 275 2609 786 3096 
Q 1297 3584 2203 3584 
z
" transform="scale(0.015625)"/>
      <path id="DejaVuSans-Bold-20" transform="scale(0.015625)"/>
      <path id="DejaVuSans-Bold-64" d="M 2919 2988 
L 2919 4863 
L 4044 4863 
L 4044 0 
L 2919 0 
L 2919 506 
Q 2688 197 2409 53 
Q 2131 -91 1766 -91 
Q 1119 -91 703 423 
Q 288 938 288 1747 
Q 288 2556 703 3070 
Q 1119 3584 1766 3584 
Q 2128 3584 2408 3439 
Q 2688 3294 2919 2988 
z
M 2181 722 
Q 2541 722 2730 984 
Q 2919 1247 2919 1747 
Q 2919 2247 2730 2509 
Q 2541 2772 2181 2772 
Q 1825 2772 1636 2509 
Q 1447 2247 1447 1747 
Q 1447 1247 1636 984 
Q 1825 722 2181 722 
z
" transform="scale(0.015625)"/>
      <path id="DejaVuSans-Bold-65" d="M 4031 1759 
L 4031 1441 
L 1416 1441 
Q 1456 1047 1700 850 
Q 1944 653 2381 653 
Q 2734 653 3104 758 
Q 3475 863 3866 1075 
L 3866 213 
Q 3469 63 3072 -14 
Q 2675 -91 2278 -91 
Q 1328 -91 801 392 
Q 275 875 275 1747 
Q 275 2603 792 3093 
Q 1309 3584 2216 3584 
Q 3041 3584 3536 3087 
Q 4031 2591 4031 1759 
z
M 2881 2131 
Q 2881 2450 2695 2645 
Q 2509 2841 2209 2841 
Q 1884 2841 1681 2658 
Q 1478 2475 1428 2131 
L 2881 2131 
z
" transform="scale(0.015625)"/>
      <path id="DejaVuSans-Bold-63" d="M 3366 3391 
L 3366 2478 
Q 3138 2634 2908 2709 
Q 2678 2784 2431 2784 
Q 1963 2784 1702 2511 
Q 1441 2238 1441 1747 
Q 1441 1256 1702 982 
Q 1963 709 2431 709 
Q 2694 709 2930 787 
Q 3166 866 3366 1019 
L 3366 103 
Q 3103 6 2833 -42 
Q 2563 -91 2291 -91 
Q 1344 -91 809 395 
Q 275 881 275 1747 
Q 275 2613 809 3098 
Q 1344 3584 2291 3584 
Q 2566 3584 2833 3536 
Q 3100 3488 3366 3391 
z
" transform="scale(0.015625)"/>
      <path id="DejaVuSans-Bold-69" d="M 538 3500 
L 1656 3500 
L 1656 0 
L 538 0 
L 538 3500 
z
M 538 4863 
L 1656 4863 
L 1656 3950 
L 538 3950 
L 538 4863 
z
" transform="scale(0.015625)"/>
      <path id="DejaVuSans-Bold-53" d="M 3834 4519 
L 3834 3531 
Q 3450 3703 3084 3790 
Q 2719 3878 2394 3878 
Q 1963 3878 1756 3759 
Q 1550 3641 1550 3391 
Q 1550 3203 1689 3098 
Q 1828 2994 2194 2919 
L 2706 2816 
Q 3484 2659 3812 2340 
Q 4141 2022 4141 1434 
Q 4141 663 3683 286 
Q 3225 -91 2284 -91 
Q 1841 -91 1394 -6 
Q 947 78 500 244 
L 500 1259 
Q 947 1022 1364 901 
Q 1781 781 2169 781 
Q 2563 781 2772 912 
Q 2981 1044 2981 1288 
Q 2981 1506 2839 1625 
Q 2697 1744 2272 1838 
L 1806 1941 
Q 1106 2091 782 2419 
Q 459 2747 459 3303 
Q 459 4000 909 4375 
Q 1359 4750 2203 4750 
Q 2588 4750 2994 4692 
Q 3400 4634 3834 4519 
z
" transform="scale(0.015625)"/>
      <path id="DejaVuSans-Bold-61" d="M 2106 1575 
Q 1756 1575 1579 1456 
Q 1403 1338 1403 1106 
Q 1403 894 1545 773 
Q 1688 653 1941 653 
Q 2256 653 2472 879 
Q 2688 1106 2688 1447 
L 2688 1575 
L 2106 1575 
z
M 3816 1997 
L 3816 0 
L 2688 0 
L 2688 519 
Q 2463 200 2181 54 
Q 1900 -91 1497 -91 
Q 953 -91 614 226 
Q 275 544 275 1050 
Q 275 1666 698 1953 
Q 1122 2241 2028 2241 
L 2688 2241 
L 2688 2328 
Q 2688 2594 2478 2717 
Q 2269 2841 1825 2841 
Q 1466 2841 1156 2769 
Q 847 2697 581 2553 
L 581 3406 
Q 941 3494 1303 3539 
Q 1666 3584 2028 3584 
Q 2975 3584 3395 3211 
Q 3816 2838 3816 1997 
z
" transform="scale(0.015625)"/>
      <path id="DejaVuSans-Bold-71" d="M 2181 2772 
Q 1825 2772 1636 2509 
Q 1447 2247 1447 1747 
Q 1447 1247 1636 984 
Q 1825 722 2181 722 
Q 2541 722 2730 984 
Q 2919 1247 2919 1747 
Q 2919 2247 2730 2509 
Q 2541 2772 2181 2772 
z
M 2919 506 
Q 2688 197 2409 53 
Q 2131 -91 1766 -91 
Q 1119 -91 703 423 
Q 288 938 288 1747 
Q 288 2556 703 3067 
Q 1119 3578 1766 3578 
Q 2131 3578 2409 3434 
Q 2688 3291 2919 2981 
L 2919 3500 
L 4044 3500 
L 4044 -1331 
L 2919 -1331 
L 2919 506 
z
" transform="scale(0.015625)"/>
      <path id="DejaVuSans-Bold-75" d="M 500 1363 
L 500 3500 
L 1625 3500 
L 1625 3150 
Q 1625 2866 1622 2436 
Q 1619 2006 1619 1863 
Q 1619 1441 1641 1255 
Q 1663 1069 1716 984 
Q 1784 875 1895 815 
Q 2006 756 2150 756 
Q 2500 756 2700 1025 
Q 2900 1294 2900 1772 
L 2900 3500 
L 4019 3500 
L 4019 0 
L 2900 0 
L 2900 506 
Q 2647 200 2364 54 
Q 2081 -91 1741 -91 
Q 1134 -91 817 281 
Q 500 653 500 1363 
z
" transform="scale(0.015625)"/>
      <path id="DejaVuSans-Bold-e9" d="M 4031 1759 
L 4031 1441 
L 1416 1441 
Q 1456 1047 1700 850 
Q 1944 653 2381 653 
Q 2734 653 3104 758 
Q 3475 863 3866 1075 
L 3866 213 
Q 3469 63 3072 -14 
Q 2675 -91 2278 -91 
Q 1328 -91 801 392 
Q 275 875 275 1747 
Q 275 2603 792 3093 
Q 1309 3584 2216 3584 
Q 3041 3584 3536 3087 
Q 4031 2591 4031 1759 
z
M 2881 2131 
Q 2881 2450 2695 2645 
Q 2509 2841 2209 2841 
Q 1884 2841 1681 2658 
Q 1478 2475 1428 2131 
L 2881 2131 
z
M 2702 5119 
L 3586 5119 
L 2433 3944 
L 1821 3944 
L 2702 5119 
z
" transform="scale(0.015625)"/>
      <path id="DejaVuSans-Bold-6c" d="M 538 4863 
L 1656 4863 
L 1656 0 
L 538 0 
L 538 4863 
z
" transform="scale(0.015625)"/>
      <path id="DejaVuSans-Bold-49" d="M 588 4666 
L 1791 4666 
L 1791 0 
L 588 0 
L 588 4666 
z
" transform="scale(0.015625)"/>
      <path id="DejaVuSans-Bold-41" d="M 3419 850 
L 1538 850 
L 1241 0 
L 31 0 
L 1759 4666 
L 3194 4666 
L 4922 0 
L 3713 0 
L 3419 850 
z
M 1838 1716 
L 3116 1716 
L 2478 3572 
L 1838 1716 
z
" transform="scale(0.015625)"/>
      <path id="DejaVuSans-Bold-73" d="M 3272 3391 
L 3272 2541 
Q 2913 2691 2578 2766 
Q 2244 2841 1947 2841 
Q 1628 2841 1473 2761 
Q 1319 2681 1319 2516 
Q 1319 2381 1436 2309 
Q 1553 2238 1856 2203 
L 2053 2175 
Q 2913 2066 3209 1816 
Q 3506 1566 3506 1031 
Q 3506 472 3093 190 
Q 2681 -91 1863 -91 
Q 1516 -91 1145 -36 
Q 775 19 384 128 
L 384 978 
Q 719 816 1070 734 
Q 1422 653 1784 653 
Q 2113 653 2278 743 
Q 2444 834 2444 1013 
Q 2444 1163 2330 1236 
Q 2216 1309 1875 1350 
L 1678 1375 
Q 931 1469 631 1722 
Q 331 1975 331 2491 
Q 331 3047 712 3315 
Q 1094 3584 1881 3584 
Q 2191 3584 2531 3537 
Q 2872 3491 3272 3391 
z
" transform="scale(0.015625)"/>
      <path id="DejaVuSans-Bold-72" d="M 3138 2547 
Q 2991 2616 2845 2648 
Q 2700 2681 2553 2681 
Q 2122 2681 1889 2404 
Q 1656 2128 1656 1613 
L 1656 0 
L 538 0 
L 538 3500 
L 1656 3500 
L 1656 2925 
Q 1872 3269 2151 3426 
Q 2431 3584 2822 3584 
Q 2878 3584 2943 3579 
Q 3009 3575 3134 3559 
L 3138 2547 
z
" transform="scale(0.015625)"/>
     </defs>
     <use xlink:href="#DejaVuSans-Bold-43"/>
     <use xlink:href="#DejaVuSans-Bold-f3" transform="translate(73.388672 0)"/>
     <use xlink:href="#DejaVuSans-Bold-6d" transform="translate(142.089844 0)"/>
     <use xlink:href="#DejaVuSans-Bold-6f" transform="translate(246.289062 0)"/>
     <use xlink:href="#DejaVuSans-Bold-20" transform="translate(314.990234 0)"/>
     <use xlink:href="#DejaVuSans-Bold-64" transform="translate(349.804688 0)"/>
     <use xlink:href="#DejaVuSans-Bold-65" transform="translate(421.386719 0)"/>
     <use xlink:href="#DejaVuSans-Bold-63" transform="translate(489.208984 0)"/>
     <use xlink:href="#DejaVuSans-Bold-69" transform="translate(548.486328 0)"/>
     <use xlink:href="#DejaVuSans-Bold-64" transform="translate(582.763672 0)"/>
     <use xlink:href="#DejaVuSans-Bold-65" transform="translate(654.345703 0)"/>
     <use xlink:href="#DejaVuSans-Bold-20" transform="translate(722.167969 0)"/>
     <use xlink:href="#DejaVuSans-Bold-53" transform="translate(756.982422 0)"/>
     <use xlink:href="#DejaVuSans-Bold-61" transform="translate(829.003906 0)"/>
     <use xlink:href="#DejaVuSans-Bold-6d" transform="translate(896.484375 0)"/>
     <use xlink:href="#DejaVuSans-Bold-20" transform="translate(1000.683594 0)"/>
     <use xlink:href="#DejaVuSans-Bold-71" transform="translate(1035.498047 0)"/>
     <use xlink:href="#DejaVuSans-Bold-75" transform="translate(1107.080078 0)"/>
     <use xlink:href="#DejaVuSans-Bold-e9" transform="translate(1178.271484 0)"/>
     <use xlink:href="#DejaVuSans-Bold-20" transform="translate(1246.09375 0)"/>
     <use xlink:href="#DejaVuSans-Bold-6d" transform="translate(1280.908203 0)"/>
     <use xlink:href="#DejaVuSans-Bold-6f" transform="translate(1385.107422 0)"/>
     <use xlink:href="#DejaVuSans-Bold-64" transform="translate(1453.808594 0)"/>
     <use xlink:href="#DejaVuSans-Bold-65" transform="translate(1525.390625 0)"/>
     <use xlink:href="#DejaVuSans-Bold-6c" transform="translate(1593.212891 0)"/>
     <use xlink:href="#DejaVuSans-Bold-6f" transform="translate(1627.490234 0)"/>
     <use xlink:href="#DejaVuSans-Bold-20" transform="translate(1696.191406 0)"/>
     <use xlink:href="#DejaVuSans-Bold-64" transform="translate(1731.005859 0)"/>
     <use xlink:href="#DejaVuSans-Bold-65" transform="translate(1802.587891 0)"/>
     <use xlink:href="#DejaVuSans-Bold-20" transform="translate(1870.410156 0)"/>
     <use xlink:href="#DejaVuSans-Bold-49" transform="translate(1905.224609 0)"/>
     <use xlink:href="#DejaVuSans-Bold-41" transform="translate(1942.431641 0)"/>
     <use xlink:href="#DejaVuSans-Bold-20" transform="translate(2019.824219 0)"/>
     <use xlink:href="#DejaVuSans-Bold-75" transform="translate(2054.638672 0)"/>
     <use xlink:href="#DejaVuSans-Bold-73" transform="translate(2125.830078 0)"/>
     <use xlink:href="#DejaVuSans-Bold-61" transform="translate(2185.351562 0)"/>
     <use xlink:href="#DejaVuSans-Bold-72" transform="translate(2252.832031 0)"/>
    </g>
   </g>
   <g id="text_2">
    <!-- Objetivo: respuesta rápida cuando es simple, y más profunda cuando es compleja -->
    <g style="fill: #9ca3af" transform="translate(278.920547 71.555313) scale(0.11 -0.11)">
     <defs>
      <path id="DejaVuSans-4f" d="M 2522 4238 
Q 1834 4238 1429 3725 
Q 1025 3213 1025 2328 
Q 1025 1447 1429 934 
Q 1834 422 2522 422 
Q 3209 422 3611 934 
Q 4013 1447 4013 2328 
Q 4013 3213 3611 3725 
Q 3209 4238 2522 4238 
z
M 2522 4750 
Q 3503 4750 4090 4092 
Q 4678 3434 4678 2328 
Q 4678 1225 4090 567 
Q 3503 -91 2522 -91 
Q 1538 -91 948 565 
Q 359 1222 359 2328 
Q 359 3434 948 4092 
Q 1538 4750 2522 4750 
z
" transform="scale(0.015625)"/>
      <path id="DejaVuSans-62" d="M 3116 1747 
Q 3116 2381 2855 2742 
Q 2594 3103 2138 3103 
Q 1681 3103 1420 2742 
Q 1159 2381 1159 1747 
Q 1159 1113 1420 752 
Q 1681 391 2138 391 
Q 2594 391 2855 752 
Q 3116 1113 3116 1747 
z
M 1159 2969 
Q 1341 3281 1617 3432 
Q 1894 3584 2278 3584 
Q 2916 3584 3314 3078 
Q 3713 2572 3713 1747 
Q 3713 922 3314 415 
Q 2916 -91 2278 -91 
Q 1894 -91 1617 61 
Q 1341 213 1159 525 
L 1159 0 
L 581 0 
L 581 4863 
L 1159 4863 
L 1159 2969 
z
" transform="scale(0.015625)"/>
      <path id="DejaVuSans-6a" d="M 603 3500 
L 1178 3500 
L 1178 -63 
Q 1178 -731 923 -1031 
Q 669 -1331 103 -1331 
L -116 -1331 
L -116 -844 
L 38 -844 
Q 366 -844 484 -692 
Q 603 -541 603 -63 
L 603 3500 
z
M 603 4863 
L 1178 4863 
L 1178 4134 
L 603 4134 
L 603 4863 
z
" transform="scale(0.015625)"/>
      <path id="DejaVuSans-65" d="M 3597 1894 
L 3597 1613 
L 953 1613 
Q 991 1019 1311 708 
Q 1631 397 2203 397 
Q 2534 397 2845 478 
Q 3156 559 3463 722 
L 3463 178 
Q 3153 47 2828 -22 
Q 2503 -91 2169 -91 
Q 1331 -91 842 396 
Q 353 884 353 1716 
Q 353 2575 817 3079 
Q 1281 3584 2069 3584 
Q 2775 3584 3186 3129 
Q 3597 2675 3597 1894 
z
M 3022 2063 
Q 3016 2534 2758 2815 
Q 2500 3097 2075 3097 
Q 1594 3097 1305 2825 
Q 1016 2553 972 2059 
L 3022 2063 
z
" transform="scale(0.015625)"/>
      <path id="DejaVuSans-74" d="M 1172 4494 
L 1172 3500 
L 2356 3500 
L 2356 3053 
L 1172 3053 
L 1172 1153 
Q 1172 725 1289 603 
Q 1406 481 1766 481 
L 2356 481 
L 2356 0 
L 1766 0 
Q 1100 0 847 248 
Q 594 497 594 1153 
L 594 3053 
L 172 3053 
L 172 3500 
L 594 3500 
L 594 4494 
L 1172 4494 
z
" transform="scale(0.015625)"/>
      <path id="DejaVuSans-69" d="M 603 3500 
L 1178 3500 
L 1178 0 
L 603 0 
L 603 3500 
z
M 603 4863 
L 1178 4863 
L 1178 4134 
L 603 4134 
L 603 4863 
z
" transform="scale(0.015625)"/>
      <path id="DejaVuSans-76" d="M 191 3500 
L 800 3500 
L 1894 563 
L 2988 3500 
L 3597 3500 
L 2284 0 
L 1503 0 
L 191 3500 
z
" transform="scale(0.015625)"/>
      <path id="DejaVuSans-6f" d="M 1959 3097 
Q 1497 3097 1228 2736 
Q 959 2375 959 1747 
Q 959 1119 1226 758 
Q 1494 397 1959 397 
Q 2419 397 2687 759 
Q 2956 1122 2956 1747 
Q 2956 2369 2687 2733 
Q 2419 3097 1959 3097 
z
M 1959 3584 
Q 2709 3584 3137 3096 
Q 3566 2609 3566 1747 
Q 3566 888 3137 398 
Q 2709 -91 1959 -91 
Q 1206 -91 779 398 
Q 353 888 353 1747 
Q 353 2609 779 3096 
Q 1206 3584 1959 3584 
z
" transform="scale(0.015625)"/>
      <path id="DejaVuSans-3a" d="M 750 794 
L 1409 794 
L 1409 0 
L 750 0 
L 750 794 
z
M 750 3309 
L 1409 3309 
L 1409 2516 
L 750 2516 
L 750 3309 
z
" transform="scale(0.015625)"/>
      <path id="DejaVuSans-20" transform="scale(0.015625)"/>
      <path id="DejaVuSans-72" d="M 2631 2963 
Q 2534 3019 2420 3045 
Q 2306 3072 2169 3072 
Q 1681 3072 1420 2755 
Q 1159 2438 1159 1844 
L 1159 0 
L 581 0 
L 581 3500 
L 1159 3500 
L 1159 2956 
Q 1341 3275 1631 3429 
Q 1922 3584 2338 3584 
Q 2397 3584 2469 3576 
Q 2541 3569 2628 3553 
L 2631 2963 
z
" transform="scale(0.015625)"/>
      <path id="DejaVuSans-73" d="M 2834 3397 
L 2834 2853 
Q 2591 2978 2328 3040 
Q 2066 3103 1784 3103 
Q 1356 3103 1142 2972 
Q 928 2841 928 2578 
Q 928 2378 1081 2264 
Q 1234 2150 1697 2047 
L 1894 2003 
Q 2506 1872 2764 1633 
Q 3022 1394 3022 966 
Q 3022 478 2636 193 
Q 2250 -91 1575 -91 
Q 1294 -91 989 -36 
Q 684 19 347 128 
L 347 722 
Q 666 556 975 473 
Q 1284 391 1588 391 
Q 1994 391 2212 530 
Q 2431 669 2431 922 
Q 2431 1156 2273 1281 
Q 2116 1406 1581 1522 
L 1381 1569 
Q 847 1681 609 1914 
Q 372 2147 372 2553 
Q 372 3047 722 3315 
Q 1072 3584 1716 3584 
Q 2034 3584 2315 3537 
Q 2597 3491 2834 3397 
z
" transform="scale(0.015625)"/>
      <path id="DejaVuSans-70" d="M 1159 525 
L 1159 -1331 
L 581 -1331 
L 581 3500 
L 1159 3500 
L 1159 2969 
Q 1341 3281 1617 3432 
Q 1894 3584 2278 3584 
Q 2916 3584 3314 3078 
Q 3713 2572 3713 1747 
Q 3713 922 3314 415 
Q 2916 -91 2278 -91 
Q 1894 -91 1617 61 
Q 1341 213 1159 525 
z
M 3116 1747 
Q 3116 2381 2855 2742 
Q 2594 3103 2138 3103 
Q 1681 3103 1420 2742 
Q 1159 2381 1159 1747 
Q 1159 1113 1420 752 
Q 1681 391 2138 391 
Q 2594 391 2855 752 
Q 3116 1113 3116 1747 
z
" transform="scale(0.015625)"/>
      <path id="DejaVuSans-75" d="M 544 1381 
L 544 3500 
L 1119 3500 
L 1119 1403 
Q 1119 906 1312 657 
Q 1506 409 1894 409 
Q 2359 409 2629 706 
Q 2900 1003 2900 1516 
L 2900 3500 
L 3475 3500 
L 3475 0 
L 2900 0 
L 2900 538 
Q 2691 219 2414 64 
Q 2138 -91 1772 -91 
Q 1169 -91 856 284 
Q 544 659 544 1381 
z
M 1991 3584 
L 1991 3584 
z
" transform="scale(0.015625)"/>
      <path id="DejaVuSans-61" d="M 2194 1759 
Q 1497 1759 1228 1600 
Q 959 1441 959 1056 
Q 959 750 1161 570 
Q 1363 391 1709 391 
Q 2188 391 2477 730 
Q 2766 1069 2766 1631 
L 2766 1759 
L 2194 1759 
z
M 3341 1997 
L 3341 0 
L 2766 0 
L 2766 531 
Q 2569 213 2275 61 
Q 1981 -91 1556 -91 
Q 1019 -91 701 211 
Q 384 513 384 1019 
Q 384 1609 779 1909 
Q 1175 2209 1959 2209 
L 2766 2209 
L 2766 2266 
Q 2766 2663 2505 2880 
Q 2244 3097 1772 3097 
Q 1472 3097 1187 3025 
Q 903 2953 641 2809 
L 641 3341 
Q 956 3463 1253 3523 
Q 1550 3584 1831 3584 
Q 2591 3584 2966 3190 
Q 3341 2797 3341 1997 
z
" transform="scale(0.015625)"/>
      <path id="DejaVuSans-e1" d="M 2194 1759 
Q 1497 1759 1228 1600 
Q 959 1441 959 1056 
Q 959 750 1161 570 
Q 1363 391 1709 391 
Q 2188 391 2477 730 
Q 2766 1069 2766 1631 
L 2766 1759 
L 2194 1759 
z
M 3341 1997 
L 3341 0 
L 2766 0 
L 2766 531 
Q 2569 213 2275 61 
Q 1981 -91 1556 -91 
Q 1019 -91 701 211 
Q 384 513 384 1019 
Q 384 1609 779 1909 
Q 1175 2209 1959 2209 
L 2766 2209 
L 2766 2266 
Q 2766 2663 2505 2880 
Q 2244 3097 1772 3097 
Q 1472 3097 1187 3025 
Q 903 2953 641 2809 
L 641 3341 
Q 956 3463 1253 3523 
Q 1550 3584 1831 3584 
Q 2591 3584 2966 3190 
Q 3341 2797 3341 1997 
z
M 2290 5119 
L 2912 5119 
L 1894 3944 
L 1415 3944 
L 2290 5119 
z
" transform="scale(0.015625)"/>
      <path id="DejaVuSans-64" d="M 2906 2969 
L 2906 4863 
L 3481 4863 
L 3481 0 
L 2906 0 
L 2906 525 
Q 2725 213 2448 61 
Q 2172 -91 1784 -91 
Q 1150 -91 751 415 
Q 353 922 353 1747 
Q 353 2572 751 3078 
Q 1150 3584 1784 3584 
Q 2172 3584 2448 3432 
Q 2725 3281 2906 2969 
z
M 947 1747 
Q 947 1113 1208 752 
Q 1469 391 1925 391 
Q 2381 391 2643 752 
Q 2906 1113 2906 1747 
Q 2906 2381 2643 2742 
Q 2381 3103 1925 3103 
Q 1469 3103 1208 2742 
Q 947 2381 947 1747 
z
" transform="scale(0.015625)"/>
      <path id="DejaVuSans-63" d="M 3122 3366 
L 3122 2828 
Q 2878 2963 2633 3030 
Q 2388 3097 2138 3097 
Q 1578 3097 1268 2742 
Q 959 2388 959 1747 
Q 959 1106 1268 751 
Q 1578 397 2138 397 
Q 2388 397 2633 464 
Q 2878 531 3122 666 
L 3122 134 
Q 2881 22 2623 -34 
Q 2366 -91 2075 -91 
Q 1284 -91 818 406 
Q 353 903 353 1747 
Q 353 2603 823 3093 
Q 1294 3584 2113 3584 
Q 2378 3584 2631 3529 
Q 2884 3475 3122 3366 
z
" transform="scale(0.015625)"/>
      <path id="DejaVuSans-6e" d="M 3513 2113 
L 3513 0 
L 2938 0 
L 2938 2094 
Q 2938 2591 2744 2837 
Q 2550 3084 2163 3084 
Q 1697 3084 1428 2787 
Q 1159 2491 1159 1978 
L 1159 0 
L 581 0 
L 581 3500 
L 1159 3500 
L 1159 2956 
Q 1366 3272 1645 3428 
Q 1925 3584 2291 3584 
Q 2894 3584 3203 3211 
Q 3513 2838 3513 2113 
z
" transform="scale(0.015625)"/>
      <path id="DejaVuSans-6d" d="M 3328 2828 
Q 3544 3216 3844 3400 
Q 4144 3584 4550 3584 
Q 5097 3584 5394 3201 
Q 5691 2819 5691 2113 
L 5691 0 
L 5113 0 
L 5113 2094 
Q 5113 2597 4934 2840 
Q 4756 3084 4391 3084 
Q 3944 3084 3684 2787 
Q 3425 2491 3425 1978 
L 3425 0 
L 2847 0 
L 2847 2094 
Q 2847 2600 2669 2842 
Q 2491 3084 2119 3084 
Q 1678 3084 1418 2786 
Q 1159 2488 1159 1978 
L 1159 0 
L 581 0 
L 581 3500 
L 1159 3500 
L 1159 2956 
Q 1356 3278 1631 3431 
Q 1906 3584 2284 3584 
Q 2666 3584 2933 3390 
Q 3200 3197 3328 2828 
z
" transform="scale(0.015625)"/>
      <path id="DejaVuSans-6c" d="M 603 4863 
L 1178 4863 
L 1178 0 
L 603 0 
L 603 4863 
z
" transform="scale(0.015625)"/>
      <path id="DejaVuSans-2c" d="M 750 794 
L 1409 794 
L 1409 256 
L 897 -744 
L 494 -744 
L 750 256 
L 750 794 
z
" transform="scale(0.015625)"/>
      <path id="DejaVuSans-79" d="M 2059 -325 
Q 1816 -950 1584 -1140 
Q 1353 -1331 966 -1331 
L 506 -1331 
L 506 -850 
L 844 -850 
Q 1081 -850 1212 -737 
Q 1344 -625 1503 -206 
L 1606 56 
L 191 3500 
L 800 3500 
L 1894 763 
L 2988 3500 
L 3597 3500 
L 2059 -325 
z
" transform="scale(0.015625)"/>
      <path id="DejaVuSans-66" d="M 2375 4863 
L 2375 4384 
L 1825 4384 
Q 1516 4384 1395 4259 
Q 1275 4134 1275 3809 
L 1275 3500 
L 2222 3500 
L 2222 3053 
L 1275 3053 
L 1275 0 
L 697 0 
L 697 3053 
L 147 3053 
L 147 3500 
L 697 3500 
L 697 3744 
Q 697 4328 969 4595 
Q 1241 4863 1831 4863 
L 2375 4863 
z
" transform="scale(0.015625)"/>
     </defs>
     <use xlink:href="#DejaVuSans-4f"/>
     <use xlink:href="#DejaVuSans-62" transform="translate(78.710938 0)"/>
     <use xlink:href="#DejaVuSans-6a" transform="translate(142.1875 0)"/>
     <use xlink:href="#DejaVuSans-65" transform="translate(169.970703 0)"/>
     <use xlink:href="#DejaVuSans-74" transform="translate(231.494141 0)"/>
     <use xlink:href="#DejaVuSans-69" transform="translate(270.703125 0)"/>
     <use xlink:href="#DejaVuSans-76" transform="translate(298.486328 0)"/>
     <use xlink:href="#DejaVuSans-6f" transform="translate(357.666016 0)"/>
     <use xlink:href="#DejaVuSans-3a" transform="translate(418.847656 0)"/>
     <use xlink:href="#DejaVuSans-20" transform="translate(452.539062 0)"/>
     <use xlink:href="#DejaVuSans-72" transform="translate(484.326172 0)"/>
     <use xlink:href="#DejaVuSans-65" transform="translate(523.189453 0)"/>
     <use xlink:href="#DejaVuSans-73" transform="translate(584.712891 0)"/>
     <use xlink:href="#DejaVuSans-70" transform="translate(636.8125 0)"/>
     <use xlink:href="#DejaVuSans-75" transform="translate(700.289062 0)"/>
     <use xlink:href="#DejaVuSans-65" transform="translate(763.667969 0)"/>
     <use xlink:href="#DejaVuSans-73" transform="translate(825.191406 0)"/>
     <use xlink:href="#DejaVuSans-74" transform="translate(877.291016 0)"/>
     <use xlink:href="#DejaVuSans-61" transform="translate(916.5 0)"/>
     <use xlink:href="#DejaVuSans-20" transform="translate(977.779297 0)"/>
     <use xlink:href="#DejaVuSans-72" transform="translate(1009.566406 0)"/>
     <use xlink:href="#DejaVuSans-e1" transform="translate(1050.679688 0)"/>
     <use xlink:href="#DejaVuSans-70" transform="translate(1111.958984 0)"/>
     <use xlink:href="#DejaVuSans-69" transform="translate(1175.435547 0)"/>
     <use xlink:href="#DejaVuSans-64" transform="translate(1203.21875 0)"/>
     <use xlink:href="#DejaVuSans-61" transform="translate(1266.695312 0)"/>
     <use xlink:href="#DejaVuSans-20" transform="translate(1327.974609 0)"/>
     <use xlink:href="#DejaVuSans-63" transform="translate(1359.761719 0)"/>
     <use xlink:href="#DejaVuSans-75" transform="translate(1414.742188 0)"/>
     <use xlink:href="#DejaVuSans-61" transform="translate(1478.121094 0)"/>
     <use xlink:href="#DejaVuSans-6e" transform="translate(1539.400391 0)"/>
     <use xlink:href="#DejaVuSans-64" transform="translate(1602.779297 0)"/>
     <use xlink:href="#DejaVuSans-6f" transform="translate(1666.255859 0)"/>
     <use xlink:href="#DejaVuSans-20" transform="translate(1727.4375 0)"/>
     <use xlink:href="#DejaVuSans-65" transform="translate(1759.224609 0)"/>
     <use xlink:href="#DejaVuSans-73" transform="translate(1820.748047 0)"/>
     <use xlink:href="#DejaVuSans-20" transform="translate(1872.847656 0)"/>
     <use xlink:href="#DejaVuSans-73" transform="translate(1904.634766 0)"/>
     <use xlink:href="#DejaVuSans-69" transform="translate(1956.734375 0)"/>
     <use xlink:href="#DejaVuSans-6d" transform="translate(1984.517578 0)"/>
     <use xlink:href="#DejaVuSans-70" transform="translate(2081.929688 0)"/>
     <use xlink:href="#DejaVuSans-6c" transform="translate(2145.40625 0)"/>
     <use xlink:href="#DejaVuSans-65" transform="translate(2173.189453 0)"/>
     <use xlink:href="#DejaVuSans-2c" transform="translate(2234.712891 0)"/>
     <use xlink:href="#DejaVuSans-20" transform="translate(2266.5 0)"/>
     <use xlink:href="#DejaVuSans-79" transform="translate(2298.287109 0)"/>
     <use xlink:href="#DejaVuSans-20" transform="translate(2357.466797 0)"/>
     <use xlink:href="#DejaVuSans-6d" transform="translate(2389.253906 0)"/>
     <use xlink:href="#DejaVuSans-e1" transform="translate(2486.666016 0)"/>
     <use xlink:href="#DejaVuSans-73" transform="translate(2547.945312 0)"/>
     <use xlink:href="#DejaVuSans-20" transform="translate(2600.044922 0)"/>
     <use xlink:href="#DejaVuSans-70" transform="translate(2631.832031 0)"/>
     <use xlink:href="#DejaVuSans-72" transform="translate(2695.308594 0)"/>
     <use xlink:href="#DejaVuSans-6f" transform="translate(2734.171875 0)"/>
     <use xlink:href="#DejaVuSans-66" transform="translate(2795.353516 0)"/>
     <use xlink:href="#DejaVuSans-75" transform="translate(2830.558594 0)"/>
     <use xlink:href="#DejaVuSans-6e" transform="translate(2893.9375 0)"/>
     <use xlink:href="#DejaVuSans-64" transform="translate(2957.316406 0)"/>
     <use xlink:href="#DejaVuSans-61" transform="translate(3020.792969 0)"/>
     <use xlink:href="#DejaVuSans-20" transform="translate(3082.072266 0)"/>
     <use xlink:href="#DejaVuSans-63" transform="translate(3113.859375 0)"/>
     <use xlink:href="#DejaVuSans-75" transform="translate(3168.839844 0)"/>
     <use xlink:href="#DejaVuSans-61" transform="translate(3232.21875 0)"/>
     <use xlink:href="#DejaVuSans-6e" transform="translate(3293.498047 0)"/>
     <use xlink:href="#DejaVuSans-64" transform="translate(3356.876953 0)"/>
     <use xlink:href="#DejaVuSans-6f" transform="translate(3420.353516 0)"/>
     <use xlink:href="#DejaVuSans-20" transform="translate(3481.535156 0)"/>
     <use xlink:href="#DejaVuSans-65" transform="translate(3513.322266 0)"/>
     <use xlink:href="#DejaVuSans-73" transform="translate(3574.845703 0)"/>
     <use xlink:href="#DejaVuSans-20" transform="translate(3626.945312 0)"/>
     <use xlink:href="#DejaVuSans-63" transform="translate(3658.732422 0)"/>
     <use xlink:href="#DejaVuSans-6f" transform="translate(3713.712891 0)"/>
     <use xlink:href="#DejaVuSans-6d" transform="translate(3774.894531 0)"/>
     <use xlink:href="#DejaVuSans-70" transform="translate(3872.306641 0)"/>
     <use xlink:href="#DejaVuSans-6c" transform="translate(3935.783203 0)"/>
     <use xlink:href="#DejaVuSans-65" transform="translate(3963.566406 0)"/>
     <use xlink:href="#DejaVuSans-6a" transform="translate(4025.089844 0)"/>
     <use xlink:href="#DejaVuSans-61" transform="translate(4052.873047 0)"/>
    </g>
   </g>
   <g id="text_3">
    <!-- Usuario: escribe una consulta -->
    <g style="fill: #ffffff" transform="translate(122.29625 143.909375) scale(0.1 -0.1)">
     <defs>
      <path id="DejaVuSans-55" d="M 556 4666 
L 1191 4666 
L 1191 1831 
Q 1191 1081 1462 751 
Q 1734 422 2344 422 
Q 2950 422 3222 751 
Q 3494 1081 3494 1831 
L 3494 4666 
L 4128 4666 
L 4128 1753 
Q 4128 841 3676 375 
Q 3225 -91 2344 -91 
Q 1459 -91 1007 375 
Q 556 841 556 1753 
L 556 4666 
z
" transform="scale(0.015625)"/>
     </defs>
     <use xlink:href="#DejaVuSans-55"/>
     <use xlink:href="#DejaVuSans-73" transform="translate(73.193359 0)"/>
     <use xlink:href="#DejaVuSans-75" transform="translate(125.292969 0)"/>
     <use xlink:href="#DejaVuSans-61" transform="translate(188.671875 0)"/>
     <use xlink:href="#DejaVuSans-72" transform="translate(249.951172 0)"/>
     <use xlink:href="#DejaVuSans-69" transform="translate(291.064453 0)"/>
     <use xlink:href="#DejaVuSans-6f" transform="translate(318.847656 0)"/>
     <use xlink:href="#DejaVuSans-3a" transform="translate(380.029297 0)"/>
     <use xlink:href="#DejaVuSans-20" transform="translate(413.720703 0)"/>
     <use xlink:href="#DejaVuSans-65" transform="translate(445.507812 0)"/>
     <use xlink:href="#DejaVuSans-73" transform="translate(507.03125 0)"/>
     <use xlink:href="#DejaVuSans-63" transform="translate(559.130859 0)"/>
     <use xlink:href="#DejaVuSans-72" transform="translate(614.111328 0)"/>
     <use xlink:href="#DejaVuSans-69" transform="translate(655.224609 0)"/>
     <use xlink:href="#DejaVuSans-62" transform="translate(683.007812 0)"/>
     <use xlink:href="#DejaVuSans-65" transform="translate(746.484375 0)"/>
     <use xlink:href="#DejaVuSans-20" transform="translate(808.007812 0)"/>
     <use xlink:href="#DejaVuSans-75" transform="translate(839.794922 0)"/>
     <use xlink:href="#DejaVuSans-6e" transform="translate(903.173828 0)"/>
     <use xlink:href="#DejaVuSans-61" transform="translate(966.552734 0)"/>
     <use xlink:href="#DejaVuSans-20" transform="translate(1027.832031 0)"/>
     <use xlink:href="#DejaVuSans-63" transform="translate(1059.619141 0)"/>
     <use xlink:href="#DejaVuSans-6f" transform="translate(1114.599609 0)"/>
     <use xlink:href="#DejaVuSans-6e" transform="translate(1175.78125 0)"/>
     <use xlink:href="#DejaVuSans-73" transform="translate(1239.160156 0)"/>
     <use xlink:href="#DejaVuSans-75" transform="translate(1291.259766 0)"/>
     <use xlink:href="#DejaVuSans-6c" transform="translate(1354.638672 0)"/>
     <use xlink:href="#DejaVuSans-74" transform="translate(1382.421875 0)"/>
     <use xlink:href="#DejaVuSans-61" transform="translate(1421.630859 0)"/>
    </g>
   </g>
   <g id="text_4">
    <!-- Sam: lee la consulta y la clasifica -->
    <g style="fill: #ffffff" transform="translate(417.162188 143.909375) scale(0.1 -0.1)">
     <defs>
      <path id="DejaVuSans-53" d="M 3425 4513 
L 3425 3897 
Q 3066 4069 2747 4153 
Q 2428 4238 2131 4238 
Q 1616 4238 1336 4038 
Q 1056 3838 1056 3469 
Q 1056 3159 1242 3001 
Q 1428 2844 1947 2747 
L 2328 2669 
Q 3034 2534 3370 2195 
Q 3706 1856 3706 1288 
Q 3706 609 3251 259 
Q 2797 -91 1919 -91 
Q 1588 -91 1214 -16 
Q 841 59 441 206 
L 441 856 
Q 825 641 1194 531 
Q 1563 422 1919 422 
Q 2459 422 2753 634 
Q 3047 847 3047 1241 
Q 3047 1584 2836 1778 
Q 2625 1972 2144 2069 
L 1759 2144 
Q 1053 2284 737 2584 
Q 422 2884 422 3419 
Q 422 4038 858 4394 
Q 1294 4750 2059 4750 
Q 2388 4750 2728 4690 
Q 3069 4631 3425 4513 
z
" transform="scale(0.015625)"/>
     </defs>
     <use xlink:href="#DejaVuSans-53"/>
     <use xlink:href="#DejaVuSans-61" transform="translate(63.476562 0)"/>
     <use xlink:href="#DejaVuSans-6d" transform="translate(124.755859 0)"/>
     <use xlink:href="#DejaVuSans-3a" transform="translate(222.167969 0)"/>
     <use xlink:href="#DejaVuSans-20" transform="translate(255.859375 0)"/>
     <use xlink:href="#DejaVuSans-6c" transform="translate(287.646484 0)"/>
     <use xlink:href="#DejaVuSans-65" transform="translate(315.429688 0)"/>
     <use xlink:href="#DejaVuSans-65" transform="translate(376.953125 0)"/>
     <use xlink:href="#DejaVuSans-20" transform="translate(438.476562 0)"/>
     <use xlink:href="#DejaVuSans-6c" transform="translate(470.263672 0)"/>
     <use xlink:href="#DejaVuSans-61" transform="translate(498.046875 0)"/>
     <use xlink:href="#DejaVuSans-20" transform="translate(559.326172 0)"/>
     <use xlink:href="#DejaVuSans-63" transform="translate(591.113281 0)"/>
     <use xlink:href="#DejaVuSans-6f" transform="translate(646.09375 0)"/>
     <use xlink:href="#DejaVuSans-6e" transform="translate(707.275391 0)"/>
     <use xlink:href="#DejaVuSans-73" transform="translate(770.654297 0)"/>
     <use xlink:href="#DejaVuSans-75" transform="translate(822.753906 0)"/>
     <use xlink:href="#DejaVuSans-6c" transform="translate(886.132812 0)"/>
     <use xlink:href="#DejaVuSans-74" transform="translate(913.916016 0)"/>
     <use xlink:href="#DejaVuSans-61" transform="translate(953.125 0)"/>
     <use xlink:href="#DejaVuSans-20" transform="translate(1014.404297 0)"/>
     <use xlink:href="#DejaVuSans-79" transform="translate(1046.191406 0)"/>
     <use xlink:href="#DejaVuSans-20" transform="translate(1105.371094 0)"/>
     <use xlink:href="#DejaVuSans-6c" transform="translate(1137.158203 0)"/>
     <use xlink:href="#DejaVuSans-61" transform="translate(1164.941406 0)"/>
     <use xlink:href="#DejaVuSans-20" transform="translate(1226.220703 0)"/>
     <use xlink:href="#DejaVuSans-63" transform="translate(1258.007812 0)"/>
     <use xlink:href="#DejaVuSans-6c" transform="translate(1312.988281 0)"/>
     <use xlink:href="#DejaVuSans-61" transform="translate(1340.771484 0)"/>
     <use xlink:href="#DejaVuSans-73" transform="translate(1402.050781 0)"/>
     <use xlink:href="#DejaVuSans-69" transform="translate(1454.150391 0)"/>
     <use xlink:href="#DejaVuSans-66" transform="translate(1481.933594 0)"/>
     <use xlink:href="#DejaVuSans-69" transform="translate(1517.138672 0)"/>
     <use xlink:href="#DejaVuSans-63" transform="translate(1544.921875 0)"/>
     <use xlink:href="#DejaVuSans-61" transform="translate(1599.902344 0)"/>
    </g>
   </g>
   <g id="text_5">
    <!-- ¿Qué tan compleja es la tarea? -->
    <g style="fill: #ffffff" transform="translate(422.578594 221.659375) scale(0.1 -0.1)">
     <defs>
      <path id="DejaVuSans-bf" d="M 1563 2247 
L 2156 2247 
L 2156 1759 
Q 2156 1444 2070 1241 
Q 1984 1038 1703 766 
L 1422 491 
Q 1241 325 1161 178 
Q 1081 31 1081 -122 
Q 1081 -400 1286 -572 
Q 1491 -744 1831 -744 
Q 2075 -744 2356 -634 
Q 2638 -525 2938 -316 
L 2938 -903 
Q 2644 -1081 2344 -1168 
Q 2044 -1256 1722 -1256 
Q 1147 -1256 797 -953 
Q 447 -650 447 -153 
Q 447 84 561 298 
Q 675 513 953 781 
L 1228 1050 
Q 1378 1197 1437 1280 
Q 1497 1363 1522 1441 
Q 1544 1506 1553 1600 
Q 1563 1694 1563 1863 
L 1563 2247 
z
M 2175 2706 
L 1544 2706 
L 1544 3500 
L 2175 3500 
L 2175 2706 
z
" transform="scale(0.015625)"/>
      <path id="DejaVuSans-51" d="M 2522 4238 
Q 1834 4238 1429 3725 
Q 1025 3213 1025 2328 
Q 1025 1447 1429 934 
Q 1834 422 2522 422 
Q 3209 422 3611 934 
Q 4013 1447 4013 2328 
Q 4013 3213 3611 3725 
Q 3209 4238 2522 4238 
z
M 3406 84 
L 4238 -825 
L 3475 -825 
L 2784 -78 
Q 2681 -84 2626 -87 
Q 2572 -91 2522 -91 
Q 1538 -91 948 567 
Q 359 1225 359 2328 
Q 359 3434 948 4092 
Q 1538 4750 2522 4750 
Q 3503 4750 4090 4092 
Q 4678 3434 4678 2328 
Q 4678 1516 4351 937 
Q 4025 359 3406 84 
z
" transform="scale(0.015625)"/>
      <path id="DejaVuSans-e9" d="M 3597 1894 
L 3597 1613 
L 953 1613 
Q 991 1019 1311 708 
Q 1631 397 2203 397 
Q 2534 397 2845 478 
Q 3156 559 3463 722 
L 3463 178 
Q 3153 47 2828 -22 
Q 2503 -91 2169 -91 
Q 1331 -91 842 396 
Q 353 884 353 1716 
Q 353 2575 817 3079 
Q 1281 3584 2069 3584 
Q 2775 3584 3186 3129 
Q 3597 2675 3597 1894 
z
M 3022 2063 
Q 3016 2534 2758 2815 
Q 2500 3097 2075 3097 
Q 1594 3097 1305 2825 
Q 1016 2553 972 2059 
L 3022 2063 
z
M 2466 5119 
L 3088 5119 
L 2070 3944 
L 1591 3944 
L 2466 5119 
z
" transform="scale(0.015625)"/>
      <path id="DejaVuSans-3f" d="M 1222 794 
L 1856 794 
L 1856 0 
L 1222 0 
L 1222 794 
z
M 1838 1253 
L 1241 1253 
L 1241 1734 
Q 1241 2050 1328 2253 
Q 1416 2456 1697 2725 
L 1978 3003 
Q 2156 3169 2236 3316 
Q 2316 3463 2316 3616 
Q 2316 3894 2111 4066 
Q 1906 4238 1569 4238 
Q 1322 4238 1042 4128 
Q 763 4019 459 3809 
L 459 4397 
Q 753 4575 1054 4662 
Q 1356 4750 1678 4750 
Q 2253 4750 2601 4447 
Q 2950 4144 2950 3647 
Q 2950 3409 2837 3195 
Q 2725 2981 2444 2713 
L 2169 2444 
Q 2022 2297 1961 2214 
Q 1900 2131 1875 2053 
Q 1856 1988 1847 1894 
Q 1838 1800 1838 1638 
L 1838 1253 
z
" transform="scale(0.015625)"/>
     </defs>
     <use xlink:href="#DejaVuSans-bf"/>
     <use xlink:href="#DejaVuSans-51" transform="translate(53.076172 0)"/>
     <use xlink:href="#DejaVuSans-75" transform="translate(131.787109 0)"/>
     <use xlink:href="#DejaVuSans-e9" transform="translate(195.166016 0)"/>
     <use xlink:href="#DejaVuSans-20" transform="translate(256.689453 0)"/>
     <use xlink:href="#DejaVuSans-74" transform="translate(288.476562 0)"/>
     <use xlink:href="#DejaVuSans-61" transform="translate(327.685547 0)"/>
     <use xlink:href="#DejaVuSans-6e" transform="translate(388.964844 0)"/>
     <use xlink:href="#DejaVuSans-20" transform="translate(452.34375 0)"/>
     <use xlink:href="#DejaVuSans-63" transform="translate(484.130859 0)"/>
     <use xlink:href="#DejaVuSans-6f" transform="translate(539.111328 0)"/>
     <use xlink:href="#DejaVuSans-6d" transform="translate(600.292969 0)"/>
     <use xlink:href="#DejaVuSans-70" transform="translate(697.705078 0)"/>
     <use xlink:href="#DejaVuSans-6c" transform="translate(761.181641 0)"/>
     <use xlink:href="#DejaVuSans-65" transform="translate(788.964844 0)"/>
     <use xlink:href="#DejaVuSans-6a" transform="translate(850.488281 0)"/>
     <use xlink:href="#DejaVuSans-61" transform="translate(878.271484 0)"/>
     <use xlink:href="#DejaVuSans-20" transform="translate(939.550781 0)"/>
     <use xlink:href="#DejaVuSans-65" transform="translate(971.337891 0)"/>
     <use xlink:href="#DejaVuSans-73" transform="translate(1032.861328 0)"/>
     <use xlink:href="#DejaVuSans-20" transform="translate(1084.960938 0)"/>
     <use xlink:href="#DejaVuSans-6c" transform="translate(1116.748047 0)"/>
     <use xlink:href="#DejaVuSans-61" transform="translate(1144.53125 0)"/>
     <use xlink:href="#DejaVuSans-20" transform="translate(1205.810547 0)"/>
     <use xlink:href="#DejaVuSans-74" transform="translate(1237.597656 0)"/>
     <use xlink:href="#DejaVuSans-61" transform="translate(1276.806641 0)"/>
     <use xlink:href="#DejaVuSans-72" transform="translate(1338.085938 0)"/>
     <use xlink:href="#DejaVuSans-65" transform="translate(1376.949219 0)"/>
     <use xlink:href="#DejaVuSans-61" transform="translate(1438.472656 0)"/>
     <use xlink:href="#DejaVuSans-3f" transform="translate(1499.751953 0)"/>
    </g>
   </g>
   <g id="text_6">
    <!-- Gemini 2.5 Flash-Lite -->
    <g style="fill: #ffffff" transform="translate(188.244375 320.471563) scale(0.1 -0.1)">
     <defs>
      <path id="DejaVuSans-47" d="M 3809 666 
L 3809 1919 
L 2778 1919 
L 2778 2438 
L 4434 2438 
L 4434 434 
Q 4069 175 3628 42 
Q 3188 -91 2688 -91 
Q 1594 -91 976 548 
Q 359 1188 359 2328 
Q 359 3472 976 4111 
Q 1594 4750 2688 4750 
Q 3144 4750 3555 4637 
Q 3966 4525 4313 4306 
L 4313 3634 
Q 3963 3931 3569 4081 
Q 3175 4231 2741 4231 
Q 1884 4231 1454 3753 
Q 1025 3275 1025 2328 
Q 1025 1384 1454 906 
Q 1884 428 2741 428 
Q 3075 428 3337 486 
Q 3600 544 3809 666 
z
" transform="scale(0.015625)"/>
      <path id="DejaVuSans-32" d="M 1228 531 
L 3431 531 
L 3431 0 
L 469 0 
L 469 531 
Q 828 903 1448 1529 
Q 2069 2156 2228 2338 
Q 2531 2678 2651 2914 
Q 2772 3150 2772 3378 
Q 2772 3750 2511 3984 
Q 2250 4219 1831 4219 
Q 1534 4219 1204 4116 
Q 875 4013 500 3803 
L 500 4441 
Q 881 4594 1212 4672 
Q 1544 4750 1819 4750 
Q 2544 4750 2975 4387 
Q 3406 4025 3406 3419 
Q 3406 3131 3298 2873 
Q 3191 2616 2906 2266 
Q 2828 2175 2409 1742 
Q 1991 1309 1228 531 
z
" transform="scale(0.015625)"/>
      <path id="DejaVuSans-2e" d="M 684 794 
L 1344 794 
L 1344 0 
L 684 0 
L 684 794 
z
" transform="scale(0.015625)"/>
      <path id="DejaVuSans-35" d="M 691 4666 
L 3169 4666 
L 3169 4134 
L 1269 4134 
L 1269 2991 
Q 1406 3038 1543 3061 
Q 1681 3084 1819 3084 
Q 2600 3084 3056 2656 
Q 3513 2228 3513 1497 
Q 3513 744 3044 326 
Q 2575 -91 1722 -91 
Q 1428 -91 1123 -41 
Q 819 9 494 109 
L 494 744 
Q 775 591 1075 516 
Q 1375 441 1709 441 
Q 2250 441 2565 725 
Q 2881 1009 2881 1497 
Q 2881 1984 2565 2268 
Q 2250 2553 1709 2553 
Q 1456 2553 1204 2497 
Q 953 2441 691 2322 
L 691 4666 
z
" transform="scale(0.015625)"/>
      <path id="DejaVuSans-46" d="M 628 4666 
L 3309 4666 
L 3309 4134 
L 1259 4134 
L 1259 2759 
L 3109 2759 
L 3109 2228 
L 1259 2228 
L 1259 0 
L 628 0 
L 628 4666 
z
" transform="scale(0.015625)"/>
      <path id="DejaVuSans-68" d="M 3513 2113 
L 3513 0 
L 2938 0 
L 2938 2094 
Q 2938 2591 2744 2837 
Q 2550 3084 2163 3084 
Q 1697 3084 1428 2787 
Q 1159 2491 1159 1978 
L 1159 0 
L 581 0 
L 581 4863 
L 1159 4863 
L 1159 2956 
Q 1366 3272 1645 3428 
Q 1925 3584 2291 3584 
Q 2894 3584 3203 3211 
Q 3513 2838 3513 2113 
z
" transform="scale(0.015625)"/>
      <path id="DejaVuSans-2d" d="M 313 2009 
L 1997 2009 
L 1997 1497 
L 313 1497 
L 313 2009 
z
" transform="scale(0.015625)"/>
      <path id="DejaVuSans-4c" d="M 628 4666 
L 1259 4666 
L 1259 531 
L 3531 531 
L 3531 0 
L 628 0 
L 628 4666 
z
" transform="scale(0.015625)"/>
     </defs>
     <use xlink:href="#DejaVuSans-47"/>
     <use xlink:href="#DejaVuSans-65" transform="translate(77.490234 0)"/>
     <use xlink:href="#DejaVuSans-6d" transform="translate(139.013672 0)"/>
     <use xlink:href="#DejaVuSans-69" transform="translate(236.425781 0)"/>
     <use xlink:href="#DejaVuSans-6e" transform="translate(264.208984 0)"/>
     <use xlink:href="#DejaVuSans-69" transform="translate(327.587891 0)"/>
     <use xlink:href="#DejaVuSans-20" transform="translate(355.371094 0)"/>
     <use xlink:href="#DejaVuSans-32" transform="translate(387.158203 0)"/>
     <use xlink:href="#DejaVuSans-2e" transform="translate(450.78125 0)"/>
     <use xlink:href="#DejaVuSans-35" transform="translate(482.568359 0)"/>
     <use xlink:href="#DejaVuSans-20" transform="translate(546.191406 0)"/>
     <use xlink:href="#DejaVuSans-46" transform="translate(577.978516 0)"/>
     <use xlink:href="#DejaVuSans-6c" transform="translate(635.498047 0)"/>
     <use xlink:href="#DejaVuSans-61" transform="translate(663.28125 0)"/>
     <use xlink:href="#DejaVuSans-73" transform="translate(724.560547 0)"/>
     <use xlink:href="#DejaVuSans-68" transform="translate(776.660156 0)"/>
     <use xlink:href="#DejaVuSans-2d" transform="translate(840.039062 0)"/>
     <use xlink:href="#DejaVuSans-4c" transform="translate(876.123047 0)"/>
     <use xlink:href="#DejaVuSans-69" transform="translate(931.835938 0)"/>
     <use xlink:href="#DejaVuSans-74" transform="translate(959.619141 0)"/>
     <use xlink:href="#DejaVuSans-65" transform="translate(998.828125 0)"/>
    </g>
    <!-- Rápido y económico -->
    <g style="fill: #ffffff" transform="translate(190.718594 332.149375) scale(0.1 -0.1)">
     <defs>
      <path id="DejaVuSans-52" d="M 2841 2188 
Q 3044 2119 3236 1894 
Q 3428 1669 3622 1275 
L 4263 0 
L 3584 0 
L 2988 1197 
Q 2756 1666 2539 1819 
Q 2322 1972 1947 1972 
L 1259 1972 
L 1259 0 
L 628 0 
L 628 4666 
L 2053 4666 
Q 2853 4666 3247 4331 
Q 3641 3997 3641 3322 
Q 3641 2881 3436 2590 
Q 3231 2300 2841 2188 
z
M 1259 4147 
L 1259 2491 
L 2053 2491 
Q 2509 2491 2742 2702 
Q 2975 2913 2975 3322 
Q 2975 3731 2742 3939 
Q 2509 4147 2053 4147 
L 1259 4147 
z
" transform="scale(0.015625)"/>
      <path id="DejaVuSans-f3" d="M 1959 3097 
Q 1497 3097 1228 2736 
Q 959 2375 959 1747 
Q 959 1119 1226 758 
Q 1494 397 1959 397 
Q 2419 397 2687 759 
Q 2956 1122 2956 1747 
Q 2956 2369 2687 2733 
Q 2419 3097 1959 3097 
z
M 1959 3584 
Q 2709 3584 3137 3096 
Q 3566 2609 3566 1747 
Q 3566 888 3137 398 
Q 2709 -91 1959 -91 
Q 1206 -91 779 398 
Q 353 888 353 1747 
Q 353 2609 779 3096 
Q 1206 3584 1959 3584 
z
M 2394 5119 
L 3016 5119 
L 1998 3944 
L 1519 3944 
L 2394 5119 
z
" transform="scale(0.015625)"/>
     </defs>
     <use xlink:href="#DejaVuSans-52"/>
     <use xlink:href="#DejaVuSans-e1" transform="translate(67.232422 0)"/>
     <use xlink:href="#DejaVuSans-70" transform="translate(128.511719 0)"/>
     <use xlink:href="#DejaVuSans-69" transform="translate(191.988281 0)"/>
     <use xlink:href="#DejaVuSans-64" transform="translate(219.771484 0)"/>
     <use xlink:href="#DejaVuSans-6f" transform="translate(283.248047 0)"/>
     <use xlink:href="#DejaVuSans-20" transform="translate(344.429688 0)"/>
     <use xlink:href="#DejaVuSans-79" transform="translate(376.216797 0)"/>
     <use xlink:href="#DejaVuSans-20" transform="translate(435.396484 0)"/>
     <use xlink:href="#DejaVuSans-65" transform="translate(467.183594 0)"/>
     <use xlink:href="#DejaVuSans-63" transform="translate(528.707031 0)"/>
     <use xlink:href="#DejaVuSans-6f" transform="translate(583.6875 0)"/>
     <use xlink:href="#DejaVuSans-6e" transform="translate(644.869141 0)"/>
     <use xlink:href="#DejaVuSans-f3" transform="translate(708.248047 0)"/>
     <use xlink:href="#DejaVuSans-6d" transform="translate(769.429688 0)"/>
     <use xlink:href="#DejaVuSans-69" transform="translate(866.841797 0)"/>
     <use xlink:href="#DejaVuSans-63" transform="translate(894.625 0)"/>
     <use xlink:href="#DejaVuSans-6f" transform="translate(949.605469 0)"/>
    </g>
    <!-- Para saludos, preguntas breves, tareas simples -->
    <g style="fill: #ffffff" transform="translate(123.108438 343.347188) scale(0.1 -0.1)">
     <defs>
      <path id="DejaVuSans-50" d="M 1259 4147 
L 1259 2394 
L 2053 2394 
Q 2494 2394 2734 2622 
Q 2975 2850 2975 3272 
Q 2975 3691 2734 3919 
Q 2494 4147 2053 4147 
L 1259 4147 
z
M 628 4666 
L 2053 4666 
Q 2838 4666 3239 4311 
Q 3641 3956 3641 3272 
Q 3641 2581 3239 2228 
Q 2838 1875 2053 1875 
L 1259 1875 
L 1259 0 
L 628 0 
L 628 4666 
z
" transform="scale(0.015625)"/>
      <path id="DejaVuSans-67" d="M 2906 1791 
Q 2906 2416 2648 2759 
Q 2391 3103 1925 3103 
Q 1463 3103 1205 2759 
Q 947 2416 947 1791 
Q 947 1169 1205 825 
Q 1463 481 1925 481 
Q 2391 481 2648 825 
Q 2906 1169 2906 1791 
z
M 3481 434 
Q 3481 -459 3084 -895 
Q 2688 -1331 1869 -1331 
Q 1566 -1331 1297 -1286 
Q 1028 -1241 775 -1147 
L 775 -588 
Q 1028 -725 1275 -790 
Q 1522 -856 1778 -856 
Q 2344 -856 2625 -561 
Q 2906 -266 2906 331 
L 2906 616 
Q 2728 306 2450 153 
Q 2172 0 1784 0 
Q 1141 0 747 490 
Q 353 981 353 1791 
Q 353 2603 747 3093 
Q 1141 3584 1784 3584 
Q 2172 3584 2450 3431 
Q 2728 3278 2906 2969 
L 2906 3500 
L 3481 3500 
L 3481 434 
z
" transform="scale(0.015625)"/>
     </defs>
     <use xlink:href="#DejaVuSans-50"/>
     <use xlink:href="#DejaVuSans-61" transform="translate(55.802734 0)"/>
     <use xlink:href="#DejaVuSans-72" transform="translate(117.082031 0)"/>
     <use xlink:href="#DejaVuSans-61" transform="translate(158.195312 0)"/>
     <use xlink:href="#DejaVuSans-20" transform="translate(219.474609 0)"/>
     <use xlink:href="#DejaVuSans-73" transform="translate(251.261719 0)"/>
     <use xlink:href="#DejaVuSans-61" transform="translate(303.361328 0)"/>
     <use xlink:href="#DejaVuSans-6c" transform="translate(364.640625 0)"/>
     <use xlink:href="#DejaVuSans-75" transform="translate(392.423828 0)"/>
     <use xlink:href="#DejaVuSans-64" transform="translate(455.802734 0)"/>
     <use xlink:href="#DejaVuSans-6f" transform="translate(519.279297 0)"/>
     <use xlink:href="#DejaVuSans-73" transform="translate(580.460938 0)"/>
     <use xlink:href="#DejaVuSans-2c" transform="translate(632.560547 0)"/>
     <use xlink:href="#DejaVuSans-20" transform="translate(664.347656 0)"/>
     <use xlink:href="#DejaVuSans-70" transform="translate(696.134766 0)"/>
     <use xlink:href="#DejaVuSans-72" transform="translate(759.611328 0)"/>
     <use xlink:href="#DejaVuSans-65" transform="translate(798.474609 0)"/>
     <use xlink:href="#DejaVuSans-67" transform="translate(859.998047 0)"/>
     <use xlink:href="#DejaVuSans-75" transform="translate(923.474609 0)"/>
     <use xlink:href="#DejaVuSans-6e" transform="translate(986.853516 0)"/>
     <use xlink:href="#DejaVuSans-74" transform="translate(1050.232422 0)"/>
     <use xlink:href="#DejaVuSans-61" transform="translate(1089.441406 0)"/>
     <use xlink:href="#DejaVuSans-73" transform="translate(1150.720703 0)"/>
     <use xlink:href="#DejaVuSans-20" transform="translate(1202.820312 0)"/>
     <use xlink:href="#DejaVuSans-62" transform="translate(1234.607422 0)"/>
     <use xlink:href="#DejaVuSans-72" transform="translate(1298.083984 0)"/>
     <use xlink:href="#DejaVuSans-65" transform="translate(1336.947266 0)"/>
     <use xlink:href="#DejaVuSans-76" transform="translate(1398.470703 0)"/>
     <use xlink:href="#DejaVuSans-65" transform="translate(1457.650391 0)"/>
     <use xlink:href="#DejaVuSans-73" transform="translate(1519.173828 0)"/>
     <use xlink:href="#DejaVuSans-2c" transform="translate(1571.273438 0)"/>
     <use xlink:href="#DejaVuSans-20" transform="translate(1603.060547 0)"/>
     <use xlink:href="#DejaVuSans-74" transform="translate(1634.847656 0)"/>
     <use xlink:href="#DejaVuSans-61" transform="translate(1674.056641 0)"/>
     <use xlink:href="#DejaVuSans-72" transform="translate(1735.335938 0)"/>
     <use xlink:href="#DejaVuSans-65" transform="translate(1774.199219 0)"/>
     <use xlink:href="#DejaVuSans-61" transform="translate(1835.722656 0)"/>
     <use xlink:href="#DejaVuSans-73" transform="translate(1897.001953 0)"/>
     <use xlink:href="#DejaVuSans-20" transform="translate(1949.101562 0)"/>
     <use xlink:href="#DejaVuSans-73" transform="translate(1980.888672 0)"/>
     <use xlink:href="#DejaVuSans-69" transform="translate(2032.988281 0)"/>
     <use xlink:href="#DejaVuSans-6d" transform="translate(2060.771484 0)"/>
     <use xlink:href="#DejaVuSans-70" transform="translate(2158.183594 0)"/>
     <use xlink:href="#DejaVuSans-6c" transform="translate(2221.660156 0)"/>
     <use xlink:href="#DejaVuSans-65" transform="translate(2249.443359 0)"/>
     <use xlink:href="#DejaVuSans-73" transform="translate(2310.966797 0)"/>
    </g>
   </g>
   <g id="text_7">
    <!-- Gemini 2.5 Flash -->
    <g style="fill: #ffffff" transform="translate(463.2 320.471563) scale(0.1 -0.1)">
     <use xlink:href="#DejaVuSans-47"/>
     <use xlink:href="#DejaVuSans-65" transform="translate(77.490234 0)"/>
     <use xlink:href="#DejaVuSans-6d" transform="translate(139.013672 0)"/>
     <use xlink:href="#DejaVuSans-69" transform="translate(236.425781 0)"/>
     <use xlink:href="#DejaVuSans-6e" transform="translate(264.208984 0)"/>
     <use xlink:href="#DejaVuSans-69" transform="translate(327.587891 0)"/>
     <use xlink:href="#DejaVuSans-20" transform="translate(355.371094 0)"/>
     <use xlink:href="#DejaVuSans-32" transform="translate(387.158203 0)"/>
     <use xlink:href="#DejaVuSans-2e" transform="translate(450.78125 0)"/>
     <use xlink:href="#DejaVuSans-35" transform="translate(482.568359 0)"/>
     <use xlink:href="#DejaVuSans-20" transform="translate(546.191406 0)"/>
     <use xlink:href="#DejaVuSans-46" transform="translate(577.978516 0)"/>
     <use xlink:href="#DejaVuSans-6c" transform="translate(635.498047 0)"/>
     <use xlink:href="#DejaVuSans-61" transform="translate(663.28125 0)"/>
     <use xlink:href="#DejaVuSans-73" transform="translate(724.560547 0)"/>
     <use xlink:href="#DejaVuSans-68" transform="translate(776.660156 0)"/>
    </g>
    <!-- Equilibrado (velocidad + calidad) -->
    <g style="fill: #ffffff" transform="translate(422.105469 331.669375) scale(0.1 -0.1)">
     <defs>
      <path id="DejaVuSans-45" d="M 628 4666 
L 3578 4666 
L 3578 4134 
L 1259 4134 
L 1259 2753 
L 3481 2753 
L 3481 2222 
L 1259 2222 
L 1259 531 
L 3634 531 
L 3634 0 
L 628 0 
L 628 4666 
z
" transform="scale(0.015625)"/>
      <path id="DejaVuSans-71" d="M 947 1747 
Q 947 1113 1208 752 
Q 1469 391 1925 391 
Q 2381 391 2643 752 
Q 2906 1113 2906 1747 
Q 2906 2381 2643 2742 
Q 2381 3103 1925 3103 
Q 1469 3103 1208 2742 
Q 947 2381 947 1747 
z
M 2906 525 
Q 2725 213 2448 61 
Q 2172 -91 1784 -91 
Q 1150 -91 751 415 
Q 353 922 353 1747 
Q 353 2572 751 3078 
Q 1150 3584 1784 3584 
Q 2172 3584 2448 3432 
Q 2725 3281 2906 2969 
L 2906 3500 
L 3481 3500 
L 3481 -1331 
L 2906 -1331 
L 2906 525 
z
" transform="scale(0.015625)"/>
      <path id="DejaVuSans-28" d="M 1984 4856 
Q 1566 4138 1362 3434 
Q 1159 2731 1159 2009 
Q 1159 1288 1364 580 
Q 1569 -128 1984 -844 
L 1484 -844 
Q 1016 -109 783 600 
Q 550 1309 550 2009 
Q 550 2706 781 3412 
Q 1013 4119 1484 4856 
L 1984 4856 
z
" transform="scale(0.015625)"/>
      <path id="DejaVuSans-2b" d="M 2944 4013 
L 2944 2272 
L 4684 2272 
L 4684 1741 
L 2944 1741 
L 2944 0 
L 2419 0 
L 2419 1741 
L 678 1741 
L 678 2272 
L 2419 2272 
L 2419 4013 
L 2944 4013 
z
" transform="scale(0.015625)"/>
      <path id="DejaVuSans-29" d="M 513 4856 
L 1013 4856 
Q 1481 4119 1714 3412 
Q 1947 2706 1947 2009 
Q 1947 1309 1714 600 
Q 1481 -109 1013 -844 
L 513 -844 
Q 928 -128 1133 580 
Q 1338 1288 1338 2009 
Q 1338 2731 1133 3434 
Q 928 4138 513 4856 
z
" transform="scale(0.015625)"/>
     </defs>
     <use xlink:href="#DejaVuSans-45"/>
     <use xlink:href="#DejaVuSans-71" transform="translate(63.183594 0)"/>
     <use xlink:href="#DejaVuSans-75" transform="translate(126.660156 0)"/>
     <use xlink:href="#DejaVuSans-69" transform="translate(190.039062 0)"/>
     <use xlink:href="#DejaVuSans-6c" transform="translate(217.822266 0)"/>
     <use xlink:href="#DejaVuSans-69" transform="translate(245.605469 0)"/>
     <use xlink:href="#DejaVuSans-62" transform="translate(273.388672 0)"/>
     <use xlink:href="#DejaVuSans-72" transform="translate(336.865234 0)"/>
     <use xlink:href="#DejaVuSans-61" transform="translate(377.978516 0)"/>
     <use xlink:href="#DejaVuSans-64" transform="translate(439.257812 0)"/>
     <use xlink:href="#DejaVuSans-6f" transform="translate(502.734375 0)"/>
     <use xlink:href="#DejaVuSans-20" transform="translate(563.916016 0)"/>
     <use xlink:href="#DejaVuSans-28" transform="translate(595.703125 0)"/>
     <use xlink:href="#DejaVuSans-76" transform="translate(634.716797 0)"/>
     <use xlink:href="#DejaVuSans-65" transform="translate(693.896484 0)"/>
     <use xlink:href="#DejaVuSans-6c" transform="translate(755.419922 0)"/>
     <use xlink:href="#DejaVuSans-6f" transform="translate(783.203125 0)"/>
     <use xlink:href="#DejaVuSans-63" transform="translate(844.384766 0)"/>
     <use xlink:href="#DejaVuSans-69" transform="translate(899.365234 0)"/>
     <use xlink:href="#DejaVuSans-64" transform="translate(927.148438 0)"/>
     <use xlink:href="#DejaVuSans-61" transform="translate(990.625 0)"/>
     <use xlink:href="#DejaVuSans-64" transform="translate(1051.904297 0)"/>
     <use xlink:href="#DejaVuSans-20" transform="translate(1115.380859 0)"/>
     <use xlink:href="#DejaVuSans-2b" transform="translate(1147.167969 0)"/>
     <use xlink:href="#DejaVuSans-20" transform="translate(1230.957031 0)"/>
     <use xlink:href="#DejaVuSans-63" transform="translate(1262.744141 0)"/>
     <use xlink:href="#DejaVuSans-61" transform="translate(1317.724609 0)"/>
     <use xlink:href="#DejaVuSans-6c" transform="translate(1379.003906 0)"/>
     <use xlink:href="#DejaVuSans-69" transform="translate(1406.787109 0)"/>
     <use xlink:href="#DejaVuSans-64" transform="translate(1434.570312 0)"/>
     <use xlink:href="#DejaVuSans-61" transform="translate(1498.046875 0)"/>
     <use xlink:href="#DejaVuSans-64" transform="translate(1559.326172 0)"/>
     <use xlink:href="#DejaVuSans-29" transform="translate(1622.802734 0)"/>
    </g>
    <!-- Para búsquedas normales y resúmenes -->
    <g style="fill: #ffffff" transform="translate(406.910156 343.347188) scale(0.1 -0.1)">
     <defs>
      <path id="DejaVuSans-fa" d="M 544 1381 
L 544 3500 
L 1119 3500 
L 1119 1403 
Q 1119 906 1312 657 
Q 1506 409 1894 409 
Q 2359 409 2629 706 
Q 2900 1003 2900 1516 
L 2900 3500 
L 3475 3500 
L 3475 0 
L 2900 0 
L 2900 538 
Q 2691 219 2414 64 
Q 2138 -91 1772 -91 
Q 1169 -91 856 284 
Q 544 659 544 1381 
z
M 1991 3584 
L 1991 3584 
z
M 2418 5119 
L 3040 5119 
L 2022 3944 
L 1543 3944 
L 2418 5119 
z
" transform="scale(0.015625)"/>
     </defs>
     <use xlink:href="#DejaVuSans-50"/>
     <use xlink:href="#DejaVuSans-61" transform="translate(55.802734 0)"/>
     <use xlink:href="#DejaVuSans-72" transform="translate(117.082031 0)"/>
     <use xlink:href="#DejaVuSans-61" transform="translate(158.195312 0)"/>
     <use xlink:href="#DejaVuSans-20" transform="translate(219.474609 0)"/>
     <use xlink:href="#DejaVuSans-62" transform="translate(251.261719 0)"/>
     <use xlink:href="#DejaVuSans-fa" transform="translate(314.738281 0)"/>
     <use xlink:href="#DejaVuSans-73" transform="translate(378.117188 0)"/>
     <use xlink:href="#DejaVuSans-71" transform="translate(430.216797 0)"/>
     <use xlink:href="#DejaVuSans-75" transform="translate(493.693359 0)"/>
     <use xlink:href="#DejaVuSans-65" transform="translate(557.072266 0)"/>
     <use xlink:href="#DejaVuSans-64" transform="translate(618.595703 0)"/>
     <use xlink:href="#DejaVuSans-61" transform="translate(682.072266 0)"/>
     <use xlink:href="#DejaVuSans-73" transform="translate(743.351562 0)"/>
     <use xlink:href="#DejaVuSans-20" transform="translate(795.451172 0)"/>
     <use xlink:href="#DejaVuSans-6e" transform="translate(827.238281 0)"/>
     <use xlink:href="#DejaVuSans-6f" transform="translate(890.617188 0)"/>
     <use xlink:href="#DejaVuSans-72" transform="translate(951.798828 0)"/>
     <use xlink:href="#DejaVuSans-6d" transform="translate(991.162109 0)"/>
     <use xlink:href="#DejaVuSans-61" transform="translate(1088.574219 0)"/>
     <use xlink:href="#DejaVuSans-6c" transform="translate(1149.853516 0)"/>
     <use xlink:href="#DejaVuSans-65" transform="translate(1177.636719 0)"/>
     <use xlink:href="#DejaVuSans-73" transform="translate(1239.160156 0)"/>
     <use xlink:href="#DejaVuSans-20" transform="translate(1291.259766 0)"/>
     <use xlink:href="#DejaVuSans-79" transform="translate(1323.046875 0)"/>
     <use xlink:href="#DejaVuSans-20" transform="translate(1382.226562 0)"/>
     <use xlink:href="#DejaVuSans-72" transform="translate(1414.013672 0)"/>
     <use xlink:href="#DejaVuSans-65" transform="translate(1452.876953 0)"/>
     <use xlink:href="#DejaVuSans-73" transform="translate(1514.400391 0)"/>
     <use xlink:href="#DejaVuSans-fa" transform="translate(1566.5 0)"/>
     <use xlink:href="#DejaVuSans-6d" transform="translate(1629.878906 0)"/>
     <use xlink:href="#DejaVuSans-65" transform="translate(1727.291016 0)"/>
     <use xlink:href="#DejaVuSans-6e" transform="translate(1788.814453 0)"/>
     <use xlink:href="#DejaVuSans-65" transform="translate(1852.193359 0)"/>
     <use xlink:href="#DejaVuSans-73" transform="translate(1913.716797 0)"/>
    </g>
   </g>
   <g id="text_8">
    <!-- Gemini 2.5 Pro -->
    <g style="fill: #ffffff" transform="translate(757.212656 320.471563) scale(0.1 -0.1)">
     <use xlink:href="#DejaVuSans-47"/>
     <use xlink:href="#DejaVuSans-65" transform="translate(77.490234 0)"/>
     <use xlink:href="#DejaVuSans-6d" transform="translate(139.013672 0)"/>
     <use xlink:href="#DejaVuSans-69" transform="translate(236.425781 0)"/>
     <use xlink:href="#DejaVuSans-6e" transform="translate(264.208984 0)"/>
     <use xlink:href="#DejaVuSans-69" transform="translate(327.587891 0)"/>
     <use xlink:href="#DejaVuSans-20" transform="translate(355.371094 0)"/>
     <use xlink:href="#DejaVuSans-32" transform="translate(387.158203 0)"/>
     <use xlink:href="#DejaVuSans-2e" transform="translate(450.78125 0)"/>
     <use xlink:href="#DejaVuSans-35" transform="translate(482.568359 0)"/>
     <use xlink:href="#DejaVuSans-20" transform="translate(546.191406 0)"/>
     <use xlink:href="#DejaVuSans-50" transform="translate(577.978516 0)"/>
     <use xlink:href="#DejaVuSans-72" transform="translate(636.53125 0)"/>
     <use xlink:href="#DejaVuSans-6f" transform="translate(675.394531 0)"/>
    </g>
    <!-- Mayor razonamiento y precisión -->
    <g style="fill: #ffffff" transform="translate(713.747031 332.149375) scale(0.1 -0.1)">
     <defs>
      <path id="DejaVuSans-4d" d="M 628 4666 
L 1569 4666 
L 2759 1491 
L 3956 4666 
L 4897 4666 
L 4897 0 
L 4281 0 
L 4281 4097 
L 3078 897 
L 2444 897 
L 1241 4097 
L 1241 0 
L 628 0 
L 628 4666 
z
" transform="scale(0.015625)"/>
      <path id="DejaVuSans-7a" d="M 353 3500 
L 3084 3500 
L 3084 2975 
L 922 459 
L 3084 459 
L 3084 0 
L 275 0 
L 275 525 
L 2438 3041 
L 353 3041 
L 353 3500 
z
" transform="scale(0.015625)"/>
     </defs>
     <use xlink:href="#DejaVuSans-4d"/>
     <use xlink:href="#DejaVuSans-61" transform="translate(86.279297 0)"/>
     <use xlink:href="#DejaVuSans-79" transform="translate(147.558594 0)"/>
     <use xlink:href="#DejaVuSans-6f" transform="translate(206.738281 0)"/>
     <use xlink:href="#DejaVuSans-72" transform="translate(267.919922 0)"/>
     <use xlink:href="#DejaVuSans-20" transform="translate(309.033203 0)"/>
     <use xlink:href="#DejaVuSans-72" transform="translate(340.820312 0)"/>
     <use xlink:href="#DejaVuSans-61" transform="translate(381.933594 0)"/>
     <use xlink:href="#DejaVuSans-7a" transform="translate(443.212891 0)"/>
     <use xlink:href="#DejaVuSans-6f" transform="translate(495.703125 0)"/>
     <use xlink:href="#DejaVuSans-6e" transform="translate(556.884766 0)"/>
     <use xlink:href="#DejaVuSans-61" transform="translate(620.263672 0)"/>
     <use xlink:href="#DejaVuSans-6d" transform="translate(681.542969 0)"/>
     <use xlink:href="#DejaVuSans-69" transform="translate(778.955078 0)"/>
     <use xlink:href="#DejaVuSans-65" transform="translate(806.738281 0)"/>
     <use xlink:href="#DejaVuSans-6e" transform="translate(868.261719 0)"/>
     <use xlink:href="#DejaVuSans-74" transform="translate(931.640625 0)"/>
     <use xlink:href="#DejaVuSans-6f" transform="translate(970.849609 0)"/>
     <use xlink:href="#DejaVuSans-20" transform="translate(1032.03125 0)"/>
     <use xlink:href="#DejaVuSans-79" transform="translate(1063.818359 0)"/>
     <use xlink:href="#DejaVuSans-20" transform="translate(1122.998047 0)"/>
     <use xlink:href="#DejaVuSans-70" transform="translate(1154.785156 0)"/>
     <use xlink:href="#DejaVuSans-72" transform="translate(1218.261719 0)"/>
     <use xlink:href="#DejaVuSans-65" transform="translate(1257.125 0)"/>
     <use xlink:href="#DejaVuSans-63" transform="translate(1318.648438 0)"/>
     <use xlink:href="#DejaVuSans-69" transform="translate(1373.628906 0)"/>
     <use xlink:href="#DejaVuSans-73" transform="translate(1401.412109 0)"/>
     <use xlink:href="#DejaVuSans-69" transform="translate(1453.511719 0)"/>
     <use xlink:href="#DejaVuSans-f3" transform="translate(1481.294922 0)"/>
     <use xlink:href="#DejaVuSans-6e" transform="translate(1542.476562 0)"/>
    </g>
    <!-- Para consultas complejas o largas -->
    <g style="fill: #ffffff" transform="translate(709.241563 343.347188) scale(0.1 -0.1)">
     <use xlink:href="#DejaVuSans-50"/>
     <use xlink:href="#DejaVuSans-61" transform="translate(55.802734 0)"/>
     <use xlink:href="#DejaVuSans-72" transform="translate(117.082031 0)"/>
     <use xlink:href="#DejaVuSans-61" transform="translate(158.195312 0)"/>
     <use xlink:href="#DejaVuSans-20" transform="translate(219.474609 0)"/>
     <use xlink:href="#DejaVuSans-63" transform="translate(251.261719 0)"/>
     <use xlink:href="#DejaVuSans-6f" transform="translate(306.242188 0)"/>
     <use xlink:href="#DejaVuSans-6e" transform="translate(367.423828 0)"/>
     <use xlink:href="#DejaVuSans-73" transform="translate(430.802734 0)"/>
     <use xlink:href="#DejaVuSans-75" transform="translate(482.902344 0)"/>
     <use xlink:href="#DejaVuSans-6c" transform="translate(546.28125 0)"/>
     <use xlink:href="#DejaVuSans-74" transform="translate(574.064453 0)"/>
     <use xlink:href="#DejaVuSans-61" transform="translate(613.273438 0)"/>
     <use xlink:href="#DejaVuSans-73" transform="translate(674.552734 0)"/>
     <use xlink:href="#DejaVuSans-20" transform="translate(726.652344 0)"/>
     <use xlink:href="#DejaVuSans-63" transform="translate(758.439453 0)"/>
     <use xlink:href="#DejaVuSans-6f" transform="translate(813.419922 0)"/>
     <use xlink:href="#DejaVuSans-6d" transform="translate(874.601562 0)"/>
     <use xlink:href="#DejaVuSans-70" transform="translate(972.013672 0)"/>
     <use xlink:href="#DejaVuSans-6c" transform="translate(1035.490234 0)"/>
     <use xlink:href="#DejaVuSans-65" transform="translate(1063.273438 0)"/>
     <use xlink:href="#DejaVuSans-6a" transform="translate(1124.796875 0)"/>
     <use xlink:href="#DejaVuSans-61" transform="translate(1152.580078 0)"/>
     <use xlink:href="#DejaVuSans-73" transform="translate(1213.859375 0)"/>
     <use xlink:href="#DejaVuSans-20" transform="translate(1265.958984 0)"/>
     <use xlink:href="#DejaVuSans-6f" transform="translate(1297.746094 0)"/>
     <use xlink:href="#DejaVuSans-20" transform="translate(1358.927734 0)"/>
     <use xlink:href="#DejaVuSans-6c" transform="translate(1390.714844 0)"/>
     <use xlink:href="#DejaVuSans-61" transform="translate(1418.498047 0)"/>
     <use xlink:href="#DejaVuSans-72" transform="translate(1479.777344 0)"/>
     <use xlink:href="#DejaVuSans-67" transform="translate(1519.140625 0)"/>
     <use xlink:href="#DejaVuSans-61" transform="translate(1582.617188 0)"/>
     <use xlink:href="#DejaVuSans-73" transform="translate(1643.896484 0)"/>
    </g>
   </g>
   <g id="text_9">
    <g id="patch_17">
     <path d="M 329.508516 247.075 
L 406.991484 247.075 
Q 408.341484 247.075 408.341484 245.725 
L 408.341484 237.014688 
Q 408.341484 235.664688 406.991484 235.664688 
L 329.508516 235.664688 
Q 328.158516 235.664688 328.158516 237.014688 
L 328.158516 245.725 
Q 328.158516 247.075 329.508516 247.075 
z
" style="fill: #0b1220; opacity: 0.7"/>
    </g>
    <!-- Baja complejidad -->
    <g style="fill: #9ca3af" transform="translate(329.508516 243.853281) scale(0.09 -0.09)">
     <defs>
      <path id="DejaVuSans-42" d="M 1259 2228 
L 1259 519 
L 2272 519 
Q 2781 519 3026 730 
Q 3272 941 3272 1375 
Q 3272 1813 3026 2020 
Q 2781 2228 2272 2228 
L 1259 2228 
z
M 1259 4147 
L 1259 2741 
L 2194 2741 
Q 2656 2741 2882 2914 
Q 3109 3088 3109 3444 
Q 3109 3797 2882 3972 
Q 2656 4147 2194 4147 
L 1259 4147 
z
M 628 4666 
L 2241 4666 
Q 2963 4666 3353 4366 
Q 3744 4066 3744 3513 
Q 3744 3084 3544 2831 
Q 3344 2578 2956 2516 
Q 3422 2416 3680 2098 
Q 3938 1781 3938 1306 
Q 3938 681 3513 340 
Q 3088 0 2303 0 
L 628 0 
L 628 4666 
z
" transform="scale(0.015625)"/>
     </defs>
     <use xlink:href="#DejaVuSans-42"/>
     <use xlink:href="#DejaVuSans-61" transform="translate(68.603516 0)"/>
     <use xlink:href="#DejaVuSans-6a" transform="translate(129.882812 0)"/>
     <use xlink:href="#DejaVuSans-61" transform="translate(157.666016 0)"/>
     <use xlink:href="#DejaVuSans-20" transform="translate(218.945312 0)"/>
     <use xlink:href="#DejaVuSans-63" transform="translate(250.732422 0)"/>
     <use xlink:href="#DejaVuSans-6f" transform="translate(305.712891 0)"/>
     <use xlink:href="#DejaVuSans-6d" transform="translate(366.894531 0)"/>
     <use xlink:href="#DejaVuSans-70" transform="translate(464.306641 0)"/>
     <use xlink:href="#DejaVuSans-6c" transform="translate(527.783203 0)"/>
     <use xlink:href="#DejaVuSans-65" transform="translate(555.566406 0)"/>
     <use xlink:href="#DejaVuSans-6a" transform="translate(617.089844 0)"/>
     <use xlink:href="#DejaVuSans-69" transform="translate(644.873047 0)"/>
     <use xlink:href="#DejaVuSans-64" transform="translate(672.65625 0)"/>
     <use xlink:href="#DejaVuSans-61" transform="translate(736.132812 0)"/>
     <use xlink:href="#DejaVuSans-64" transform="translate(797.412109 0)"/>
    </g>
   </g>
   <g id="text_10">
    <g id="patch_18">
     <path d="M 460.305234 242.375 
L 545.114766 242.375 
Q 546.464766 242.375 546.464766 241.025 
L 546.464766 232.314687 
Q 546.464766 230.964687 545.114766 230.964687 
L 460.305234 230.964687 
Q 458.955234 230.964687 458.955234 232.314687 
L 458.955234 241.025 
Q 458.955234 242.375 460.305234 242.375 
z
" style="fill: #0b1220; opacity: 0.7"/>
    </g>
    <!-- Media complejidad -->
    <g style="fill: #9ca3af" transform="translate(460.305234 239.153281) scale(0.09 -0.09)">
     <use xlink:href="#DejaVuSans-4d"/>
     <use xlink:href="#DejaVuSans-65" transform="translate(86.279297 0)"/>
     <use xlink:href="#DejaVuSans-64" transform="translate(147.802734 0)"/>
     <use xlink:href="#DejaVuSans-69" transform="translate(211.279297 0)"/>
     <use xlink:href="#DejaVuSans-61" transform="translate(239.0625 0)"/>
     <use xlink:href="#DejaVuSans-20" transform="translate(300.341797 0)"/>
     <use xlink:href="#DejaVuSans-63" transform="translate(332.128906 0)"/>
     <use xlink:href="#DejaVuSans-6f" transform="translate(387.109375 0)"/>
     <use xlink:href="#DejaVuSans-6d" transform="translate(448.291016 0)"/>
     <use xlink:href="#DejaVuSans-70" transform="translate(545.703125 0)"/>
     <use xlink:href="#DejaVuSans-6c" transform="translate(609.179688 0)"/>
     <use xlink:href="#DejaVuSans-65" transform="translate(636.962891 0)"/>
     <use xlink:href="#DejaVuSans-6a" transform="translate(698.486328 0)"/>
     <use xlink:href="#DejaVuSans-69" transform="translate(726.269531 0)"/>
     <use xlink:href="#DejaVuSans-64" transform="translate(754.052734 0)"/>
     <use xlink:href="#DejaVuSans-61" transform="translate(817.529297 0)"/>
     <use xlink:href="#DejaVuSans-64" transform="translate(878.808594 0)"/>
    </g>
   </g>
   <g id="text_11">
    <g id="patch_19">
     <path d="M 611.881172 247.075 
L 687.358828 247.075 
Q 688.708828 247.075 688.708828 245.725 
L 688.708828 237.014688 
Q 688.708828 235.664688 687.358828 235.664688 
L 611.881172 235.664688 
Q 610.531172 235.664688 610.531172 237.014688 
L 610.531172 245.725 
Q 610.531172 247.075 611.881172 247.075 
z
" style="fill: #0b1220; opacity: 0.7"/>
    </g>
    <!-- Alta complejidad -->
    <g style="fill: #9ca3af" transform="translate(611.881172 243.853281) scale(0.09 -0.09)">
     <defs>
      <path id="DejaVuSans-41" d="M 2188 4044 
L 1331 1722 
L 3047 1722 
L 2188 4044 
z
M 1831 4666 
L 2547 4666 
L 4325 0 
L 3669 0 
L 3244 1197 
L 1141 1197 
L 716 0 
L 50 0 
L 1831 4666 
z
" transform="scale(0.015625)"/>
     </defs>
     <use xlink:href="#DejaVuSans-41"/>
     <use xlink:href="#DejaVuSans-6c" transform="translate(68.408203 0)"/>
     <use xlink:href="#DejaVuSans-74" transform="translate(96.191406 0)"/>
     <use xlink:href="#DejaVuSans-61" transform="translate(135.400391 0)"/>
     <use xlink:href="#DejaVuSans-20" transform="translate(196.679688 0)"/>
     <use xlink:href="#DejaVuSans-63" transform="translate(228.466797 0)"/>
     <use xlink:href="#DejaVuSans-6f" transform="translate(283.447266 0)"/>
     <use xlink:href="#DejaVuSans-6d" transform="translate(344.628906 0)"/>
     <use xlink:href="#DejaVuSans-70" transform="translate(442.041016 0)"/>
     <use xlink:href="#DejaVuSans-6c" transform="translate(505.517578 0)"/>
     <use xlink:href="#DejaVuSans-65" transform="translate(533.300781 0)"/>
     <use xlink:href="#DejaVuSans-6a" transform="translate(594.824219 0)"/>
     <use xlink:href="#DejaVuSans-69" transform="translate(622.607422 0)"/>
     <use xlink:href="#DejaVuSans-64" transform="translate(650.390625 0)"/>
     <use xlink:href="#DejaVuSans-61" transform="translate(713.867188 0)"/>
     <use xlink:href="#DejaVuSans-64" transform="translate(775.146484 0)"/>
    </g>
   </g>
   <g id="text_12">
    <!-- Sam devuelve la respuesta -->
    <g style="fill: #ffffff" transform="translate(437.317969 420.070469) scale(0.1 -0.1)">
     <use xlink:href="#DejaVuSans-53"/>
     <use xlink:href="#DejaVuSans-61" transform="translate(63.476562 0)"/>
     <use xlink:href="#DejaVuSans-6d" transform="translate(124.755859 0)"/>
     <use xlink:href="#DejaVuSans-20" transform="translate(222.167969 0)"/>
     <use xlink:href="#DejaVuSans-64" transform="translate(253.955078 0)"/>
     <use xlink:href="#DejaVuSans-65" transform="translate(317.431641 0)"/>
     <use xlink:href="#DejaVuSans-76" transform="translate(378.955078 0)"/>
     <use xlink:href="#DejaVuSans-75" transform="translate(438.134766 0)"/>
     <use xlink:href="#DejaVuSans-65" transform="translate(501.513672 0)"/>
     <use xlink:href="#DejaVuSans-6c" transform="translate(563.037109 0)"/>
     <use xlink:href="#DejaVuSans-76" transform="translate(590.820312 0)"/>
     <use xlink:href="#DejaVuSans-65" transform="translate(650 0)"/>
     <use xlink:href="#DejaVuSans-20" transform="translate(711.523438 0)"/>
     <use xlink:href="#DejaVuSans-6c" transform="translate(743.310547 0)"/>
     <use xlink:href="#DejaVuSans-61" transform="translate(771.09375 0)"/>
     <use xlink:href="#DejaVuSans-20" transform="translate(832.373047 0)"/>
     <use xlink:href="#DejaVuSans-72" transform="translate(864.160156 0)"/>
     <use xlink:href="#DejaVuSans-65" transform="translate(903.023438 0)"/>
     <use xlink:href="#DejaVuSans-73" transform="translate(964.546875 0)"/>
     <use xlink:href="#DejaVuSans-70" transform="translate(1016.646484 0)"/>
     <use xlink:href="#DejaVuSans-75" transform="translate(1080.123047 0)"/>
     <use xlink:href="#DejaVuSans-65" transform="translate(1143.501953 0)"/>
     <use xlink:href="#DejaVuSans-73" transform="translate(1205.025391 0)"/>
     <use xlink:href="#DejaVuSans-74" transform="translate(1257.125 0)"/>
     <use xlink:href="#DejaVuSans-61" transform="translate(1296.333984 0)"/>
    </g>
    <!-- (ubicación, propiedades o mensaje) -->
    <g style="fill: #ffffff" transform="translate(415.810938 431.748281) scale(0.1 -0.1)">
     <use xlink:href="#DejaVuSans-28"/>
     <use xlink:href="#DejaVuSans-75" transform="translate(39.013672 0)"/>
     <use xlink:href="#DejaVuSans-62" transform="translate(102.392578 0)"/>
     <use xlink:href="#DejaVuSans-69" transform="translate(165.869141 0)"/>
     <use xlink:href="#DejaVuSans-63" transform="translate(193.652344 0)"/>
     <use xlink:href="#DejaVuSans-61" transform="translate(248.632812 0)"/>
     <use xlink:href="#DejaVuSans-63" transform="translate(309.912109 0)"/>
     <use xlink:href="#DejaVuSans-69" transform="translate(364.892578 0)"/>
     <use xlink:href="#DejaVuSans-f3" transform="translate(392.675781 0)"/>
     <use xlink:href="#DejaVuSans-6e" transform="translate(453.857422 0)"/>
     <use xlink:href="#DejaVuSans-2c" transform="translate(517.236328 0)"/>
     <use xlink:href="#DejaVuSans-20" transform="translate(549.023438 0)"/>
     <use xlink:href="#DejaVuSans-70" transform="translate(580.810547 0)"/>
     <use xlink:href="#DejaVuSans-72" transform="translate(644.287109 0)"/>
     <use xlink:href="#DejaVuSans-6f" transform="translate(683.150391 0)"/>
     <use xlink:href="#DejaVuSans-70" transform="translate(744.332031 0)"/>
     <use xlink:href="#DejaVuSans-69" transform="translate(807.808594 0)"/>
     <use xlink:href="#DejaVuSans-65" transform="translate(835.591797 0)"/>
     <use xlink:href="#DejaVuSans-64" transform="translate(897.115234 0)"/>
     <use xlink:href="#DejaVuSans-61" transform="translate(960.591797 0)"/>
     <use xlink:href="#DejaVuSans-64" transform="translate(1021.871094 0)"/>
     <use xlink:href="#DejaVuSans-65" transform="translate(1085.347656 0)"/>
     <use xlink:href="#DejaVuSans-73" transform="translate(1146.871094 0)"/>
     <use xlink:href="#DejaVuSans-20" transform="translate(1198.970703 0)"/>
     <use xlink:href="#DejaVuSans-6f" transform="translate(1230.757812 0)"/>
     <use xlink:href="#DejaVuSans-20" transform="translate(1291.939453 0)"/>
     <use xlink:href="#DejaVuSans-6d" transform="translate(1323.726562 0)"/>
     <use xlink:href="#DejaVuSans-65" transform="translate(1421.138672 0)"/>
     <use xlink:href="#DejaVuSans-6e" transform="translate(1482.662109 0)"/>
     <use xlink:href="#DejaVuSans-73" transform="translate(1546.041016 0)"/>
     <use xlink:href="#DejaVuSans-61" transform="translate(1598.140625 0)"/>
     <use xlink:href="#DejaVuSans-6a" transform="translate(1659.419922 0)"/>
     <use xlink:href="#DejaVuSans-65" transform="translate(1687.203125 0)"/>
     <use xlink:href="#DejaVuSans-29" transform="translate(1748.726562 0)"/>
    </g>
   </g>
   <g id="text_13">
    <!-- - Si es un saludo o algo corto: Sam prioriza velocidad (Flash-Lite) -->
    <g style="fill: #9ca3af" transform="translate(106.8 514.8) scale(0.1 -0.1)">
     <use xlink:href="#DejaVuSans-2d"/>
     <use xlink:href="#DejaVuSans-20" transform="translate(36.083984 0)"/>
     <use xlink:href="#DejaVuSans-53" transform="translate(67.871094 0)"/>
     <use xlink:href="#DejaVuSans-69" transform="translate(131.347656 0)"/>
     <use xlink:href="#DejaVuSans-20" transform="translate(159.130859 0)"/>
     <use xlink:href="#DejaVuSans-65" transform="translate(190.917969 0)"/>
     <use xlink:href="#DejaVuSans-73" transform="translate(252.441406 0)"/>
     <use xlink:href="#DejaVuSans-20" transform="translate(304.541016 0)"/>
     <use xlink:href="#DejaVuSans-75" transform="translate(336.328125 0)"/>
     <use xlink:href="#DejaVuSans-6e" transform="translate(399.707031 0)"/>
     <use xlink:href="#DejaVuSans-20" transform="translate(463.085938 0)"/>
     <use xlink:href="#DejaVuSans-73" transform="translate(494.873047 0)"/>
     <use xlink:href="#DejaVuSans-61" transform="translate(546.972656 0)"/>
     <use xlink:href="#DejaVuSans-6c" transform="translate(608.251953 0)"/>
     <use xlink:href="#DejaVuSans-75" transform="translate(636.035156 0)"/>
     <use xlink:href="#DejaVuSans-64" transform="translate(699.414062 0)"/>
     <use xlink:href="#DejaVuSans-6f" transform="translate(762.890625 0)"/>
     <use xlink:href="#DejaVuSans-20" transform="translate(824.072266 0)"/>
     <use xlink:href="#DejaVuSans-6f" transform="translate(855.859375 0)"/>
     <use xlink:href="#DejaVuSans-20" transform="translate(917.041016 0)"/>
     <use xlink:href="#DejaVuSans-61" transform="translate(948.828125 0)"/>
     <use xlink:href="#DejaVuSans-6c" transform="translate(1010.107422 0)"/>
     <use xlink:href="#DejaVuSans-67" transform="translate(1037.890625 0)"/>
     <use xlink:href="#DejaVuSans-6f" transform="translate(1101.367188 0)"/>
     <use xlink:href="#DejaVuSans-20" transform="translate(1162.548828 0)"/>
     <use xlink:href="#DejaVuSans-63" transform="translate(1194.335938 0)"/>
     <use xlink:href="#DejaVuSans-6f" transform="translate(1249.316406 0)"/>
     <use xlink:href="#DejaVuSans-72" transform="translate(1310.498047 0)"/>
     <use xlink:href="#DejaVuSans-74" transform="translate(1351.611328 0)"/>
     <use xlink:href="#DejaVuSans-6f" transform="translate(1390.820312 0)"/>
     <use xlink:href="#DejaVuSans-3a" transform="translate(1452.001953 0)"/>
     <use xlink:href="#DejaVuSans-20" transform="translate(1485.693359 0)"/>
     <use xlink:href="#DejaVuSans-53" transform="translate(1517.480469 0)"/>
     <use xlink:href="#DejaVuSans-61" transform="translate(1580.957031 0)"/>
     <use xlink:href="#DejaVuSans-6d" transform="translate(1642.236328 0)"/>
     <use xlink:href="#DejaVuSans-20" transform="translate(1739.648438 0)"/>
     <use xlink:href="#DejaVuSans-70" transform="translate(1771.435547 0)"/>
     <use xlink:href="#DejaVuSans-72" transform="translate(1834.912109 0)"/>
     <use xlink:href="#DejaVuSans-69" transform="translate(1876.025391 0)"/>
     <use xlink:href="#DejaVuSans-6f" transform="translate(1903.808594 0)"/>
     <use xlink:href="#DejaVuSans-72" transform="translate(1964.990234 0)"/>
     <use xlink:href="#DejaVuSans-69" transform="translate(2006.103516 0)"/>
     <use xlink:href="#DejaVuSans-7a" transform="translate(2033.886719 0)"/>
     <use xlink:href="#DejaVuSans-61" transform="translate(2086.376953 0)"/>
     <use xlink:href="#DejaVuSans-20" transform="translate(2147.65625 0)"/>
     <use xlink:href="#DejaVuSans-76" transform="translate(2179.443359 0)"/>
     <use xlink:href="#DejaVuSans-65" transform="translate(2238.623047 0)"/>
     <use xlink:href="#DejaVuSans-6c" transform="translate(2300.146484 0)"/>
     <use xlink:href="#DejaVuSans-6f" transform="translate(2327.929688 0)"/>
     <use xlink:href="#DejaVuSans-63" transform="translate(2389.111328 0)"/>
     <use xlink:href="#DejaVuSans-69" transform="translate(2444.091797 0)"/>
     <use xlink:href="#DejaVuSans-64" transform="translate(2471.875 0)"/>
     <use xlink:href="#DejaVuSans-61" transform="translate(2535.351562 0)"/>
     <use xlink:href="#DejaVuSans-64" transform="translate(2596.630859 0)"/>
     <use xlink:href="#DejaVuSans-20" transform="translate(2660.107422 0)"/>
     <use xlink:href="#DejaVuSans-28" transform="translate(2691.894531 0)"/>
     <use xlink:href="#DejaVuSans-46" transform="translate(2730.908203 0)"/>
     <use xlink:href="#DejaVuSans-6c" transform="translate(2788.427734 0)"/>
     <use xlink:href="#DejaVuSans-61" transform="translate(2816.210938 0)"/>
     <use xlink:href="#DejaVuSans-73" transform="translate(2877.490234 0)"/>
     <use xlink:href="#DejaVuSans-68" transform="translate(2929.589844 0)"/>
     <use xlink:href="#DejaVuSans-2d" transform="translate(2992.96875 0)"/>
     <use xlink:href="#DejaVuSans-4c" transform="translate(3029.052734 0)"/>
     <use xlink:href="#DejaVuSans-69" transform="translate(3084.765625 0)"/>
     <use xlink:href="#DejaVuSans-74" transform="translate(3112.548828 0)"/>
     <use xlink:href="#DejaVuSans-65" transform="translate(3151.757812 0)"/>
     <use xlink:href="#DejaVuSans-29" transform="translate(3213.28125 0)"/>
    </g>
   </g>
   <g id="text_14">
    <!-- - Si es una búsqueda normal: usa Flash para buen balance -->
    <g style="fill: #9ca3af" transform="translate(106.8 533.6) scale(0.1 -0.1)">
     <use xlink:href="#DejaVuSans-2d"/>
     <use xlink:href="#DejaVuSans-20" transform="translate(36.083984 0)"/>
     <use xlink:href="#DejaVuSans-53" transform="translate(67.871094 0)"/>
     <use xlink:href="#DejaVuSans-69" transform="translate(131.347656 0)"/>
     <use xlink:href="#DejaVuSans-20" transform="translate(159.130859 0)"/>
     <use xlink:href="#DejaVuSans-65" transform="translate(190.917969 0)"/>
     <use xlink:href="#DejaVuSans-73" transform="translate(252.441406 0)"/>
     <use xlink:href="#DejaVuSans-20" transform="translate(304.541016 0)"/>
     <use xlink:href="#DejaVuSans-75" transform="translate(336.328125 0)"/>
     <use xlink:href="#DejaVuSans-6e" transform="translate(399.707031 0)"/>
     <use xlink:href="#DejaVuSans-61" transform="translate(463.085938 0)"/>
     <use xlink:href="#DejaVuSans-20" transform="translate(524.365234 0)"/>
     <use xlink:href="#DejaVuSans-62" transform="translate(556.152344 0)"/>
     <use xlink:href="#DejaVuSans-fa" transform="translate(619.628906 0)"/>
     <use xlink:href="#DejaVuSans-73" transform="translate(683.007812 0)"/>
     <use xlink:href="#DejaVuSans-71" transform="translate(735.107422 0)"/>
     <use xlink:href="#DejaVuSans-75" transform="translate(798.583984 0)"/>
     <use xlink:href="#DejaVuSans-65" transform="translate(861.962891 0)"/>
     <use xlink:href="#DejaVuSans-64" transform="translate(923.486328 0)"/>
     <use xlink:href="#DejaVuSans-61" transform="translate(986.962891 0)"/>
     <use xlink:href="#DejaVuSans-20" transform="translate(1048.242188 0)"/>
     <use xlink:href="#DejaVuSans-6e" transform="translate(1080.029297 0)"/>
     <use xlink:href="#DejaVuSans-6f" transform="translate(1143.408203 0)"/>
     <use xlink:href="#DejaVuSans-72" transform="translate(1204.589844 0)"/>
     <use xlink:href="#DejaVuSans-6d" transform="translate(1243.953125 0)"/>
     <use xlink:href="#DejaVuSans-61" transform="translate(1341.365234 0)"/>
     <use xlink:href="#DejaVuSans-6c" transform="translate(1402.644531 0)"/>
     <use xlink:href="#DejaVuSans-3a" transform="translate(1430.427734 0)"/>
     <use xlink:href="#DejaVuSans-20" transform="translate(1464.119141 0)"/>
     <use xlink:href="#DejaVuSans-75" transform="translate(1495.90625 0)"/>
     <use xlink:href="#DejaVuSans-73" transform="translate(1559.285156 0)"/>
     <use xlink:href="#DejaVuSans-61" transform="translate(1611.384766 0)"/>
     <use xlink:href="#DejaVuSans-20" transform="translate(1672.664062 0)"/>
     <use xlink:href="#DejaVuSans-46" transform="translate(1704.451172 0)"/>
     <use xlink:href="#DejaVuSans-6c" transform="translate(1761.970703 0)"/>
     <use xlink:href="#DejaVuSans-61" transform="translate(1789.753906 0)"/>
     <use xlink:href="#DejaVuSans-73" transform="translate(1851.033203 0)"/>
     <use xlink:href="#DejaVuSans-68" transform="translate(1903.132812 0)"/>
     <use xlink:href="#DejaVuSans-20" transform="translate(1966.511719 0)"/>
     <use xlink:href="#DejaVuSans-70" transform="translate(1998.298828 0)"/>
     <use xlink:href="#DejaVuSans-61" transform="translate(2061.775391 0)"/>
     <use xlink:href="#DejaVuSans-72" transform="translate(2123.054688 0)"/>
     <use xlink:href="#DejaVuSans-61" transform="translate(2164.167969 0)"/>
     <use xlink:href="#DejaVuSans-20" transform="translate(2225.447266 0)"/>
     <use xlink:href="#DejaVuSans-62" transform="translate(2257.234375 0)"/>
     <use xlink:href="#DejaVuSans-75" transform="translate(2320.710938 0)"/>
     <use xlink:href="#DejaVuSans-65" transform="translate(2384.089844 0)"/>
     <use xlink:href="#DejaVuSans-6e" transform="translate(2445.613281 0)"/>
     <use xlink:href="#DejaVuSans-20" transform="translate(2508.992188 0)"/>
     <use xlink:href="#DejaVuSans-62" transform="translate(2540.779297 0)"/>
     <use xlink:href="#DejaVuSans-61" transform="translate(2604.255859 0)"/>
     <use xlink:href="#DejaVuSans-6c" transform="translate(2665.535156 0)"/>
     <use xlink:href="#DejaVuSans-61" transform="translate(2693.318359 0)"/>
     <use xlink:href="#DejaVuSans-6e" transform="translate(2754.597656 0)"/>
     <use xlink:href="#DejaVuSans-63" transform="translate(2817.976562 0)"/>
     <use xlink:href="#DejaVuSans-65" transform="translate(2872.957031 0)"/>
    </g>
   </g>
   <g id="text_15">
    <!-- - Si requiere pensar mucho o es larga: usa Pro -->
    <g style="fill: #9ca3af" transform="translate(106.8 552.4) scale(0.1 -0.1)">
     <use xlink:href="#DejaVuSans-2d"/>
     <use xlink:href="#DejaVuSans-20" transform="translate(36.083984 0)"/>
     <use xlink:href="#DejaVuSans-53" transform="translate(67.871094 0)"/>
     <use xlink:href="#DejaVuSans-69" transform="translate(131.347656 0)"/>
     <use xlink:href="#DejaVuSans-20" transform="translate(159.130859 0)"/>
     <use xlink:href="#DejaVuSans-72" transform="translate(190.917969 0)"/>
     <use xlink:href="#DejaVuSans-65" transform="translate(229.78125 0)"/>
     <use xlink:href="#DejaVuSans-71" transform="translate(291.304688 0)"/>
     <use xlink:href="#DejaVuSans-75" transform="translate(354.78125 0)"/>
     <use xlink:href="#DejaVuSans-69" transform="translate(418.160156 0)"/>
     <use xlink:href="#DejaVuSans-65" transform="translate(445.943359 0)"/>
     <use xlink:href="#DejaVuSans-72" transform="translate(507.466797 0)"/>
     <use xlink:href="#DejaVuSans-65" transform="translate(546.330078 0)"/>
     <use xlink:href="#DejaVuSans-20" transform="translate(607.853516 0)"/>
     <use xlink:href="#DejaVuSans-70" transform="translate(639.640625 0)"/>
     <use xlink:href="#DejaVuSans-65" transform="translate(703.117188 0)"/>
     <use xlink:href="#DejaVuSans-6e" transform="translate(764.640625 0)"/>
     <use xlink:href="#DejaVuSans-73" transform="translate(828.019531 0)"/>
     <use xlink:href="#DejaVuSans-61" transform="translate(880.119141 0)"/>
     <use xlink:href="#DejaVuSans-72" transform="translate(941.398438 0)"/>
     <use xlink:href="#DejaVuSans-20" transform="translate(982.511719 0)"/>
     <use xlink:href="#DejaVuSans-6d" transform="translate(1014.298828 0)"/>
     <use xlink:href="#DejaVuSans-75" transform="translate(1111.710938 0)"/>
     <use xlink:href="#DejaVuSans-63" transform="translate(1175.089844 0)"/>
     <use xlink:href="#DejaVuSans-68" transform="translate(1230.070312 0)"/>
     <use xlink:href="#DejaVuSans-6f" transform="translate(1293.449219 0)"/>
     <use xlink:href="#DejaVuSans-20" transform="translate(1354.630859 0)"/>
     <use xlink:href="#DejaVuSans-6f" transform="translate(1386.417969 0)"/>
     <use xlink:href="#DejaVuSans-20" transform="translate(1447.599609 0)"/>
     <use xlink:href="#DejaVuSans-65" transform="translate(1479.386719 0)"/>
     <use xlink:href="#DejaVuSans-73" transform="translate(1540.910156 0)"/>
     <use xlink:href="#DejaVuSans-20" transform="translate(1593.009766 0)"/>
     <use xlink:href="#DejaVuSans-6c" transform="translate(1624.796875 0)"/>
     <use xlink:href="#DejaVuSans-61" transform="translate(1652.580078 0)"/>
     <use xlink:href="#DejaVuSans-72" transform="translate(1713.859375 0)"/>
     <use xlink:href="#DejaVuSans-67" transform="translate(1753.222656 0)"/>
     <use xlink:href="#DejaVuSans-61" transform="translate(1816.699219 0)"/>
     <use xlink:href="#DejaVuSans-3a" transform="translate(1877.978516 0)"/>
     <use xlink:href="#DejaVuSans-20" transform="translate(1911.669922 0)"/>
     <use xlink:href="#DejaVuSans-75" transform="translate(1943.457031 0)"/>
     <use xlink:href="#DejaVuSans-73" transform="translate(2006.835938 0)"/>
     <use xlink:href="#DejaVuSans-61" transform="translate(2058.935547 0)"/>
     <use xlink:href="#DejaVuSans-20" transform="translate(2120.214844 0)"/>
     <use xlink:href="#DejaVuSans-50" transform="translate(2152.001953 0)"/>
     <use xlink:href="#DejaVuSans-72" transform="translate(2210.554688 0)"/>
     <use xlink:href="#DejaVuSans-6f" transform="translate(2249.417969 0)"/>
    </g>
   </g>
  </g>
 </g>
 <defs>
  <clipPath id="pffcf0c7333">
   <rect x="7.2" y="7.2" width="996" height="564"/>
  </clipPath>
 </defs>
</svg>
